{
.appVersion = "1141";
copyright = "Copyright 2011, 2017 Google Inc. All Rights Reserved.";
customParameters = (
{
name = glyphOrder;
value = (
.null,
CR,
space,
exclam,
quotedbl,
numbersign,
dollar,
percent,
ampersand,
quotesingle,
parenleft,
parenright,
asterisk,
plus,
comma,
hyphen,
period,
slash,
zero,
one,
two,
three,
four,
five,
six,
seven,
eight,
nine,
colon,
semicolon,
less,
equal,
greater,
question,
at,
A,
B,
C,
D,
E,
F,
G,
H,
I,
J,
K,
L,
M,
N,
O,
P,
Q,
R,
S,
T,
U,
V,
W,
X,
Y,
Z,
bracketleft,
backslash,
bracketright,
asciicircum,
underscore,
grave,
a,
b,
c,
d,
e,
f,
g,
h,
i,
j,
k,
l,
m,
n,
o,
p,
q,
r,
s,
t,
u,
v,
w,
x,
y,
z,
braceleft,
bar,
braceright,
asciitilde,
nbspace,
exclamdown,
cent,
sterling,
currency,
yen,
brokenbar,
section,
dieresis,
copyright,
ordfeminine,
guillemotleft,
logicalnot,
softhyphen,
registered,
macron,
degree,
plusminus,
twosuperior,
threesuperior,
acute,
micro,
paragraph,
periodcentered,
cedilla,
onesuperior,
ordmasculine,
guillemotright,
onequarter,
onehalf,
threequarters,
questiondown,
Agrave,
Aacute,
Acircumflex,
Atilde,
Adieresis,
Aring,
AE,
Ccedilla,
Egrave,
Eacute,
Ecircumflex,
Edieresis,
Igrave,
Iacute,
Icircumflex,
Idieresis,
Eth,
Ntilde,
Ograve,
Oacute,
Ocircumflex,
Otilde,
Odieresis,
multiply,
Oslash,
Ugrave,
Uacute,
Ucircumflex,
Udieresis,
Yacute,
Thorn,
germandbls,
agrave,
aacute,
acircumflex,
atilde,
adieresis,
aring,
ae,
ccedilla,
egrave,
eacute,
ecircumflex,
edieresis,
igrave,
iacute,
icircumflex,
idieresis,
eth,
ntilde,
ograve,
oacute,
ocircumflex,
otilde,
odieresis,
divide,
oslash,
ugrave,
uacute,
ucircumflex,
udieresis,
yacute,
thorn,
ydieresis,
Amacron,
amacron,
Abreve,
abreve,
Aogonek,
aogonek,
Cacute,
cacute,
Ccircumflex,
ccircumflex,
Cdotaccent,
cdotaccent,
Ccaron,
ccaron,
Dcaron,
dcaron,
Dcroat,
dcroat,
Emacron,
emacron,
Ebreve,
ebreve,
Edotaccent,
edotaccent,
Eogonek,
eogonek,
Ecaron,
ecaron,
Gcircumflex,
gcircumflex,
Gbreve,
gbreve,
Gdotaccent,
gdotaccent,
Gcommaaccent,
gcommaaccent,
Hcircumflex,

glyphs = (
{
glyphname = exclam;
layers = (
{
layerId = "1E68CFC6-8A63-43E3-914A-DAEC22AC2E91";
paths = (
{
closed = 1;
nodes = (
"72 147 OFFCURVE",
"139 216 OFFCURVE",
"197 216 QCURVE SMOOTH",
"255 215 OFFCURVE",
"313 145 OFFCURVE",
"310 96 QCURVE SMOOTH",
"307 47 OFFCURVE",
"241 -22 OFFCURVE",
"183 -22 QCURVE SMOOTH",
"125 -21 OFFCURVE",
"67 49 OFFCURVE",
"70 98 QCURVE SMOOTH"
);
},
{
closed = 1;
nodes = (
"335 1456 LINE",
"524 1456 LINE",
"325 410 LINE",
"165 410 LINE"
);
}
);
width = 602;
}
);
unicode = 0021;
},
{
glyphname = quotedbl;
layers = (
{
layerId = "1E68CFC6-8A63-43E3-914A-DAEC22AC2E91";
paths = (
{
closed = 1;
nodes = (
"202 1320 LINE",
"226 1456 LINE",
"400 1456 LINE",
"376 1320 LINE",
"299 966 LINE",
"154 966 LINE"
);
},
{
closed = 1;
nodes = (
"570 1320 LINE",
"594 1456 LINE",
"769 1456 LINE",
"745 1320 LINE",
"668 966 LINE",
"522 966 LINE"
);
}
);
width = 737;
}
);
leftKerningGroup = minute;
rightKerningGroup = minute;
unicode = 0022;
},
{
glyphname = numbersign;
layers = (
{
layerId = "1E68CFC6-8A63-43E3-914A-DAEC22AC2E91";
paths = (
{
closed = 1;
nodes = (
"770 1501 LINE",
"910 1501 LINE",
"218 -20 LINE",
"78 -20 LINE"
);
},
{
closed = 1;
nodes = (
"1261 1501 LINE",
"1401 1501 LINE",
"708 -20 LINE",
"569 -20 LINE"
);
},
{
closed = 1;
nodes = (
"30 542 LINE",
"1330 542 LINE",
"1306 404 LINE",
"5 404 LINE"
);
},
{
closed = 1;
nodes = (
"173 1077 LINE",
"1473 1077 LINE",
"1449 939 LINE",
"149 939 LINE"
);
}
);
width = 1497;
}
);
unicode = 0023;
},
{
glyphname = dollar;
layers = (
{
layerId = "1E68CFC6-8A63-43E3-914A-DAEC22AC2E91";
paths = (
{
closed = 1;
nodes = (
"-39 392 LINE",
"133 392 LINE",
"131 381 LINE SMOOTH",
"110 261 OFFCURVE",
"249 143 OFFCURVE",
"393 143 QCURVE SMOOTH",
"535 143 OFFCURVE",
"710 265 OFFCURVE",
"728 365 QCURVE SMOOTH",
"744 455 OFFCURVE",
"630 608 OFFCURVE",
"428 670 QCURVE SMOOTH",
"226 731 OFFCURVE",
"86 946 OFFCURVE",
"113 1099 QCURVE SMOOTH",
"141 1254 OFFCURVE",
"409 1458 OFFCURVE",
"615 1458 QCURVE SMOOTH",
"822 1458 OFFCURVE",
"1026 1235 OFFCURVE",
"998 1076 QCURVE SMOOTH",
"996 1065 LINE",
"824 1065 LINE",
"826 1076 LINE SMOOTH",
"845 1181 OFFCURVE",
"727 1308 OFFCURVE",
"589 1308 QCURVE SMOOTH",
"451 1308 OFFCURVE",
"301 1199 OFFCURVE",
"283 1099 QCURVE SMOOTH",
"269 1018 OFFCURVE",
"378 873 OFFCURVE",
"577 812 QCURVE SMOOTH",
"775 752 OFFCURVE",
"926 527 OFFCURVE",
"898 365 QCURVE SMOOTH",
"869 202 OFFCURVE",
"581 -6 OFFCURVE",
"367 -6 QCURVE SMOOTH",
"151 -6 OFFCURVE",
"-72 202 OFFCURVE",
"-40 381 QCURVE SMOOTH"
);
},
{
closed = 1;
nodes = (
"429 758 LINE",
"560 758 LINE",
"441 80 LINE",
"453 70 LINE",
"410 -170 LINE",
"265 -170 LINE"
);
},
{
closed = 1;
nodes = (
"553 1386 LINE",
"541 1396 LINE",
"575 1586 LINE",
"720 1586 LINE",
"574 758 LINE",
"442 758 LINE"
);
}
);
width = 993;
}
);
unicode = 0024;
},
{
glyphname = ampersand;
layers = (
{
layerId = "1E68CFC6-8A63-43E3-914A-DAEC22AC2E91";
paths = (
{
closed = 1;
nodes = (
"45 540 OFFCURVE",
"298 766 OFFCURVE",
"460 860 QCURVE SMOOTH",
"633 960 LINE SMOOTH",
"719 1010 OFFCURVE",
"795 1110 OFFCURVE",
"806 1170 QCURVE SMOOTH",
"818 1240 OFFCURVE",
"747 1334 OFFCURVE",
"665 1334 QCURVE SMOOTH",
"583 1334 OFFCURVE",
"469 1230 OFFCURVE",
"457 1160 QCURVE SMOOTH",
"444 1090 OFFCURVE",
"499 960 OFFCURVE",
"573 840 QCURVE SMOOTH",
"1090 0 LINE",
"875 0 LINE",
"420 740 LINE SMOOTH",
"340 870 OFFCURVE",
"263 1060 OFFCURVE",
"280 1160 QCURVE SMOOTH",
"305 1300 OFFCURVE",
"541 1486 OFFCURVE",
"692 1486 QCURVE SMOOTH",
"842 1486 OFFCURVE",
"997 1310 OFFCURVE",
"974 1180 QCURVE SMOOTH",
"953 1060 OFFCURVE",
"813 900 OFFCURVE",
"709 840 QCURVE SMOOTH",
"536 740 LINE SMOOTH",
"385 652 OFFCURVE",
"214 490 OFFCURVE",
"195 380 QCURVE SMOOTH",
"176 270 OFFCURVE",
"303 132 OFFCURVE",
"429 132 QCURVE SMOOTH",
"603 132 OFFCURVE",
"906 420 OFFCURVE",
"951 674 QCURVE",
"1118 674 LINE",
"1066 380 OFFCURVE",
"654 -20 OFFCURVE",
"402 -20 QCURVE SMOOTH",
"189 -20 OFFCURVE",
"-14 205 OFFCURVE",
"17 380 QCURVE SMOOTH"
);
}
);
width = 1242;
}
);
unicode = 0026;
},
{
glyphname = quotesingle;
layers = (
{
layerId = "1E68CFC6-8A63-43E3-914A-DAEC22AC2E91";
paths = (
{
closed = 1;
nodes = (
"202 1320 LINE",
"226 1456 LINE",
"420 1456 LINE",
"396 1320 LINE",
"309 966 LINE",
"164 966 LINE"
);
}
);
width = 388;
}
);
leftKerningGroup = minute;
rightKerningGroup = minute;
unicode = 0027;
},
{
glyphname = parenleft;
layers = (
{
layerId = "1E68CFC6-8A63-43E3-914A-DAEC22AC2E91";
paths = (
{
closed = 1;
nodes = (
"258 -340 OFFCURVE",
"17 140 OFFCURVE",
"83 515 QCURVE SMOOTH",
"85 525 LINE SMOOTH",
"154 917 OFFCURVE",
"562 1380 OFFCURVE",
"776 1476 QCURVE",
"745 1296 LINE",
"611 1220 OFFCURVE",
"333 861 OFFCURVE",
"275 532 QCURVE SMOOTH",
"271 508 LINE SMOOTH",
"215 193 OFFCURVE",
"364 -180 OFFCURVE",
"471 -256 QCURVE",
"439 -436 LINE"
);
}
);
width = 679;
}
);
rightKerningGroup = parens;
unicode = 0028;
},
{
glyphname = parenright;
layers = (
{
layerId = "1E68CFC6-8A63-43E3-914A-DAEC22AC2E91";
paths = (
{
closed = 1;
nodes = (
"-138 -256 LINE",
"-5 -180 OFFCURVE",
"276 193 OFFCURVE",
"331 508 QCURVE SMOOTH",
"335 532 LINE SMOOTH",
"393 861 OFFCURVE",
"242 1220 OFFCURVE",
"135 1296 QCURVE",
"167 1476 LINE",
"348 1380 OFFCURVE",
"592 917 OFFCURVE",
"523 525 QCURVE SMOOTH",
"522 515 LINE SMOOTH",
"455 140 OFFCURVE",
"45 -340 OFFCURVE",
"-170 -436 QCURVE"
);
}
);
width = 679;
}
);
leftKerningGroup = parens;
unicode = 0029;
},
{
glyphname = asterisk;
layers = (
{
layerId = "1E68CFC6-8A63-43E3-914A-DAEC22AC2E91";
paths = (
{
closed = 1;
nodes = (
"204 1237 LINE",
"531 1079 LINE",
"564 1476 LINE",
"748 1476 LINE",
"641 1079 LINE",
"1024 1237 LINE",
"1050 1057 LINE",
"657 969 LINE",
"860 671 LINE",
"691 559 LINE",
"555 903 LINE",
"297 559 LINE",
"168 671 LINE",
"476 969 LINE",
"115 1057 LINE"
);
}
);
width = 1048;
}
);
unicode = 002A;
},
{
glyphname = plus;
layers = (
{
layerId = "1E68CFC6-8A63-43E3-914A-DAEC22AC2E91";
paths = (
{
closed = 1;
nodes = (
"60 755 LINE",
"943 755 LINE",
"914 591 LINE",
"31 591 LINE"
);
},
{
closed = 1;
nodes = (
"486 1160 LINE",
"660 1160 LINE",
"489 188 LINE",
"314 188 LINE"
);
}
);
width = 993;
}
);
unicode = 002B;
},
{
glyphname = comma;
layers = (
{
layerId = "1E68CFC6-8A63-43E3-914A-DAEC22AC2E91";
paths = (
{
closed = 1;
nodes = (
"-2 -154 OFFCURVE",
"72 -20 OFFCURVE",
"88 70 QCURVE SMOOTH",
"114 220 LINE",
"289 220 LINE",
"263 70 LINE SMOOTH",
"243 -40 OFFCURVE",
"118 -224 OFFCURVE",
"29 -291 QCURVE",
"-60 -218 LINE"
);
}
);
width = 563;
}
);
leftKerningGroup = comma;
rightKerningGroup = comma;
unicode = 002C;
},
{
glyphname = hyphen;
layers = (
{
layerId = "1E68CFC6-8A63-43E3-914A-DAEC22AC2E91";
paths = (
{
closed = 1;
nodes = (
"56 716 LINE",
"604 716 LINE",
"573 544 LINE",
"26 544 LINE"
);
}
);
width = 663;
}
);
leftKerningGroup = emdash;
rightKerningGroup = emdash;
unicode = 002D;
},
{
glyphname = period;
layers = (
{
layerId = "1E68CFC6-8A63-43E3-914A-DAEC22AC2E91";
paths = (
{
closed = 1;
nodes = (
"49 156 OFFCURVE",
"117 228 OFFCURVE",
"179 228 QCURVE SMOOTH",
"240 227 OFFCURVE",
"301 154 OFFCURVE",
"298 102 QCURVE SMOOTH",
"294 50 OFFCURVE",
"226 -22 OFFCURVE",
"164 -22 QCURVE SMOOTH",
"103 -21 OFFCURVE",
"42 52 OFFCURVE",
"45 104 QCURVE SMOOTH"
);
}
);
width = 563;
}
);
leftKerningGroup = comma;
rightKerningGroup = comma;
unicode = 002E;
},
{
glyphname = slash;
layers = (
{
layerId = "1E68CFC6-8A63-43E3-914A-DAEC22AC2E91";
paths = (
{
closed = 1;
nodes = (
"621 1456 LINE",
"792 1456 LINE",
"-76 -125 LINE",
"-247 -125 LINE"
);
}
);
width = 566;
}
);
unicode = 002F;
},
{
glyphname = zero;
layers = (
{
layerId = "1E68CFC6-8A63-43E3-914A-DAEC22AC2E91";
paths = (
{
closed = 1;
nodes = (
"154 996 LINE SMOOTH",
"193 1216 OFFCURVE",
"481 1486 OFFCURVE",
"695 1486 QCURVE SMOOTH",
"906 1486 OFFCURVE",
"1101 1216 OFFCURVE",
"1062 996 QCURVE SMOOTH",
"968 460 LINE SMOOTH",
"929 240 OFFCURVE",
"639 -30 OFFCURVE",
"427 -30 QCURVE SMOOTH",
"214 -30 OFFCURVE",
"21 240 OFFCURVE",
"60 460 QCURVE SMOOTH"
);
},
{
closed = 1;
nodes = (
"222 310 OFFCURVE",
"319 128 OFFCURVE",
"455 128 QCURVE SMOOTH",
"591 128 OFFCURVE",
"753 310 OFFCURVE",
"778 450 QCURVE SMOOTH",
"876 1006 LINE SMOOTH",
"901 1146 OFFCURVE",
"803 1328 OFFCURVE",
"667 1328 QCURVE SMOOTH",
"531 1328 OFFCURVE",
"369 1146 OFFCURVE",
"344 1006 QCURVE SMOOTH",
"246 450 LINE SMOOTH"
);
}
);
width = 1122;
}
);
unicode = 0030;
},
{
glyphname = one;
layers = (
{
layerId = "1E68CFC6-8A63-43E3-914A-DAEC22AC2E91";
paths = (
{
closed = 1;
nodes = (
"615 1245 LINE",
"231 1090 LINE",
"264 1276 LINE",
"813 1476 LINE",
"842 1476 LINE",
"582 0 LINE",
"396 0 LINE"
);
}
);
width = 1121;
}
);
unicode = 0031;
},
{
glyphname = two;
layers = (
{
layerId = "1E68CFC6-8A63-43E3-914A-DAEC22AC2E91";
paths = (
{
closed = 1;
nodes = (
"3 140 LINE",
"607 700 LINE SMOOTH",
"727 810 OFFCURVE",
"860 980 OFFCURVE",
"877 1080 QCURVE SMOOTH",
"895 1180 OFFCURVE",
"790 1328 OFFCURVE",
"674 1328 QCURVE SMOOTH",
"557 1328 OFFCURVE",
"369 1170 OFFCURVE",
"345 1030 QCURVE SMOOTH",
"343 1020 LINE",
"159 1020 LINE",
"160 1030 LINE SMOOTH",
"196 1230 OFFCURVE",
"506 1486 OFFCURVE",
"701 1486 QCURVE SMOOTH",
"895 1486 OFFCURVE",
"1092 1250 OFFCURVE",
"1063 1090 QCURVE SMOOTH",
"1038 948 OFFCURVE",
"842 716 OFFCURVE",
"709 595 QCURVE SMOOTH",
"239 166 LINE",
"939 166 LINE",
"910 0 LINE",
"-21 0 LINE"
);
}
);
width = 1121;
}
);
unicode = 0032;
},
{
glyphname = three;
layers = (
{
layerId = "1E68CFC6-8A63-43E3-914A-DAEC22AC2E91";
paths = (
{
closed = 1;
nodes = (
"18 390 LINE",
"199 390 LINE",
"197 380 LINE SMOOTH",
"176 260 OFFCURVE",
"308 128 OFFCURVE",
"436 128 QCURVE SMOOTH",
"564 128 OFFCURVE",
"740 260 OFFCURVE",
"765 400 QCURVE SMOOTH",
"790 540 OFFCURVE",
"642 682 OFFCURVE",
"497 682 QCURVE SMOOTH",
"385 682 LINE",
"412 836 LINE",
"514 836 LINE SMOOTH",
"648 836 OFFCURVE",
"817 970 OFFCURVE",
"838 1090 QCURVE SMOOTH",
"859 1210 OFFCURVE",
"754 1328 OFFCURVE",
"647 1328 QCURVE SMOOTH",
"535 1328 OFFCURVE",
"382 1210 OFFCURVE",
"363 1100 QCURVE SMOOTH",
"361 1090 LINE",
"181 1090 LINE",
"182 1100 LINE SMOOTH",
"211 1260 OFFCURVE",
"485 1486 OFFCURVE",
"675 1486 QCURVE SMOOTH",
"860 1486 OFFCURVE",
"1056 1270 OFFCURVE",
"1026 1100 QCURVE SMOOTH",
"1009 1000 OFFCURVE",
"869 816 OFFCURVE",
"748 766 QCURVE",
"747 762 LINE",
"864 730 OFFCURVE",
"978 540 OFFCURVE",
"953 401 QCURVE SMOOTH",
"918 200 OFFCURVE",
"612 -30 OFFCURVE",
"408 -30 QCURVE SMOOTH",
"193 -30 OFFCURVE",
"-15 200 OFFCURVE",
"17 380 QCURVE SMOOTH"
);
}
);
width = 1121;
}
);
unicode = 0033;
},
{
glyphname = four;
layers = (
{
layerId = "1E68CFC6-8A63-43E3-914A-DAEC22AC2E91";
paths = (
{
closed = 1;
nodes = (
"644 398 LINE",
"654 450 LINE",
"777 1149 LINE",
"765 1149 LINE",
"221 500 LINE",
"712 500 LINE",
"787 500 LINE",
"1035 500 LINE",
"1007 342 LINE",
"-19 342 LINE",
"3 468 LINE",
"839 1456 LINE",
"1006 1456 LINE",
"749 0 LINE",
"574 0 LINE"
);
}
);
width = 1122;
}
);
unicode = 0034;
},
{
glyphname = five;
layers = (
{
layerId = "1E68CFC6-8A63-43E3-914A-DAEC22AC2E91";
paths = (
{
closed = 1;
nodes = (
"35 375 LINE",
"214 375 LINE",
"212 365 LINE SMOOTH",
"192 255 OFFCURVE",
"321 128 OFFCURVE",
"447 128 QCURVE SMOOTH",
"574 128 OFFCURVE",
"766 305 OFFCURVE",
"794 465 QCURVE SMOOTH",
"822 625 OFFCURVE",
"691 793 OFFCURVE",
"565 793 QCURVE SMOOTH",
"477 793 OFFCURVE",
"332 728 OFFCURVE",
"263 668 QCURVE",
"146 730 LINE",
"346 1456 LINE",
"1079 1456 LINE",
"1049 1286 LINE",
"467 1286 LINE",
"352 876 LINE",
"406 906 OFFCURVE",
"544 952 OFFCURVE",
"622 952 QCURVE SMOOTH",
"806 952 OFFCURVE",
"1019 695 OFFCURVE",
"978 465 QCURVE SMOOTH",
"938 235 OFFCURVE",
"623 -30 OFFCURVE",
"420 -30 QCURVE SMOOTH",
"202 -30 OFFCURVE",
"3 195 OFFCURVE",
"33 365 QCURVE SMOOTH"
);
}
);
width = 1121;
}
);
unicode = 0035;
},
{
glyphname = six;
layers = (
{
layerId = "1E68CFC6-8A63-43E3-914A-DAEC22AC2E91";
paths = (
{
closed = 1;
nodes = (
"71 644 LINE SMOOTH",
"138 1024 OFFCURVE",
"619 1486 OFFCURVE",
"988 1486 QCURVE SMOOTH",
"1007 1486 LINE",
"979 1328 LINE",
"960 1328 LINE SMOOTH",
"688 1328 OFFCURVE",
"317 1004 OFFCURVE",
"255 654 QCURVE SMOOTH",
"246 604 LINE SMOOTH",
"200 344 OFFCURVE",
"341 128 OFFCURVE",
"477 128 QCURVE SMOOTH",
"612 128 OFFCURVE",
"793 304 OFFCURVE",
"821 464 QCURVE SMOOTH",
"849 624 OFFCURVE",
"731 798 OFFCURVE",
"595 798 QCURVE SMOOTH",
"469 798 OFFCURVE",
"244 624 OFFCURVE",
"216 464 QCURVE",
"148 464 LINE",
"187 684 OFFCURVE",
"467 956 OFFCURVE",
"661 956 QCURVE SMOOTH",
"855 956 OFFCURVE",
"1044 684 OFFCURVE",
"1005 464 QCURVE SMOOTH",
"967 244 OFFCURVE",
"652 -30 OFFCURVE",
"449 -30 QCURVE SMOOTH",
"245 -30 OFFCURVE",
"6 274 OFFCURVE",
"66 614 QCURVE SMOOTH"
);
}
);
width = 1121;
}
);
unicode = 0036;
},
{
glyphname = seven;
layers = (
{
layerId = "1E68CFC6-8A63-43E3-914A-DAEC22AC2E91";
paths = (
{
closed = 1;
nodes = (
"927 1295 LINE",
"176 1295 LINE",
"204 1456 LINE",
"1149 1456 LINE",
"1131 1352 LINE",
"347 0 LINE",
"157 0 LINE"
);
}
);
width = 1121;
}
);
unicode = 0037;
},
{
glyphname = eight;
layers = (
{
layerId = "1E68CFC6-8A63-43E3-914A-DAEC22AC2E91";
paths = (
{
closed = 1;
nodes = (
"64 516 OFFCURVE",
"235 701 OFFCURVE",
"352 746 QCURVE",
"352 750 LINE",
"277 793 OFFCURVE",
"188 967 OFFCURVE",
"209 1087 QCURVE SMOOTH",
"241 1267 OFFCURVE",
"521 1486 OFFCURVE",
"696 1486 QCURVE SMOOTH",
"870 1486 OFFCURVE",
"1072 1269 OFFCURVE",
"1039 1087 QCURVE SMOOTH",
"1018 967 OFFCURVE",
"869 793 OFFCURVE",
"778 750 QCURVE",
"778 746 LINE",
"878 701 OFFCURVE",
"983 516 OFFCURVE",
"961 386 QCURVE SMOOTH",
"926 188 OFFCURVE",
"622 -30 OFFCURVE",
"428 -30 QCURVE SMOOTH",
"234 -30 OFFCURVE",
"6 188 OFFCURVE",
"41 386 QCURVE SMOOTH"
);
},
{
closed = 1;
nodes = (
"204 276 OFFCURVE",
"330 128 OFFCURVE",
"456 128 QCURVE SMOOTH",
"582 128 OFFCURVE",
"759 276 OFFCURVE",
"780 396 QCURVE SMOOTH",
"801 516 OFFCURVE",
"677 666 OFFCURVE",
"551 666 QCURVE SMOOTH",
"425 666 OFFCURVE",
"246 516 OFFCURVE",
"225 396 QCURVE SMOOTH"
);
},
{
closed = 1;
nodes = (
"366 967 OFFCURVE",
"472 824 OFFCURVE",
"579 824 QCURVE SMOOTH",
"686 824 OFFCURVE",
"840 967 OFFCURVE",
"859 1077 QCURVE SMOOTH",
"879 1187 OFFCURVE",
"774 1328 OFFCURVE",
"668 1328 QCURVE SMOOTH",
"561 1328 OFFCURVE",
"405 1187 OFFCURVE",
"386 1077 QCURVE SMOOTH"
);
}
);
width = 1122;
}
);
unicode = 0038;
},
{
glyphname = nine;
layers = (
{
layerId = "1E68CFC6-8A63-43E3-914A-DAEC22AC2E91";
paths = (
{
closed = 1;
nodes = (
"157 1218 OFFCURVE",
"470 1486 OFFCURVE",
"673 1486 QCURVE SMOOTH",
"877 1486 OFFCURVE",
"1116 1182 OFFCURVE",
"1056 842 QCURVE SMOOTH",
"1051 812 LINE SMOOTH",
"984 432 OFFCURVE",
"503 -30 OFFCURVE",
"134 -30 QCURVE SMOOTH",
"115 -30 LINE",
"143 128 LINE",
"162 128 LINE SMOOTH",
"434 128 OFFCURVE",
"805 452 OFFCURVE",
"867 802 QCURVE SMOOTH",
"876 852 LINE SMOOTH",
"922 1112 OFFCURVE",
"781 1328 OFFCURVE",
"645 1328 QCURVE SMOOTH",
"510 1328 OFFCURVE",
"330 1157 OFFCURVE",
"303 1002 QCURVE SMOOTH",
"275 847 OFFCURVE",
"395 678 OFFCURVE",
"531 678 QCURVE SMOOTH",
"657 678 OFFCURVE",
"881 847 OFFCURVE",
"908 1002 QCURVE",
"976 1002 LINE",
"938 786 OFFCURVE",
"658 520 OFFCURVE",
"464 520 QCURVE SMOOTH",
"271 520 OFFCURVE",
"80 786 OFFCURVE",
"119 1002 QCURVE SMOOTH"
);
}
);
width = 1121;
}
);
unicode = 0039;
},
{
glyphname = colon;
layers = (
{
layerId = "1E68CFC6-8A63-43E3-914A-DAEC22AC2E91";
paths = (
{
closed = 1;
nodes = (
"62 147 OFFCURVE",
"129 216 OFFCURVE",
"187 216 QCURVE SMOOTH",
"245 215 OFFCURVE",
"303 145 OFFCURVE",
"300 96 QCURVE SMOOTH",
"298 47 OFFCURVE",
"231 -22 OFFCURVE",
"173 -22 QCURVE SMOOTH",
"115 -21 OFFCURVE",
"57 49 OFFCURVE",
"60 98 QCURVE SMOOTH"
);
},
{
closed = 1;
nodes = (
"213 999 OFFCURVE",
"279 1068 OFFCURVE",
"337 1068 QCURVE SMOOTH",
"396 1067 OFFCURVE",
"453 997 OFFCURVE",
"451 948 QCURVE SMOOTH",
"448 899 OFFCURVE",
"382 830 OFFCURVE",
"323 830 QCURVE SMOOTH",
"265 831 OFFCURVE",
"207 901 OFFCURVE",
"210 950 QCURVE SMOOTH"
);
}
);
width = 582;
}
);
leftKerningGroup = colon;
rightKerningGroup = colon;
unicode = 003A;
},
{
glyphname = semicolon;
layers = (
{
layerId = "1E68CFC6-8A63-43E3-914A-DAEC22AC2E91";
paths = (
{
closed = 1;
nodes = (
"8 -154 OFFCURVE",
"82 -20 OFFCURVE",
"98 70 QCURVE SMOOTH",
"124 220 LINE",
"299 220 LINE",
"272 70 LINE SMOOTH",
"253 -40 OFFCURVE",
"127 -224 OFFCURVE",
"39 -291 QCURVE",
"-50 -218 LINE"
);
},
{
closed = 1;
nodes = (
"213 999 OFFCURVE",
"279 1068 OFFCURVE",
"337 1068 QCURVE SMOOTH",
"396 1067 OFFCURVE",
"453 997 OFFCURVE",
"451 948 QCURVE SMOOTH",
"448 899 OFFCURVE",
"382 830 OFFCURVE",
"323 830 QCURVE SMOOTH",
"265 831 OFFCURVE",
"207 901 OFFCURVE",
"210 950 QCURVE SMOOTH"
);
}
);
width = 582;
}
);
leftKerningGroup = colon;
rightKerningGroup = colon;
unicode = 003B;
},
{
glyphname = less;
layers = (
{
layerId = "1E68CFC6-8A63-43E3-914A-DAEC22AC2E91";
paths = (
{
closed = 1;
nodes = (
"75 600 LINE",
"100 744 LINE",
"960 1123 LINE",
"925 920 LINE",
"305 667 LINE",
"836 414 LINE",
"801 221 LINE"
);
}
);
width = 993;
}
);
unicode = 003C;
},
{
glyphname = equal;
layers = (
{
layerId = "1E68CFC6-8A63-43E3-914A-DAEC22AC2E91";
paths = (
{
closed = 1;
nodes = (
"24 550 LINE",
"907 550 LINE",
"877 381 LINE",
"-6 381 LINE"
);
},
{
closed = 1;
nodes = (
"94 945 LINE",
"977 945 LINE",
"947 776 LINE",
"64 776 LINE"
);
}
);
width = 993;
}
);
unicode = 003D;
},
{
glyphname = greater;
layers = (
{
layerId = "1E68CFC6-8A63-43E3-914A-DAEC22AC2E91";
paths = (
{
closed = 1;
nodes = (
"50 425 LINE",
"671 678 LINE",
"139 931 LINE",
"173 1123 LINE",
"899 744 LINE",
"874 600 LINE",
"14 221 LINE"
);
}
);
width = 994;
}
);
unicode = 003E;
},
{
glyphname = question;
layers = (
{
layerId = "1E68CFC6-8A63-43E3-914A-DAEC22AC2E91";
paths = (
{
closed = 1;
nodes = (
"202 147 OFFCURVE",
"269 216 OFFCURVE",
"327 216 QCURVE SMOOTH",
"385 215 OFFCURVE",
"443 145 OFFCURVE",
"440 96 QCURVE SMOOTH",
"437 47 OFFCURVE",
"371 -22 OFFCURVE",
"313 -22 QCURVE SMOOTH",
"255 -21 OFFCURVE",
"197 49 OFFCURVE",
"200 98 QCURVE SMOOTH"
);
},
{
closed = 1;
nodes = (
"127 1115 LINE SMOOTH",
"156 1280 OFFCURVE",
"404 1476 OFFCURVE",
"588 1476 QCURVE SMOOTH",
"772 1476 OFFCURVE",
"944 1270 OFFCURVE",
"914 1100 QCURVE SMOOTH",
"890 966 OFFCURVE",
"710 758 OFFCURVE",
"629 694 QCURVE SMOOTH",
"533 617 OFFCURVE",
"471 490 OFFCURVE",
"458 420 QCURVE SMOOTH",
"456 410 LINE",
"276 410 LINE",
"278 420 LINE SMOOTH",
"300 545 OFFCURVE",
"387 689 OFFCURVE",
"497 783 QCURVE SMOOTH",
"591 864 OFFCURVE",
"716 1000 OFFCURVE",
"733 1100 QCURVE SMOOTH",
"751 1200 OFFCURVE",
"666 1314 OFFCURVE",
"560 1314 QCURVE SMOOTH",
"453 1314 OFFCURVE",
"323 1210 OFFCURVE",
"306 1115 QCURVE SMOOTH",
"303 1095 LINE",
"123 1095 LINE"
);
}
);
width = 939;
}
);
unicode = 003F;
},
{
glyphname = at;
layers = (
{
layerId = "1E68CFC6-8A63-43E3-914A-DAEC22AC2E91";
paths = (
{
closed = 1;
nodes = (
"588 680 OFFCURVE",
"940 1052 OFFCURVE",
"1124 1052 QCURVE SMOOTH",
"1212 1052 OFFCURVE",
"1345 985 OFFCURVE",
"1387 946 QCURVE",
"1474 946 LINE",
"1253 350 LINE SMOOTH",
"1208 230 OFFCURVE",
"1273 136 OFFCURVE",
"1351 136 QCURVE SMOOTH",
"1487 136 OFFCURVE",
"1708 420 OFFCURVE",
"1748 650 QCURVE SMOOTH",
"1796 920 OFFCURVE",
"1503 1330 OFFCURVE",
"1174 1330 QCURVE SMOOTH",
"844 1330 OFFCURVE",
"308 820 OFFCURVE",
"244 460 QCURVE SMOOTH",
"181 100 OFFCURVE",
"500 -290 OFFCURVE",
"791 -290 QCURVE SMOOTH",
"927 -290 OFFCURVE",
"1124 -236 OFFCURVE",
"1195 -200 QCURVE",
"1167 -356 LINE",
"1092 -400 OFFCURVE",
"899 -446 OFFCURVE",
"763 -446 QCURVE SMOOTH",
"414 -446 OFFCURVE",
"-10 40 OFFCURVE",
"64 460 QCURVE SMOOTH",
"138 880 OFFCURVE",
"813 1486 OFFCURVE",
"1201 1486 QCURVE SMOOTH",
"1589 1486 OFFCURVE",
"1984 1000 OFFCURVE",
"1923 650 QCURVE SMOOTH",
"1872 360 OFFCURVE",
"1540 0 OFFCURVE",
"1346 0 QCURVE SMOOTH",
"1234 0 OFFCURVE",
"1083 100 OFFCURVE",
"1058 180 QCURVE",
"995 100 OFFCURVE",
"842 0 OFFCURVE",
"764 0 QCURVE SMOOTH",
"629 0 OFFCURVE",
"507 220 OFFCURVE",
"539 400 QCURVE SMOOTH"
);
},
{
closed = 1;
nodes = (
"702 280 OFFCURVE",
"763 156 OFFCURVE",
"840 156 QCURVE SMOOTH",
"908 156 OFFCURVE",
"1036 260 OFFCURVE",
"1085 390 QCURVE SMOOTH",
"1267 870 LINE",
"1241 890 OFFCURVE",
"1168 912 OFFCURVE",
"1129 912 QCURVE SMOOTH",
"992 912 OFFCURVE",
"762 620 OFFCURVE",
"723 400 QCURVE SMOOTH"
);
}
);
width = 2047;
}
);
unicode = 0040;
},
{
glyphname = A;
layers = (
{
layerId = "1E68CFC6-8A63-43E3-914A-DAEC22AC2E91";
paths = (
{
closed = 1;
nodes = (
"668 1466 LINE",
"835 1466 LINE",
"1114 0 LINE",
"929 0 LINE",
"735 1100 LINE SMOOTH",
"729 1133 OFFCURVE",
"722 1195 OFFCURVE",
"721 1228 QCURVE",
"712 1228 LINE",
"699 1195 OFFCURVE",
"671 1133 OFFCURVE",
"653 1100 QCURVE SMOOTH",
"67 0 LINE",
"-128 0 LINE"
);
},
{
closed = 1;
nodes = (
"264 538 LINE",
"927 538 LINE",
"956 380 LINE",
"179 380 LINE"
);
}
);
width = 1242;
}
);
leftKerningGroup = A_UC;
rightKerningGroup = A_UC;
unicode = 0041;
},
{
glyphname = B;
layers = (
{
layerId = "1E68CFC6-8A63-43E3-914A-DAEC22AC2E91";
paths = (
{
closed = 1;
nodes = (
"294 1456 LINE",
"759 1456 LINE SMOOTH",
"973 1456 OFFCURVE",
"1184 1270 OFFCURVE",
"1149 1070 QCURVE SMOOTH",
"1128 950 OFFCURVE",
"983 800 OFFCURVE",
"890 768 QCURVE",
"889 764 LINE",
"990 732 OFFCURVE",
"1096 560 OFFCURVE",
"1071 420 QCURVE SMOOTH",
"1036 220 OFFCURVE",
"742 0 OFFCURVE",
"532 0 QCURVE SMOOTH",
"37 0 LINE"
);
},
{
closed = 1;
nodes = (
"559 158 LINE SMOOTH",
"705 158 OFFCURVE",
"866 300 OFFCURVE",
"887 420 QCURVE SMOOTH",
"908 540 OFFCURVE",
"797 680 OFFCURVE",
"652 680 QCURVE SMOOTH",
"339 680 LINE",
"247 158 LINE"
);
},
{
closed = 1;
nodes = (
"650 836 LINE SMOOTH",
"795 836 OFFCURVE",
"945 960 OFFCURVE",
"965 1070 QCURVE SMOOTH",
"984 1180 OFFCURVE",
"877 1298 OFFCURVE",
"731 1298 QCURVE SMOOTH",
"448 1298 LINE",
"367 836 LINE"
);
}
);
width = 1222;
}
);
leftKerningGroup = StraightRight_UC;
unicode = 0042;
},
{
glyphname = C;
layers = (
{
layerId = "1E68CFC6-8A63-43E3-914A-DAEC22AC2E91";
paths = (
{
closed = 1;
nodes = (
"120 774 LINE SMOOTH",
"179 1110 OFFCURVE",
"580 1486 OFFCURVE",
"832 1486 QCURVE SMOOTH",
"1085 1486 OFFCURVE",
"1321 1201 OFFCURVE",
"1285 1000 QCURVE SMOOTH",
"1283 990 LINE",
"1097 990 LINE",
"1099 1000 LINE SMOOTH",
"1123 1139 OFFCURVE",
"981 1322 OFFCURVE",
"804 1322 QCURVE SMOOTH",
"630 1322 OFFCURVE",
"357 1052 OFFCURVE",
"308 774 QCURVE SMOOTH",
"292 682 LINE SMOOTH",
"247 426 OFFCURVE",
"419 134 OFFCURVE",
"594 134 QCURVE SMOOTH",
"761 134 OFFCURVE",
"964 320 OFFCURVE",
"1002 456 QCURVE SMOOTH",
"1005 466 LINE",
"1191 466 LINE",
"1188 456 LINE SMOOTH",
"1134 256 OFFCURVE",
"817 -30 OFFCURVE",
"565 -30 QCURVE SMOOTH",
"313 -30 OFFCURVE",
"45 346 OFFCURVE",
"104 682 QCURVE SMOOTH"
);
}
);
width = 1318;
}
);
leftKerningGroup = CG_UC;
rightKerningGroup = C_UC;
unicode = 0043;
},
{
glyphname = D;
layers = (
{
layerId = "1E68CFC6-8A63-43E3-914A-DAEC22AC2E91";
paths = (
{
closed = 1;
nodes = (
"294 1456 LINE",
"713 1456 LINE SMOOTH",
"984 1456 OFFCURVE",
"1281 1086 OFFCURVE",
"1226 774 QCURVE SMOOTH",
"1210 682 LINE SMOOTH",
"1155 370 OFFCURVE",
"728 0 OFFCURVE",
"456 0 QCURVE SMOOTH",
"37 0 LINE"
);
},
{
closed = 1;
nodes = (
"484 158 LINE SMOOTH",
"687 158 OFFCURVE",
"978 436 OFFCURVE",
"1021 682 QCURVE SMOOTH",
"1038 774 LINE SMOOTH",
"1081 1020 OFFCURVE",
"889 1298 OFFCURVE",
"685 1298 QCURVE SMOOTH",
"452 1298 LINE",
"251 158 LINE"
);
}
);
width = 1329;
}
);
leftKerningGroup = StraightRight_UC;
rightKerningGroup = D_UC;
unicode = 0044;
},
{
glyphname = E;
layers = (
{
layerId = "1E68CFC6-8A63-43E3-914A-DAEC22AC2E91";
paths = (
{
closed = 1;
nodes = (
"294 1456 LINE",
"1180 1456 LINE",
"1152 1298 LINE",
"452 1298 LINE",
"369 830 LINE",
"981 830 LINE",
"953 672 LINE",
"342 672 LINE",
"251 158 LINE",
"961 158 LINE",
"933 0 LINE",
"37 0 LINE"
);
}
);
width = 1127;
}
);
leftKerningGroup = StraightRight_UC;
rightKerningGroup = E_UC;
unicode = 0045;
},
{
glyphname = F;
layers = (
{
layerId = "1E68CFC6-8A63-43E3-914A-DAEC22AC2E91";
paths = (
{
closed = 1;
nodes = (
"294 1456 LINE",
"1169 1456 LINE",
"1141 1298 LINE",
"452 1298 LINE",
"364 801 LINE",
"957 801 LINE",
"929 643 LINE",
"337 643 LINE",
"223 0 LINE",
"37 0 LINE"
);
}
);
width = 1096;
}
);
leftKerningGroup = StraightRight_UC;
unicode = 0046;
},
{
glyphname = G;
layers = (
{
layerId = "1E68CFC6-8A63-43E3-914A-DAEC22AC2E91";
paths = (
{
closed = 1;
nodes = (
"120 774 LINE SMOOTH",
"179 1110 OFFCURVE",
"580 1486 OFFCURVE",
"845 1486 QCURVE SMOOTH",
"1085 1486 OFFCURVE",
"1310 1221 OFFCURVE",
"1294 1041 QCURVE SMOOTH",
"1293 1030 LINE",
"1107 1030 LINE",
"1109 1040 LINE SMOOTH",
"1126 1140 OFFCURVE",
"978 1322 OFFCURVE",
"814 1322 QCURVE SMOOTH",
"629 1322 OFFCURVE",
"353 1030 OFFCURVE",
"308 774 QCURVE SMOOTH",
"292 682 LINE SMOOTH",
"247 426 OFFCURVE",
"419 134 OFFCURVE",
"623 134 QCURVE SMOOTH",
"730 134 OFFCURVE",
"893 180 OFFCURVE",
"972 230 QCURVE",
"1032 570 LINE",
"681 570 LINE",
"708 728 LINE",
"1240 728 LINE",
"1140 160 LINE",
"1062 90 OFFCURVE",
"779 -30 OFFCURVE",
"594 -30 QCURVE SMOOTH",
"313 -30 OFFCURVE",
"45 346 OFFCURVE",
"104 682 QCURVE SMOOTH"
);
}
);
width = 1365;
}
);
leftKerningGroup = CG_UC;
rightKerningGroup = G_UC;
unicode = 0047;
},
{
glyphname = H;
layers = (
{
layerId = "1E68CFC6-8A63-43E3-914A-DAEC22AC2E91";
paths = (
{
closed = 1;
nodes = (
"294 1456 LINE",
"480 1456 LINE",
"369 830 LINE",
"1081 830 LINE",
"1192 1456 LINE",
"1378 1456 LINE",
"1121 0 LINE",
"935 0 LINE",
"1054 672 LINE",
"342 672 LINE",
"223 0 LINE",
"37 0 LINE"
);
}
);
width = 1414;
}
);
leftKerningGroup = StraightRight_UC;
rightKerningGroup = LeftStraight_UC;
unicode = 0048;
},
{
glyphname = I;
layers = (
{
layerId = "1E68CFC6-8A63-43E3-914A-DAEC22AC2E91";
paths = (
{
closed = 1;
nodes = (
"298 1456 LINE",
"485 1456 LINE",
"228 0 LINE",
"42 0 LINE"
);
}
);
width = 526;
}
);
leftKerningGroup = StraightRight_UC;
rightKerningGroup = LeftStraight_UC;
unicode = 0049;
},
{
glyphname = J;
layers = (
{
layerId = "1E68CFC6-8A63-43E3-914A-DAEC22AC2E91";
paths = (
{
closed = 1;
nodes = (
"-31 410 LINE",
"155 410 LINE",
"153 400 LINE SMOOTH",
"130 270 OFFCURVE",
"245 134 OFFCURVE",
"366 134 QCURVE SMOOTH",
"487 134 OFFCURVE",
"653 285 OFFCURVE",
"677 425 QCURVE SMOOTH",
"859 1456 LINE",
"1045 1456 LINE",
"864 425 LINE SMOOTH",
"827 215 OFFCURVE",
"536 -30 OFFCURVE",
"337 -30 QCURVE SMOOTH",
"138 -30 OFFCURVE",
"-68 200 OFFCURVE",
"-33 400 QCURVE SMOOTH"
);
}
);
width = 1067;
}
);
leftKerningGroup = J_UC;
rightKerningGroup = JU_UC;
unicode = 004A;
},
{
glyphname = K;
layers = (
{
layerId = "1E68CFC6-8A63-43E3-914A-DAEC22AC2E91";
paths = (
{
closed = 1;
nodes = (
"294 1456 LINE",
"480 1456 LINE",
"354 740 LINE",
"1108 1456 LINE",
"1333 1456 LINE",
"311 500 LINE",
"223 0 LINE",
"37 0 LINE"
);
},
{
closed = 1;
nodes = (
"477 756 LINE",
"621 890 LINE",
"1119 0 LINE",
"891 0 LINE"
);
}
);
width = 1228;
}
);
leftKerningGroup = StraightRight_UC;
rightKerningGroup = K_UC;
unicode = 004B;
},
{
glyphname = L;
layers = (
{
layerId = "1E68CFC6-8A63-43E3-914A-DAEC22AC2E91";
paths = (
{
closed = 1;
nodes = (
"294 1456 LINE",
"480 1456 LINE",
"251 158 LINE",
"920 158 LINE",
"892 0 LINE",
"37 0 LINE"
);
}
);
width = 1073;
}
);
leftKerningGroup = StraightRight_UC;
rightKerningGroup = L_UC;
unicode = 004C;
},
{
glyphname = M;
layers = (
{
layerId = "1E68CFC6-8A63-43E3-914A-DAEC22AC2E91";
paths = (
{
closed = 1;
nodes = (
"294 1456 LINE",
"534 1456 LINE",
"760 361 LINE SMOOTH",
"767 331 OFFCURVE",
"775 266 OFFCURVE",
"778 236 QCURVE",
"786 236 LINE",
"799 266 OFFCURVE",
"831 331 OFFCURVE",
"847 361 QCURVE SMOOTH",
"1460 1456 LINE",
"1700 1456 LINE",
"1443 0 LINE",
"1263 0 LINE",
"1448 1050 LINE SMOOTH",
"1453 1080 OFFCURVE",
"1469 1155 OFFCURVE",
"1478 1185 QCURVE",
"1470 1185 LINE",
"1459 1155 OFFCURVE",
"1422 1080 OFFCURVE",
"1405 1050 QCURVE SMOOTH",
"819 0 LINE",
"658 0 LINE",
"441 1050 LINE SMOOTH",
"435 1080 OFFCURVE",
"425 1155 OFFCURVE",
"424 1185 QCURVE",
"417 1185 LINE",
"415 1155 OFFCURVE",
"404 1080 OFFCURVE",
"399 1050 QCURVE SMOOTH",
"213 0 LINE",
"37 0 LINE"
);
}
);
width = 1736;
}
);
leftKerningGroup = StraightRight_UC;
rightKerningGroup = LeftStraight_UC;
unicode = 004D;
},
{
glyphname = N;
layers = (
{
layerId = "1E68CFC6-8A63-43E3-914A-DAEC22AC2E91";
paths = (
{
closed = 1;
nodes = (
"294 1456 LINE",
"488 1456 LINE",
"947 436 LINE SMOOTH",
"961 406 OFFCURVE",
"984 346 OFFCURVE",
"992 321 QCURVE",
"999 321 LINE",
"1004 351 OFFCURVE",
"1016 426 OFFCURVE",
"1021 456 QCURVE SMOOTH",
"1198 1456 LINE",
"1380 1456 LINE",
"1123 0 LINE",
"929 0 LINE",
"470 1020 LINE SMOOTH",
"456 1050 OFFCURVE",
"433 1110 OFFCURVE",
"424 1135 QCURVE",
"417 1135 LINE",
"413 1105 OFFCURVE",
"401 1030 OFFCURVE",
"396 1000 QCURVE SMOOTH",
"219 0 LINE",
"37 0 LINE"
);
}
);
width = 1416;
}
);
leftKerningGroup = StraightRight_UC;
rightKerningGroup = LeftStraight_UC;
unicode = 004E;
},
{
glyphname = O;
layers = (
{
layerId = "1E68CFC6-8A63-43E3-914A-DAEC22AC2E91";
paths = (
{
closed = 1;
nodes = (
"120 774 LINE SMOOTH",
"179 1110 OFFCURVE",
"580 1486 OFFCURVE",
"842 1486 QCURVE SMOOTH",
"1104 1486 OFFCURVE",
"1372 1110 OFFCURVE",
"1313 774 QCURVE SMOOTH",
"1297 682 LINE SMOOTH",
"1238 346 OFFCURVE",
"837 -30 OFFCURVE",
"575 -30 QCURVE SMOOTH",
"313 -30 OFFCURVE",
"45 346 OFFCURVE",
"104 682 QCURVE SMOOTH"
);
},
{
closed = 1;
nodes = (
"247 426 OFFCURVE",
"419 134 OFFCURVE",
"604 134 QCURVE SMOOTH",
"788 134 OFFCURVE",
"1064 426 OFFCURVE",
"1109 682 QCURVE SMOOTH",
"1125 774 LINE SMOOTH",
"1170 1030 OFFCURVE",
"998 1322 OFFCURVE",
"813 1322 QCURVE SMOOTH",
"629 1322 OFFCURVE",
"353 1030 OFFCURVE",
"308 774 QCURVE SMOOTH",
"292 682 LINE SMOOTH"
);
}
);
width = 1416;
}
);
leftKerningGroup = CG_UC;
rightKerningGroup = D_UC;
unicode = 004F;
},
{
glyphname = P;
layers = (
{
layerId = "1E68CFC6-8A63-43E3-914A-DAEC22AC2E91";
paths = (
{
closed = 1;
nodes = (
"294 1456 LINE",
"761 1456 LINE SMOOTH",
"994 1456 OFFCURVE",
"1202 1215 OFFCURVE",
"1166 1015 QCURVE SMOOTH",
"1131 815 OFFCURVE",
"838 570 OFFCURVE",
"605 570 QCURVE SMOOTH",
"324 570 LINE",
"223 0 LINE",
"37 0 LINE"
);
},
{
closed = 1;
nodes = (
"633 728 LINE SMOOTH",
"798 728 OFFCURVE",
"959 895 OFFCURVE",
"980 1015 QCURVE SMOOTH",
"1001 1135 OFFCURVE",
"898 1298 OFFCURVE",
"733 1298 QCURVE SMOOTH",
"452 1298 LINE",
"352 728 LINE"
);
}
);
width = 1164;
}
);
leftKerningGroup = StraightRight_UC;
unicode = 0050;
},
{
glyphname = Q;
layers = (
{
layerId = "1E68CFC6-8A63-43E3-914A-DAEC22AC2E91";
paths = (
{
closed = 1;
nodes = (
"120 774 LINE SMOOTH",
"179 1110 OFFCURVE",
"580 1486 OFFCURVE",
"842 1486 QCURVE SMOOTH",
"1104 1486 OFFCURVE",
"1372 1110 OFFCURVE",
"1313 774 QCURVE SMOOTH",
"1297 682 LINE SMOOTH",
"1238 346 OFFCURVE",
"837 -30 OFFCURVE",
"575 -30 QCURVE SMOOTH",
"313 -30 OFFCURVE",
"45 346 OFFCURVE",
"104 682 QCURVE SMOOTH"
);
},
{
closed = 1;
nodes = (
"247 426 OFFCURVE",
"419 134 OFFCURVE",
"604 134 QCURVE SMOOTH",
"788 134 OFFCURVE",
"1064 426 OFFCURVE",
"1109 682 QCURVE SMOOTH",
"1125 774 LINE SMOOTH",
"1170 1030 OFFCURVE",
"998 1322 OFFCURVE",
"813 1322 QCURVE SMOOTH",
"629 1322 OFFCURVE",
"353 1030 OFFCURVE",
"308 774 QCURVE SMOOTH",
"292 682 LINE SMOOTH"
);
},
{
closed = 1;
nodes = (
"702 30 LINE",
"845 155 LINE",
"1141 -120 LINE",
"992 -250 LINE"
);
}
);
width = 1417;
}
);
leftKerningGroup = CG_UC;
unicode = 0051;
},
{
glyphname = R;
layers = (
{
layerId = "1E68CFC6-8A63-43E3-914A-DAEC22AC2E91";
paths = (
{
closed = 1;
nodes = (
"294 1456 LINE",
"753 1456 LINE SMOOTH",
"980 1456 OFFCURVE",
"1186 1222 OFFCURVE",
"1151 1028 QCURVE SMOOTH",
"1117 834 OFFCURVE",
"828 594 OFFCURVE",
"601 594 QCURVE SMOOTH",
"328 594 LINE",
"223 0 LINE",
"37 0 LINE"
);
},
{
closed = 1;
nodes = (
"629 750 LINE SMOOTH",
"790 750 OFFCURVE",
"945 912 OFFCURVE",
"965 1028 QCURVE SMOOTH",
"986 1144 OFFCURVE",
"887 1300 OFFCURVE",
"726 1300 QCURVE SMOOTH",
"452 1300 LINE",
"355 750 LINE"
);
},
{
closed = 1;
nodes = (
"611 672 LINE",
"811 672 LINE",
"1046 0 LINE",
"838 0 LINE"
);
}
);
width = 1212;
}
);
leftKerningGroup = StraightRight_UC;
rightKerningGroup = R_UC;
unicode = 0052;
},
{
glyphname = S;
layers = (
{
layerId = "1E68CFC6-8A63-43E3-914A-DAEC22AC2E91";
paths = (
{
closed = 1;
nodes = (
"32 410 LINE",
"218 410 LINE",
"216 398 LINE SMOOTH",
"192 266 OFFCURVE",
"342 134 OFFCURVE",
"497 134 QCURVE SMOOTH",
"652 134 OFFCURVE",
"841 270 OFFCURVE",
"861 380 QCURVE SMOOTH",
"878 480 OFFCURVE",
"739 600 OFFCURVE",
"529 666 QCURVE SMOOTH",
"310 735 OFFCURVE",
"151 920 OFFCURVE",
"181 1090 QCURVE SMOOTH",
"211 1260 OFFCURVE",
"503 1486 OFFCURVE",
"726 1486 QCURVE SMOOTH",
"949 1486 OFFCURVE",
"1171 1248 OFFCURVE",
"1138 1064 QCURVE SMOOTH",
"1136 1052 LINE",
"950 1052 LINE",
"952 1064 LINE SMOOTH",
"972 1180 OFFCURVE",
"846 1322 OFFCURVE",
"697 1322 QCURVE SMOOTH",
"547 1322 OFFCURVE",
"384 1200 OFFCURVE",
"366 1095 QCURVE SMOOTH",
"349 1000 OFFCURVE",
"475 890 OFFCURVE",
"690 824 QCURVE SMOOTH",
"906 758 OFFCURVE",
"1077 560 OFFCURVE",
"1045 380 QCURVE SMOOTH",
"1013 200 OFFCURVE",
"701 -30 OFFCURVE",
"468 -30 QCURVE SMOOTH",
"235 -30 OFFCURVE",
"-5 200 OFFCURVE",
"29 398 QCURVE SMOOTH"
);
}
);
width = 1184;
}
);
leftKerningGroup = S_UC;
rightKerningGroup = S_UC;
unicode = 0053;
},
{
glyphname = T;
layers = (
{
layerId = "1E68CFC6-8A63-43E3-914A-DAEC22AC2E91";
paths = (
{
closed = 1;
nodes = (
"152 1456 LINE",
"1246 1456 LINE",
"1218 1298 LINE",
"764 1298 LINE",
"535 0 LINE",
"349 0 LINE",
"578 1298 LINE",
"124 1298 LINE"
);
}
);
width = 1140;
}
);
leftKerningGroup = T_UC;
rightKerningGroup = T_UC;
unicode = 0054;
},
{
glyphname = U;
layers = (
{
layerId = "1E68CFC6-8A63-43E3-914A-DAEC22AC2E91";
paths = (
{
closed = 1;
nodes = (
"279 1456 LINE",
"465 1456 LINE",
"291 470 LINE SMOOTH",
"261 300 OFFCURVE",
"412 134 OFFCURVE",
"557 134 QCURVE SMOOTH",
"703 134 OFFCURVE",
"911 300 OFFCURVE",
"941 470 QCURVE SMOOTH",
"1115 1456 LINE",
"1301 1456 LINE",
"1128 470 LINE SMOOTH",
"1084 220 OFFCURVE",
"742 -30 OFFCURVE",
"528 -30 QCURVE SMOOTH",
"315 -30 OFFCURVE",
"61 220 OFFCURVE",
"105 470 QCURVE SMOOTH"
);
}
);
width = 1323;
}
);
leftKerningGroup = U_UC;
rightKerningGroup = JU_UC;
unicode = 0055;
},
{
glyphname = V;
layers = (
{
layerId = "1E68CFC6-8A63-43E3-914A-DAEC22AC2E91";
paths = (
{
closed = 1;
nodes = (
"327 1456 LINE",
"511 378 LINE SMOOTH",
"517 345 OFFCURVE",
"523 294 OFFCURVE",
"527 264 QCURVE",
"535 264 LINE",
"549 294 OFFCURVE",
"575 345 OFFCURVE",
"592 378 QCURVE SMOOTH",
"1161 1456 LINE",
"1351 1456 LINE",
"565 -10 LINE",
"398 -10 LINE",
"129 1456 LINE"
);
}
);
width = 1222;
}
);
unicode = 0056;
},
{
glyphname = W;
layers = (
{
layerId = "1E68CFC6-8A63-43E3-914A-DAEC22AC2E91";
paths = (
{
closed = 1;
nodes = (
"177 1456 LINE",
"363 1456 LINE",
"414 378 LINE SMOOTH",
"416 344 OFFCURVE",
"415 303 OFFCURVE",
"413 270 QCURVE",
"423 270 LINE",
"433 303 OFFCURVE",
"447 344 OFFCURVE",
"461 378 QCURVE SMOOTH",
"914 1456 LINE",
"1103 1456 LINE",
"1185 378 LINE SMOOTH",
"1188 344 OFFCURVE",
"1187 303 OFFCURVE",
"1185 270 QCURVE",
"1194 270 LINE",
"1204 303 OFFCURVE",
"1219 344 OFFCURVE",
"1233 378 QCURVE SMOOTH",
"1654 1456 LINE",
"1838 1456 LINE",
"1232 -10 LINE",
"1052 -10 LINE",
"970 1070 LINE SMOOTH",
"967 1104 OFFCURVE",
"965 1165 OFFCURVE",
"966 1198 QCURVE",
"958 1198 LINE",
"948 1165 OFFCURVE",
"924 1104 OFFCURVE",
"909 1070 QCURVE SMOOTH",
"446 -10 LINE",
"266 -10 LINE"
);
}
);
width = 1758;
}
);
leftKerningGroup = W_UC;
rightKerningGroup = W_UC;
unicode = 0057;
},
{
glyphname = X;
layers = (
{
layerId = "1E68CFC6-8A63-43E3-914A-DAEC22AC2E91";
paths = (
{
closed = 1;
nodes = (
"547 806 LINE",
"560 806 LINE",
"1060 1456 LINE",
"1266 1456 LINE",
"643 670 LINE",
"629 670 LINE",
"102 0 LINE",
"-104 0 LINE"
);
},
{
closed = 1;
nodes = (
"387 1456 LINE",
"657 806 LINE",
"667 806 LINE",
"1033 0 LINE",
"824 0 LINE",
"532 670 LINE",
"523 670 LINE",
"177 1456 LINE"
);
}
);
width = 1186;
}
);
unicode = 0058;
},
{
glyphname = Y;
layers = (
{
layerId = "1E68CFC6-8A63-43E3-914A-DAEC22AC2E91";
paths = (
{
closed = 1;
nodes = (
"470 544 LINE",
"143 1456 LINE",
"353 1456 LINE",
"562 840 LINE SMOOTH",
"573 810 OFFCURVE",
"590 760 OFFCURVE",
"596 733 QCURVE",
"602 733 LINE",
"617 760 OFFCURVE",
"652 810 OFFCURVE",
"673 840 QCURVE SMOOTH",
"1104 1456 LINE",
"1305 1456 LINE",
"657 544 LINE",
"561 0 LINE",
"374 0 LINE"
);
}
);
width = 1192;
}
);
leftKerningGroup = Y_UC;
rightKerningGroup = Y_UC;
unicode = 0059;
},
{
glyphname = Z;
layers = (
{
layerId = "1E68CFC6-8A63-43E3-914A-DAEC22AC2E91";
paths = (
{
closed = 1;
nodes = (
"-40 140 LINE",
"938 1298 LINE",
"176 1298 LINE",
"203 1456 LINE",
"1188 1456 LINE",
"1163 1316 LINE",
"185 158 LINE",
"990 158 LINE",
"962 0 LINE",
"-65 0 LINE"
);
}
);
width = 1154;
}
);
leftKerningGroup = Z_UC;
rightKerningGroup = Z_UC;
unicode = 005A;
},
{
glyphname = bracketleft;
layers = (
{
layerId = "1E68CFC6-8A63-43E3-914A-DAEC22AC2E91";
paths = (
{
closed = 1;
nodes = (
"268 1456 LINE",
"730 1456 LINE",
"702 1296 LINE",
"420 1296 LINE",
"165 -150 LINE",
"447 -150 LINE",
"419 -310 LINE",
"-43 -310 LINE"
);
}
);
width = 679;
}
);
rightKerningGroup = parens;
unicode = 005B;
},
{
glyphname = backslash;
layers = (
{
layerId = "1E68CFC6-8A63-43E3-914A-DAEC22AC2E91";
paths = (
{
closed = 1;
nodes = (
"202 1456 LINE",
"513 -125 LINE",
"343 -125 LINE",
"32 1456 LINE"
);
}
);
width = 566;
}
);
unicode = 005C;
},
{
glyphname = bracketright;
layers = (
{
layerId = "1E68CFC6-8A63-43E3-914A-DAEC22AC2E91";
paths = (
{
closed = 1;
nodes = (
"-105 -310 LINE",
"-77 -150 LINE",
"205 -150 LINE",
"460 1296 LINE",
"178 1296 LINE",
"206 1456 LINE",
"668 1456 LINE",
"357 -310 LINE"
);
}
);
width = 679;
}
);
leftKerningGroup = parens;
unicode = 005D;
},
{
glyphname = asciicircum;
layers = (
{
layerId = "1E68CFC6-8A63-43E3-914A-DAEC22AC2E91";
paths = (
{
closed = 1;
nodes = (
"614 1456 LINE",
"779 1456 LINE",
"1110 720 LINE",
"916 720 LINE",
"667 1290 LINE",
"217 720 LINE",
"23 720 LINE"
);
}
);
width = 1135;
}
);
unicode = 005E;
},
{
glyphname = underscore;
layers = (
{
layerId = "1E68CFC6-8A63-43E3-914A-DAEC22AC2E91";
paths = (
{
closed = 1;
nodes = (
"-171 -244 LINE",
"822 -244 LINE",
"792 -416 LINE",
"-201 -416 LINE"
);
}
);
width = 993;
}
);
unicode = 005F;
},
{
glyphname = grave;
layers = (
{
layerId = "1E68CFC6-8A63-43E3-914A-DAEC22AC2E91";
paths = (
{
closed = 1;
nodes = (
"395 1491 LINE",
"551 1593 LINE",
"755 1282 LINE",
"645 1204 LINE"
);
}
);
width = 993;
}
);
unicode = 0060;
},
{
glyphname = a;
layers = (
{
layerId = "1E68CFC6-8A63-43E3-914A-DAEC22AC2E91";
paths = (
{
closed = 1;
nodes = (
"42 470 OFFCURVE",
"320 648 OFFCURVE",
"510 648 QCURVE SMOOTH",
"741 648 LINE",
"754 720 LINE SMOOTH",
"770 815 OFFCURVE",
"696 934 OFFCURVE",
"580 934 QCURVE SMOOTH",
"463 934 OFFCURVE",
"346 835 OFFCURVE",
"335 770 QCURVE SMOOTH",
"334 765 LINE",
"154 765 LINE",
"155 770 LINE SMOOTH",
"177 895 OFFCURVE",
"427 1082 OFFCURVE",
"611 1082 QCURVE SMOOTH",
"795 1082 OFFCURVE",
"966 900 OFFCURVE",
"934 720 QCURVE SMOOTH",
"849 240 LINE SMOOTH",
"838 175 OFFCURVE",
"837 60 OFFCURVE",
"847 16 QCURVE",
"844 0 LINE",
"669 0 LINE",
"660 25 OFFCURVE",
"652 105 OFFCURVE",
"656 145 QCURVE",
"609 80 OFFCURVE",
"431 -20 OFFCURVE",
"305 -20 QCURVE SMOOTH",
"159 -20 OFFCURVE",
"-14 150 OFFCURVE",
"14 310 QCURVE SMOOTH"
);
},
{
closed = 1;
nodes = (
"180 230 OFFCURVE",
"263 128 OFFCURVE",
"370 128 QCURVE SMOOTH",
"477 128 OFFCURVE",
"676 280 OFFCURVE",
"691 365 QCURVE",
"718 516 LINE",
"506 516 LINE SMOOTH",
"370 516 OFFCURVE",
"212 410 OFFCURVE",
"196 320 QCURVE SMOOTH"
);
}
);
width = 1073;
}
);
leftKerningGroup = a_LC;
rightKerningGroup = a_LC;
unicode = 0061;
},
{
glyphname = b;
layers = (
{
layerId = "1E68CFC6-8A63-43E3-914A-DAEC22AC2E91";
paths = (
{
closed = 1;
nodes = (
"286 1536 LINE",
"467 1536 LINE",
"360 928 LINE",
"416 993 OFFCURVE",
"580 1072 OFFCURVE",
"687 1072 QCURVE SMOOTH",
"881 1072 OFFCURVE",
"1061 772 OFFCURVE",
"1020 542 QCURVE SMOOTH",
"1014 510 LINE SMOOTH",
"974 280 OFFCURVE",
"688 -20 OFFCURVE",
"494 -20 QCURVE SMOOTH",
"387 -20 OFFCURVE",
"244 72 OFFCURVE",
"216 137 QCURVE",
"210 137 LINE",
"179 0 LINE",
"16 0 LINE"
);
},
{
closed = 1;
nodes = (
"269 242 OFFCURVE",
"385 132 OFFCURVE",
"482 132 QCURVE SMOOTH",
"628 132 OFFCURVE",
"802 350 OFFCURVE",
"830 510 QCURVE SMOOTH",
"836 542 LINE SMOOTH",
"864 702 OFFCURVE",
"767 920 OFFCURVE",
"621 920 QCURVE SMOOTH",
"524 920 OFFCURVE",
"369 810 OFFCURVE",
"326 740 QCURVE",
"251 312 LINE"
);
}
);
width = 1135;
}
);
leftKerningGroup = bhk_LC;
rightKerningGroup = b_LC;
unicode = 0062;
},
{
glyphname = c;
layers = (
{
layerId = "1E68CFC6-8A63-43E3-914A-DAEC22AC2E91";
paths = (
{
closed = 1;
nodes = (
"50 542 LINE SMOOTH",
"92 780 OFFCURVE",
"396 1082 OFFCURVE",
"617 1082 QCURVE SMOOTH",
"820 1082 OFFCURVE",
"992 855 OFFCURVE",
"967 715 QCURVE SMOOTH",
"966 710 LINE",
"792 710 LINE",
"793 715 LINE SMOOTH",
"807 800 OFFCURVE",
"716 930 OFFCURVE",
"590 930 QCURVE SMOOTH",
"442 930 OFFCURVE",
"263 705 OFFCURVE",
"234 542 QCURVE SMOOTH",
"229 510 LINE SMOOTH",
"200 347 OFFCURVE",
"300 122 OFFCURVE",
"447 122 QCURVE SMOOTH",
"573 122 OFFCURVE",
"711 252 OFFCURVE",
"726 337 QCURVE SMOOTH",
"727 342 LINE",
"901 342 LINE",
"900 337 LINE SMOOTH",
"876 197 OFFCURVE",
"624 -30 OFFCURVE",
"421 -30 QCURVE SMOOTH",
"200 -30 OFFCURVE",
"2 272 OFFCURVE",
"44 510 QCURVE SMOOTH"
);
}
);
width = 1036;
}
);
leftKerningGroup = alpha;
rightKerningGroup = c_LC;
unicode = 0063;
},
{
glyphname = d;
layers = (
{
layerId = "1E68CFC6-8A63-43E3-914A-DAEC22AC2E91";
paths = (
{
closed = 1;
nodes = (
"50 542 LINE SMOOTH",
"91 772 OFFCURVE",
"376 1072 OFFCURVE",
"570 1072 QCURVE SMOOTH",
"677 1072 OFFCURVE",
"813 993 OFFCURVE",
"847 928 QCURVE",
"954 1536 LINE",
"1134 1536 LINE",
"863 0 LINE",
"700 0 LINE",
"717 137 LINE",
"711 137 LINE",
"661 72 OFFCURVE",
"484 -20 OFFCURVE",
"378 -20 QCURVE SMOOTH",
"184 -20 OFFCURVE",
"4 280 OFFCURVE",
"44 510 QCURVE SMOOTH"
);
},
{
closed = 1;
nodes = (
"200 350 OFFCURVE",
"298 132 OFFCURVE",
"443 132 QCURVE SMOOTH",
"540 132 OFFCURVE",
"696 242 OFFCURVE",
"738 312 QCURVE",
"813 740 LINE",
"796 810 OFFCURVE",
"679 920 OFFCURVE",
"582 920 QCURVE SMOOTH",
"437 920 OFFCURVE",
"263 702 OFFCURVE",
"234 542 QCURVE SMOOTH",
"229 510 LINE SMOOTH"
);
}
);
width = 1135;
}
);
leftKerningGroup = alpha;
unicode = 0064;
},
{
glyphname = e;
layers = (
{
layerId = "1E68CFC6-8A63-43E3-914A-DAEC22AC2E91";
paths = (
{
closed = 1;
nodes = (
"50 542 LINE SMOOTH",
"92 780 OFFCURVE",
"398 1082 OFFCURVE",
"607 1082 QCURVE SMOOTH",
"816 1082 OFFCURVE",
"991 800 OFFCURVE",
"949 560 QCURVE SMOOTH",
"935 484 LINE",
"150 484 LINE",
"176 632 LINE",
"780 632 LINE",
"784 656 LINE SMOOTH",
"804 770 OFFCURVE",
"706 930 OFFCURVE",
"588 930 QCURVE SMOOTH",
"444 930 OFFCURVE",
"263 705 OFFCURVE",
"234 542 QCURVE SMOOTH",
"229 510 LINE SMOOTH",
"200 347 OFFCURVE",
"310 122 OFFCURVE",
"467 122 QCURVE SMOOTH",
"564 122 OFFCURVE",
"719 210 OFFCURVE",
"773 270 QCURVE",
"873 175 LINE",
"811 100 OFFCURVE",
"585 -30 OFFCURVE",
"440 -30 QCURVE SMOOTH",
"202 -30 OFFCURVE",
"2 272 OFFCURVE",
"44 510 QCURVE SMOOTH"
);
}
);
width = 1028;
}
);
leftKerningGroup = alpha;
rightKerningGroup = e_LC;
unicode = 0065;
},
{
glyphname = f;
layers = (
{
layerId = "1E68CFC6-8A63-43E3-914A-DAEC22AC2E91";
paths = (
{
closed = 1;
nodes = (
"274 1200 LINE SMOOTH",
"304 1374 OFFCURVE",
"521 1556 OFFCURVE",
"680 1556 QCURVE SMOOTH",
"711 1556 OFFCURVE",
"774 1548 OFFCURVE",
"801 1540 QCURVE",
"765 1390 LINE",
"744 1394 OFFCURVE",
"697 1400 OFFCURVE",
"672 1400 QCURVE SMOOTH",
"584 1400 OFFCURVE",
"472 1300 OFFCURVE",
"454 1200 QCURVE SMOOTH",
"417 992 LINE",
"414 970 LINE",
"243 0 LINE",
"62 0 LINE"
);
},
{
closed = 1;
nodes = (
"82 1052 LINE",
"316 1052 LINE",
"360 1052 LINE",
"649 1052 LINE",
"624 910 LINE",
"57 910 LINE"
);
}
);
width = 582;
}
);
leftKerningGroup = f_LC;
rightKerningGroup = f_LC;
unicode = 0066;
},
{
glyphname = g;
layers = (
{
layerId = "1E68CFC6-8A63-43E3-914A-DAEC22AC2E91";
paths = (
{
closed = 1;
nodes = (
"80 -144 LINE",
"114 -195 OFFCURVE",
"255 -274 OFFCURVE",
"352 -274 QCURVE SMOOTH",
"483 -274 OFFCURVE",
"662 -120 OFFCURVE",
"686 20 QCURVE SMOOTH",
"705 124 LINE",
"649 59 OFFCURVE",
"484 -20 OFFCURVE",
"378 -20 QCURVE SMOOTH",
"184 -20 OFFCURVE",
"4 280 OFFCURVE",
"44 510 QCURVE SMOOTH",
"50 542 LINE SMOOTH",
"91 772 OFFCURVE",
"376 1072 OFFCURVE",
"570 1072 QCURVE SMOOTH",
"677 1072 OFFCURVE",
"821 980 OFFCURVE",
"848 915 QCURVE",
"854 915 LINE",
"886 1052 LINE",
"1049 1052 LINE",
"867 20 LINE SMOOTH",
"828 -200 OFFCURVE",
"532 -436 OFFCURVE",
"329 -436 QCURVE SMOOTH",
"203 -436 OFFCURVE",
"4 -350 OFFCURVE",
"-58 -284 QCURVE"
);
},
{
closed = 1;
nodes = (
"200 350 OFFCURVE",
"298 132 OFFCURVE",
"443 132 QCURVE SMOOTH",
"540 132 OFFCURVE",
"696 242 OFFCURVE",
"738 312 QCURVE",
"813 740 LINE",
"796 810 OFFCURVE",
"679 920 OFFCURVE",
"582 920 QCURVE SMOOTH",
"437 920 OFFCURVE",
"263 702 OFFCURVE",
"234 542 QCURVE SMOOTH",
"229 510 LINE SMOOTH"
);
}
);
width = 1135;
}
);
leftKerningGroup = alpha;
unicode = 0067;
},
{
glyphname = h;
layers = (
{
layerId = "1E68CFC6-8A63-43E3-914A-DAEC22AC2E91";
paths = (
{
closed = 1;
nodes = (
"286 1536 LINE",
"467 1536 LINE",
"359 922 LINE",
"425 990 OFFCURVE",
"606 1072 OFFCURVE",
"705 1072 QCURVE SMOOTH",
"848 1072 OFFCURVE",
"999 891 OFFCURVE",
"962 679 QCURVE SMOOTH",
"842 0 LINE",
"662 0 LINE",
"782 681 LINE SMOOTH",
"804 807 OFFCURVE",
"713 916 OFFCURVE",
"613 916 QCURVE SMOOTH",
"526 916 OFFCURVE",
"377 820 OFFCURVE",
"327 744 QCURVE",
"196 0 LINE",
"16 0 LINE"
);
}
);
width = 1104;
}
);
leftKerningGroup = bhk_LC;
rightKerningGroup = hmn_LC;
unicode = 0068;
},
{
glyphname = i;
layers = (
{
layerId = "1E68CFC6-8A63-43E3-914A-DAEC22AC2E91";
paths = (
{
closed = 1;
nodes = (
"210 1052 LINE",
"390 1052 LINE",
"205 0 LINE",
"24 0 LINE"
);
},
{
closed = 1;
nodes = (
"246 1418 OFFCURVE",
"308 1481 OFFCURVE",
"363 1481 QCURVE SMOOTH",
"417 1480 OFFCURVE",
"471 1416 OFFCURVE",
"469 1369 QCURVE SMOOTH",
"466 1322 OFFCURVE",
"404 1259 OFFCURVE",
"349 1259 QCURVE SMOOTH",
"295 1260 OFFCURVE",
"241 1324 OFFCURVE",
"244 1371 QCURVE SMOOTH"
);
}
);
width = 485;
}
);
leftKerningGroup = i_LC;
rightKerningGroup = i_LC;
unicode = 0069;
},
{
glyphname = j;
layers = (
{
layerId = "1E68CFC6-8A63-43E3-914A-DAEC22AC2E91";
paths = (
{
closed = 1;
nodes = (
"-265 -260 LINE",
"-247 -266 OFFCURVE",
"-177 -280 OFFCURVE",
"-148 -280 QCURVE SMOOTH",
"-90 -280 OFFCURVE",
"-13 -210 OFFCURVE",
"1 -130 QCURVE SMOOTH",
"210 1052 LINE",
"390 1052 LINE",
"189 -90 LINE SMOOTH",
"157 -270 OFFCURVE",
"-7 -436 OFFCURVE",
"-137 -436 QCURVE SMOOTH",
"-176 -436 OFFCURVE",
"-269 -419 OFFCURVE",
"-291 -410 QCURVE"
);
},
{
closed = 1;
nodes = (
"246 1418 OFFCURVE",
"308 1481 OFFCURVE",
"363 1481 QCURVE SMOOTH",
"417 1480 OFFCURVE",
"471 1416 OFFCURVE",
"469 1369 QCURVE SMOOTH",
"466 1322 OFFCURVE",
"404 1259 OFFCURVE",
"349 1259 QCURVE SMOOTH",
"295 1260 OFFCURVE",
"241 1324 OFFCURVE",
"244 1371 QCURVE SMOOTH"
);
}
);
width = 485;
}
);
rightKerningGroup = j_LC;
unicode = 006A;
},
{
glyphname = k;
layers = (
{
layerId = "1E68CFC6-8A63-43E3-914A-DAEC22AC2E91";
paths = (
{
closed = 1;
nodes = (
"286 1536 LINE",
"467 1536 LINE",
"296 568 LINE",
"818 1052 LINE",
"1023 1052 LINE",
"258 350 LINE",
"196 0 LINE",
"16 0 LINE"
);
},
{
closed = 1;
nodes = (
"371 544 LINE",
"507 672 LINE",
"885 0 LINE",
"673 0 LINE"
);
}
);
width = 997;
}
);
leftKerningGroup = bhk_LC;
rightKerningGroup = k_LC;
unicode = 006B;
},
{
glyphname = l;
layers = (
{
layerId = "1E68CFC6-8A63-43E3-914A-DAEC22AC2E91";
paths = (
{
closed = 1;
nodes = (
"294 1536 LINE",
"475 1536 LINE",
"204 0 LINE",
"23 0 LINE"
);
}
);
width = 484;
}
);
leftKerningGroup = bhk_LC;
rightKerningGroup = l_LC;
unicode = 006C;
},
{
glyphname = m;
layers = (
{
layerId = "1E68CFC6-8A63-43E3-914A-DAEC22AC2E91";
paths = (
{
closed = 1;
nodes = (
"201 1052 LINE",
"364 1052 LINE",
"348 917 LINE",
"354 917 LINE",
"421 988 OFFCURVE",
"590 1072 OFFCURVE",
"684 1072 QCURVE SMOOTH",
"787 1072 OFFCURVE",
"921 988 OFFCURVE",
"943 894 QCURVE",
"949 894 LINE",
"1030 988 OFFCURVE",
"1200 1072 OFFCURVE",
"1301 1072 QCURVE SMOOTH",
"1460 1072 OFFCURVE",
"1606 891 OFFCURVE",
"1569 679 QCURVE SMOOTH",
"1449 0 LINE",
"1269 0 LINE",
"1389 681 LINE SMOOTH",
"1411 807 OFFCURVE",
"1326 916 OFFCURVE",
"1230 916 QCURVE SMOOTH",
"1146 916 OFFCURVE",
"1004 820 OFFCURVE",
"954 744 QCURVE",
"823 0 LINE",
"642 0 LINE",
"762 681 LINE SMOOTH",
"784 807 OFFCURVE",
"699 916 OFFCURVE",
"603 916 QCURVE SMOOTH",
"519 916 OFFCURVE",
"377 820 OFFCURVE",
"327 744 QCURVE",
"196 0 LINE",
"16 0 LINE"
);
}
);
width = 1712;
}
);
leftKerningGroup = mnpr_LC;
rightKerningGroup = hmn_LC;
unicode = 006D;
},
{
glyphname = n;
layers = (
{
layerId = "1E68CFC6-8A63-43E3-914A-DAEC22AC2E91";
paths = (
{
closed = 1;
nodes = (
"201 1052 LINE",
"364 1052 LINE",
"348 917 LINE",
"354 917 LINE",
"422 989 OFFCURVE",
"596 1072 OFFCURVE",
"693 1072 QCURVE SMOOTH",
"848 1072 OFFCURVE",
"999 891 OFFCURVE",
"962 679 QCURVE SMOOTH",
"842 0 LINE",
"662 0 LINE",
"782 681 LINE SMOOTH",
"804 807 OFFCURVE",
"713 916 OFFCURVE",
"613 916 QCURVE SMOOTH",
"526 916 OFFCURVE",
"377 820 OFFCURVE",
"327 744 QCURVE",
"196 0 LINE",
"16 0 LINE"
);
}
);
width = 1104;
}
);
leftKerningGroup = mnpr_LC;
rightKerningGroup = hmn_LC;
unicode = 006E;
},
{
glyphname = o;
layers = (
{
layerId = "1E68CFC6-8A63-43E3-914A-DAEC22AC2E91";
paths = (
{
closed = 1;
nodes = (
"50 542 LINE SMOOTH",
"92 780 OFFCURVE",
"407 1082 OFFCURVE",
"626 1082 QCURVE SMOOTH",
"846 1082 OFFCURVE",
"1054 780 OFFCURVE",
"1012 542 QCURVE SMOOTH",
"1007 510 LINE SMOOTH",
"965 272 OFFCURVE",
"650 -30 OFFCURVE",
"430 -30 QCURVE SMOOTH",
"211 -30 OFFCURVE",
"2 272 OFFCURVE",
"44 510 QCURVE SMOOTH"
);
},
{
closed = 1;
nodes = (
"229 510 LINE SMOOTH",
"200 347 OFFCURVE",
"310 122 OFFCURVE",
"457 122 QCURVE SMOOTH",
"605 122 OFFCURVE",
"794 347 OFFCURVE",
"822 510 QCURVE SMOOTH",
"828 542 LINE SMOOTH",
"857 705 OFFCURVE",
"747 930 OFFCURVE",
"600 930 QCURVE SMOOTH",
"452 930 OFFCURVE",
"263 705 OFFCURVE",
"234 542 QCURVE SMOOTH"
);
}
);
width = 1127;
}
);
leftKerningGroup = o_LC;
rightKerningGroup = o_LC;
unicode = 006F;
},
{
glyphname = p;
layers = (
{
layerId = "1E68CFC6-8A63-43E3-914A-DAEC22AC2E91";
paths = (
{
closed = 1;
nodes = (
"201 1052 LINE",
"364 1052 LINE",
"348 915 LINE",
"353 915 LINE",
"404 980 OFFCURVE",
"580 1072 OFFCURVE",
"687 1072 QCURVE SMOOTH",
"881 1072 OFFCURVE",
"1061 772 OFFCURVE",
"1020 542 QCURVE SMOOTH",
"1014 510 LINE SMOOTH",
"974 280 OFFCURVE",
"688 -20 OFFCURVE",
"494 -20 QCURVE SMOOTH",
"387 -20 OFFCURVE",
"251 59 OFFCURVE",
"218 124 QCURVE",
"123 -416 LINE",
"-58 -416 LINE"
);
},
{
closed = 1;
nodes = (
"269 242 OFFCURVE",
"385 132 OFFCURVE",
"482 132 QCURVE SMOOTH",
"628 132 OFFCURVE",
"802 350 OFFCURVE",
"830 510 QCURVE SMOOTH",
"836 542 LINE SMOOTH",
"864 702 OFFCURVE",
"767 920 OFFCURVE",
"621 920 QCURVE SMOOTH",
"524 920 OFFCURVE",
"369 810 OFFCURVE",
"326 740 QCURVE",
"251 312 LINE"
);
}
);
width = 1135;
}
);
leftKerningGroup = mnpr_LC;
rightKerningGroup = b_LC;
unicode = 0070;
},
{
glyphname = q;
layers = (
{
layerId = "1E68CFC6-8A63-43E3-914A-DAEC22AC2E91";
paths = (
{
closed = 1;
nodes = (
"50 542 LINE SMOOTH",
"91 772 OFFCURVE",
"376 1072 OFFCURVE",
"570 1072 QCURVE SMOOTH",
"677 1072 OFFCURVE",
"821 980 OFFCURVE",
"848 915 QCURVE",
"854 915 LINE",
"886 1052 LINE",
"1049 1052 LINE",
"790 -416 LINE",
"610 -416 LINE",
"705 124 LINE",
"705 124 LINE",
"649 59 OFFCURVE",
"484 -20 OFFCURVE",
"378 -20 QCURVE SMOOTH",
"184 -20 OFFCURVE",
"4 280 OFFCURVE",
"44 510 QCURVE SMOOTH"
);
},
{
closed = 1;
nodes = (
"200 350 OFFCURVE",
"298 132 OFFCURVE",
"443 132 QCURVE SMOOTH",
"540 132 OFFCURVE",
"696 242 OFFCURVE",
"738 312 QCURVE",
"813 740 LINE",
"796 810 OFFCURVE",
"679 920 OFFCURVE",
"582 920 QCURVE SMOOTH",
"437 920 OFFCURVE",
"263 702 OFFCURVE",
"234 542 QCURVE SMOOTH",
"229 510 LINE SMOOTH"
);
}
);
width = 1135;
}
);
leftKerningGroup = alpha;
unicode = 0071;
},
{
glyphname = r;
layers = (
{
layerId = "1E68CFC6-8A63-43E3-914A-DAEC22AC2E91";
paths = (
{
closed = 1;
nodes = (
"201 1052 LINE",
"364 1052 LINE",
"348 917 LINE",
"354 917 LINE",
"404 983 OFFCURVE",
"548 1082 OFFCURVE",
"635 1082 QCURVE SMOOTH",
"656 1082 OFFCURVE",
"701 1072 OFFCURVE",
"710 1068 QCURVE",
"680 896 LINE",
"661 900 OFFCURVE",
"619 904 OFFCURVE",
"594 904 QCURVE SMOOTH",
"507 904 OFFCURVE",
"368 810 OFFCURVE",
"326 740 QCURVE",
"196 0 LINE",
"16 0 LINE"
);
}
);
width = 679;
}
);
leftKerningGroup = mnpr_LC;
rightKerningGroup = r_LC;
unicode = 0072;
},
{
glyphname = s;
layers = (
{
layerId = "1E68CFC6-8A63-43E3-914A-DAEC22AC2E91";
paths = (
{
closed = 1;
nodes = (
"185 310 LINE",
"184 305 LINE SMOOTH",
"168 214 OFFCURVE",
"282 122 OFFCURVE",
"388 122 QCURVE SMOOTH",
"495 122 OFFCURVE",
"634 210 OFFCURVE",
"646 280 QCURVE SMOOTH",
"658 350 OFFCURVE",
"573 425 OFFCURVE",
"415 465 QCURVE SMOOTH",
"257 505 OFFCURVE",
"88 650 OFFCURVE",
"111 780 QCURVE SMOOTH",
"134 910 OFFCURVE",
"373 1082 OFFCURVE",
"548 1082 QCURVE SMOOTH",
"722 1082 OFFCURVE",
"906 911 OFFCURVE",
"880 765 QCURVE SMOOTH",
"879 760 LINE",
"700 760 LINE",
"701 769 LINE SMOOTH",
"714 844 OFFCURVE",
"628 930 OFFCURVE",
"521 930 QCURVE SMOOTH",
"414 930 OFFCURVE",
"302 850 OFFCURVE",
"292 790 QCURVE SMOOTH",
"281 730 OFFCURVE",
"381 660 OFFCURVE",
"539 620 QCURVE SMOOTH",
"697 580 OFFCURVE",
"850 430 OFFCURVE",
"825 290 QCURVE SMOOTH",
"801 150 OFFCURVE",
"565 -30 OFFCURVE",
"361 -30 QCURVE SMOOTH",
"158 -30 OFFCURVE",
"-23 153 OFFCURVE",
"3 305 QCURVE SMOOTH",
"4 310 LINE"
);
}
);
width = 980;
}
);
leftKerningGroup = s_LC;
rightKerningGroup = s_LC;
unicode = 0073;
},
{
glyphname = t;
layers = (
{
layerId = "1E68CFC6-8A63-43E3-914A-DAEC22AC2E91";
paths = (
{
closed = 1;
nodes = (
"57 1052 LINE",
"639 1052 LINE",
"614 910 LINE",
"32 910 LINE"
);
},
{
closed = 1;
nodes = (
"225 966 LINE",
"230 996 LINE",
"286 1312 LINE",
"466 1312 LINE",
"281 260 LINE SMOOTH",
"268 190 OFFCURVE",
"312 130 OFFCURVE",
"370 130 QCURVE SMOOTH",
"397 130 OFFCURVE",
"452 142 OFFCURVE",
"481 152 QCURVE",
"454 0 LINE",
"427 -12 OFFCURVE",
"342 -30 OFFCURVE",
"294 -30 QCURVE SMOOTH",
"182 -30 OFFCURVE",
"74 110 OFFCURVE",
"100 260 QCURVE SMOOTH"
);
}
);
width = 631;
}
);
leftKerningGroup = t_LC;
rightKerningGroup = t_LC;
unicode = 0074;
},
{
glyphname = u;
layers = (
{
layerId = "1E68CFC6-8A63-43E3-914A-DAEC22AC2E91";
paths = (
{
closed = 1;
nodes = (
"191 1052 LINE",
"372 1052 LINE",
"252 371 LINE SMOOTH",
"229 245 OFFCURVE",
"320 136 OFFCURVE",
"421 136 QCURVE SMOOTH",
"507 136 OFFCURVE",
"656 232 OFFCURVE",
"706 308 QCURVE",
"837 1052 LINE",
"1018 1052 LINE",
"832 0 LINE",
"669 0 LINE",
"685 135 LINE",
"680 135 LINE",
"612 63 OFFCURVE",
"437 -20 OFFCURVE",
"340 -20 QCURVE SMOOTH",
"186 -20 OFFCURVE",
"34 161 OFFCURVE",
"72 373 QCURVE SMOOTH"
);
}
);
width = 1104;
}
);
leftKerningGroup = u_LC;
rightKerningGroup = u_LC;
unicode = 0075;
},
{
glyphname = v;
layers = (
{
layerId = "1E68CFC6-8A63-43E3-914A-DAEC22AC2E91";
paths = (
{
closed = 1;
nodes = (
"232 1052 LINE",
"355 350 LINE SMOOTH",
"361 310 OFFCURVE",
"367 240 OFFCURVE",
"368 220 QCURVE",
"373 220 LINE",
"381 240 OFFCURVE",
"412 310 OFFCURVE",
"432 350 QCURVE SMOOTH",
"801 1052 LINE",
"971 1052 LINE",
"398 0 LINE",
"260 0 LINE",
"57 1052 LINE"
);
}
);
width = 914;
}
);
leftKerningGroup = gamma;
rightKerningGroup = gamma;
unicode = 0076;
},
{
glyphname = w;
layers = (
{
layerId = "1E68CFC6-8A63-43E3-914A-DAEC22AC2E91";
paths = (
{
closed = 1;
nodes = (
"256 1052 LINE",
"323 360 LINE SMOOTH",
"326 320 OFFCURVE",
"330 270 OFFCURVE",
"331 230 QCURVE",
"336 230 LINE",
"351 270 OFFCURVE",
"373 320 OFFCURVE",
"392 360 QCURVE SMOOTH",
"736 1052 LINE",
"888 1052 LINE",
"995 360 LINE SMOOTH",
"1001 320 OFFCURVE",
"1005 270 OFFCURVE",
"1006 230 QCURVE",
"1012 230 LINE",
"1026 270 OFFCURVE",
"1046 320 OFFCURVE",
"1064 360 QCURVE SMOOTH",
"1368 1052 LINE",
"1533 1052 LINE",
"1032 0 LINE",
"891 0 LINE",
"789 680 LINE SMOOTH",
"784 720 OFFCURVE",
"775 800 OFFCURVE",
"773 840 QCURVE",
"767 840 LINE",
"750 800 OFFCURVE",
"714 720 OFFCURVE",
"694 680 QCURVE SMOOTH",
"352 0 LINE",
"212 0 LINE",
"82 1052 LINE"
);
}
);
width = 1499;
}
);
leftKerningGroup = w_LC;
rightKerningGroup = w_LC;
unicode = 0077;
},
{
glyphname = x;
layers = (
{
layerId = "1E68CFC6-8A63-43E3-914A-DAEC22AC2E91";
paths = (
{
closed = 1;
nodes = (
"382 582 LINE",
"393 582 LINE",
"764 1052 LINE",
"967 1052 LINE",
"499 484 LINE",
"488 484 LINE",
"95 0 LINE",
"-109 0 LINE"
);
},
{
closed = 1;
nodes = (
"303 1052 LINE",
"508 582 LINE",
"516 582 LINE",
"801 0 LINE",
"595 0 LINE",
"373 484 LINE",
"365 484 LINE",
"96 1052 LINE"
);
}
);
width = 949;
}
);
unicode = 0078;
},
{
glyphname = y;
layers = (
{
layerId = "1E68CFC6-8A63-43E3-914A-DAEC22AC2E91";
paths = (
{
closed = 1;
nodes = (
"-125 -258 LINE",
"-101 -266 OFFCURVE",
"-41 -276 OFFCURVE",
"-12 -276 QCURVE SMOOTH",
"56 -276 OFFCURVE",
"176 -171 OFFCURVE",
"263 4 QCURVE",
"263 5 LINE",
"67 1052 LINE",
"242 1052 LINE",
"361 360 LINE SMOOTH",
"368 320 OFFCURVE",
"377 250 OFFCURVE",
"379 220 QCURVE",
"385 220 LINE",
"399 250 OFFCURVE",
"434 320 OFFCURVE",
"453 360 QCURVE SMOOTH",
"801 1052 LINE",
"971 1052 LINE",
"347 -140 LINE SMOOTH",
"274 -280 OFFCURVE",
"86 -436 OFFCURVE",
"-30 -436 QCURVE SMOOTH",
"-69 -436 OFFCURVE",
"-127 -426 OFFCURVE",
"-153 -416 QCURVE"
);
}
);
width = 914;
}
);
leftKerningGroup = gamma;
rightKerningGroup = gamma;
unicode = 0079;
},
{
glyphname = z;
layers = (
{
layerId = "1E68CFC6-8A63-43E3-914A-DAEC22AC2E91";
paths = (
{
closed = 1;
nodes = (
"-36 136 LINE",
"684 900 LINE",
"106 900 LINE",
"133 1052 LINE",
"929 1052 LINE",
"905 919 LINE",
"182 152 LINE",
"799 152 LINE",
"772 0 LINE",
"-60 0 LINE"
);
}
);
width = 962;
}
);
leftKerningGroup = z_LC;
rightKerningGroup = z_LC;
unicode = 007A;
},
{
glyphname = braceleft;
layers = (
{
layerId = "1E68CFC6-8A63-43E3-914A-DAEC22AC2E91";
paths = (
{
closed = 1;
nodes = (
"248 -312 OFFCURVE",
"50 -32 OFFCURVE",
"113 123 QCURVE SMOOTH",
"199 334 LINE SMOOTH",
"242 441 OFFCURVE",
"132 508 OFFCURVE",
"24 508 QCURVE",
"47 640 LINE",
"156 640 OFFCURVE",
"289 707 OFFCURVE",
"283 814 QCURVE SMOOTH",
"272 1025 LINE SMOOTH",
"263 1180 OFFCURVE",
"560 1460 OFFCURVE",
"779 1460 QCURVE",
"754 1314 LINE",
"610 1314 OFFCURVE",
"446 1146 OFFCURVE",
"452 1025 QCURVE SMOOTH",
"464 814 LINE SMOOTH",
"468 730 OFFCURVE",
"375 600 OFFCURVE",
"276 574 QCURVE",
"366 548 OFFCURVE",
"413 418 OFFCURVE",
"379 334 QCURVE SMOOTH",
"293 123 LINE SMOOTH",
"244 2 OFFCURVE",
"349 -166 OFFCURVE",
"493 -166 QCURVE",
"467 -312 LINE"
);
}
);
width = 679;
}
);
rightKerningGroup = parens;
unicode = 007B;
},
{
glyphname = bar;
layers = (
{
layerId = "1E68CFC6-8A63-43E3-914A-DAEC22AC2E91";
paths = (
{
closed = 1;
nodes = (
"347 1536 LINE",
"513 1536 LINE",
"169 -416 LINE",
"2 -416 LINE"
);
}
);
width = 574;
}
);
unicode = 007C;
},
{
glyphname = braceright;
layers = (
{
layerId = "1E68CFC6-8A63-43E3-914A-DAEC22AC2E91";
paths = (
{
closed = 1;
nodes = (
"-128 -166 LINE",
"15 -166 OFFCURVE",
"180 2 OFFCURVE",
"173 123 QCURVE SMOOTH",
"162 334 LINE SMOOTH",
"157 418 OFFCURVE",
"250 548 OFFCURVE",
"350 574 QCURVE",
"259 600 OFFCURVE",
"212 730 OFFCURVE",
"246 814 QCURVE SMOOTH",
"332 1025 LINE SMOOTH",
"382 1146 OFFCURVE",
"276 1314 OFFCURVE",
"133 1314 QCURVE",
"159 1460 LINE",
"378 1460 OFFCURVE",
"576 1180 OFFCURVE",
"513 1025 QCURVE SMOOTH",
"427 814 LINE SMOOTH",
"384 707 OFFCURVE",
"493 640 OFFCURVE",
"602 640 QCURVE",
"578 508 LINE",
"470 508 OFFCURVE",
"337 441 OFFCURVE",
"342 334 QCURVE SMOOTH",
"353 123 LINE SMOOTH",
"362 -32 OFFCURVE",
"65 -312 OFFCURVE",
"-154 -312 QCURVE"
);
}
);
width = 679;
}
);
leftKerningGroup = parens;
unicode = 007D;
},
{
glyphname = asciitilde;
layers = (
{
layerId = "1E68CFC6-8A63-43E3-914A-DAEC22AC2E91";
paths = (
{
closed = 1;
nodes = (
"45 734 LINE",
"100 785 OFFCURVE",
"238 842 OFFCURVE",
"301 843 QCURVE SMOOTH",
"378 844 OFFCURVE",
"459 801 OFFCURVE",
"515 770 QCURVE SMOOTH",
"567 740 OFFCURVE",
"643 701 OFFCURVE",
"714 701 QCURVE SMOOTH",
"777 701 OFFCURVE",
"911 769 OFFCURVE",
"967 829 QCURVE",
"931 626 LINE",
"876 575 OFFCURVE",
"746 517 OFFCURVE",
"683 517 QCURVE SMOOTH",
"611 517 OFFCURVE",
"536 556 OFFCURVE",
"484 586 QCURVE SMOOTH",
"428 617 OFFCURVE",
"345 659 OFFCURVE",
"269 659 QCURVE SMOOTH",
"205 659 OFFCURVE",
"66 592 OFFCURVE",
"9 532 QCURVE"
);
}
);
width = 993;
}
);
unicode = 007E;
},
{
color = (0,26,255,1);
glyphname = exclamdown;
lastChange = "2020-06-23 13:55:14 +0000";
layers = (
{
layerId = "1E68CFC6-8A63-43E3-914A-DAEC22AC2E91";
paths = (
{
closed = 1;
nodes = (
"483.032 1004 OFFCURVE",
"406.689 934 OFFCURVE",
"346.689 934 QCURVE SMOOTH",
"286.689 934 OFFCURVE",
"235.032 1004 OFFCURVE",
"243.672 1053 QCURVE SMOOTH",
"252.312 1102 OFFCURVE",
"328.655 1172 OFFCURVE",
"388.655 1172 QCURVE SMOOTH",
"448.655 1172 OFFCURVE",
"500.312 1102 OFFCURVE",
"491.672 1053 QCURVE SMOOTH"
);
},
{
closed = 1;
nodes = (
"225.044 -306 LINE",
"31.044 -306 LINE",
"230.482 740 LINE",
"394.482 740 LINE"
);
}
);
width = 620;
}
);
unicode = 00A1;
changeCount = 1;
},
{
color = (0,26,255,1);
glyphname = cent;
lastChange = "2020-06-23 13:55:14 +0000";
layers = (
{
layerId = "1E68CFC6-8A63-43E3-914A-DAEC22AC2E91";
paths = (
{
closed = 1;
nodes = (
"567.724 282 OFFCURVE",
"737.707 401 OFFCURVE",
"760.753 492 QCURVE",
"936.753 492 LINE",
"903.362 348 OFFCURVE",
"612.922 130 OFFCURVE",
"441.923 130 QCURVE SMOOTH",
"198.923 130 OFFCURVE",
"17.052 454 OFFCURVE",
"55.139 670 QCURVE SMOOTH",
"62.545 712 LINE SMOOTH",
"100.631 928 OFFCURVE",
"396.761 1252 OFFCURVE",
"639.761 1252 QCURVE SMOOTH",
"828.761 1252 OFFCURVE",
"1023.911 1026 OFFCURVE",
"1001.641 860 QCURVE",
"825.641 860 LINE",
"836.098 959 OFFCURVE",
"722.96 1100 OFFCURVE",
"612.96 1100 QCURVE SMOOTH",
"442.96 1100 OFFCURVE",
"273.231 852 OFFCURVE",
"248.545 712 QCURVE SMOOTH",
"241.139 670 LINE SMOOTH",
"216.101 528 OFFCURVE",
"296.724 282 OFFCURVE",
"468.724 282 QCURVE SMOOTH"
);
},
{
closed = 1;
nodes = (
"382.789 237 LINE",
"390.258 251 LINE",
"470.84 708 LINE",
"610.839 708 LINE",
"530.082 250 LINE",
"533.318 240 LINE",
"491 0 LINE",
"341 0 LINE"
);
},
{
closed = 1;
nodes = (
"554.419 1182 LINE",
"551.182 1192 LINE",
"588.21 1402 LINE",
"738.21 1402 LINE",
"701.182 1192 LINE",
"693.89 1179 LINE",
"610.839 708 LINE",
"470.84 708 LINE"
);
}
);
width = 1024;
}
);
unicode = 00A2;
changeCount = 1;
},
{
color = (0,26,255,1);
glyphname = sterling;
lastChange = "2020-06-23 13:55:14 +0000";
layers = (
{
layerId = "1E68CFC6-8A63-43E3-914A-DAEC22AC2E91";
paths = (
{
closed = 1;
nodes = (
"-92 0 LINE",
"-63.788 160 LINE",
"-7.788 160 LINE SMOOTH",
"84.212 160 OFFCURVE",
"193.13 324 OFFCURVE",
"204.345 467 QCURVE SMOOTH",
"250.204 1039 LINE SMOOTH",
"265.53 1228 OFFCURVE",
"512.259 1476 OFFCURVE",
"713.259 1476 QCURVE SMOOTH",
"903.259 1476 OFFCURVE",
"1079.935 1270 OFFCURVE",
"1050.489 1103 QCURVE SMOOTH",
"1047.667 1087 LINE",
"855.667 1087 LINE",
"858.489 1103 LINE SMOOTH",
"878.766 1218 OFFCURVE",
"777.812 1309 OFFCURVE",
"685.812 1309 QCURVE SMOOTH",
"588.812 1309 OFFCURVE",
"449.947 1185 OFFCURVE",
"438.204 1039 QCURVE SMOOTH",
"395.574 508 LINE SMOOTH",
"384.594 372 OFFCURVE",
"300.5 207 OFFCURVE",
"223.27 166 QCURVE",
"929.27 166 LINE",
"900 0 LINE"
);
},
{
closed = 1;
nodes = (
"34.204 625 LINE",
"61.535 780 LINE",
"833.535 780 LINE",
"806.204 625 LINE"
);
}
);
width = 1024;
}
);
unicode = 00A3;
changeCount = 1;
},
{
color = (0,26,255,1);
glyphname = currency;
lastChange = "2020-06-23 13:55:14 +0000";
layers = (
{
guideLines = (
{
position = "{30.871, 901}";
},
{
position = "{-30.139, 555}";
}
);
layerId = "1E68CFC6-8A63-43E3-914A-DAEC22AC2E91";
paths = (
{
closed = 1;
nodes = (
"232.977 567 OFFCURVE",
"382.77 373 OFFCURVE",
"513.77 373 QCURVE SMOOTH",
"643.77 373 OFFCURVE",
"860.977 567 OFFCURVE",
"886.545 712 QCURVE SMOOTH",
"911.76 855 OFFCURVE",
"762.967 1049 OFFCURVE",
"632.967 1049 QCURVE SMOOTH",
"501.967 1049 OFFCURVE",
"283.76 855 OFFCURVE",
"258.545 712 QCURVE"
);
},
{
closed = 1;
nodes = (
"114.513 933 OFFCURVE",
"462 1225 OFFCURVE",
"663 1225 QCURVE SMOOTH",
"864 1225 OFFCURVE",
"1108.513 933 OFFCURVE",
"1070.603 718 QCURVE SMOOTH",
"1032.869 504 OFFCURVE",
"684.852 209 OFFCURVE",
"483.852 209 QCURVE SMOOTH",
"282.852 209 OFFCURVE",
"38.869 504 OFFCURVE",
"76.603 718 QCURVE"
);
},
{
closed = 1;
nodes = (
"960.037 970 LINE",
"860.431 1097 LINE",
"1098.754 1303 LINE",
"1198.36 1176 LINE"
);
},
{
closed = 1;
nodes = (
"31.096 148 LINE",
"-67.686 274 LINE",
"170.461 479 LINE",
"269.42 354 LINE"
);
},
{
closed = 1;
nodes = (
"756.654 361 LINE",
"901.871 487 LINE",
"1067.724 282 LINE",
"922.331 155 LINE"
);
},
{
closed = 1;
nodes = (
"110.829 1190 LINE",
"254.046 1316 LINE",
"419.723 1110 LINE",
"276.506 984 LINE"
);
}
);
width = 1158;
}
);
unicode = 00A4;
userData = {
com.typemytype.robofont.guideline.magnetic.917FhrihjR = 5;
com.typemytype.robofont.guideline.magnetic.bRYxxRaQQf = 5;
};
changeCount = 1;
},
{
color = (0,26,255,1);
glyphname = yen;
lastChange = "2020-06-23 13:55:14 +0000";
layers = (
{
layerId = "1E68CFC6-8A63-43E3-914A-DAEC22AC2E91";
paths = (
{
closed = 1;
nodes = (
"13.874 470 LINE",
"959.874 470 LINE",
"931.838 311 LINE",
"-14.162 311 LINE"
);
},
{
closed = 1;
nodes = (
"67.653 775 LINE",
"433.653 775 LINE",
"467.963 669 LINE",
"576.963 669 LINE",
"643.653 775 LINE",
"1013.653 775 LINE",
"986.499 621 LINE",
"40.499 621 LINE"
);
},
{
closed = 1;
nodes = (
"404.627 548 LINE",
"109.732 1456 LINE",
"318.732 1456 LINE",
"487.702 849 LINE SMOOTH",
"496.412 819 OFFCURVE",
"511.25 716 OFFCURVE",
"511.726 679 QCURVE",
"531.726 679 LINE",
"550.6 735 OFFCURVE",
"596.412 819 OFFCURVE",
"615.702 849 QCURVE SMOOTH",
"1002.732 1456 LINE",
"1203.732 1456 LINE",
"588.627 548 LINE",
"492 0 LINE",
"308 0 LINE"
);
}
);
width = 1056;
}
);
unicode = 00A5;
changeCount = 1;
},
{
color = (0,26,255,1);
glyphname = brokenbar;
lastChange = "2020-06-23 13:55:14 +0000";
layers = (
{
guideLines = (
{
position = "{30.871, 901}";
},
{
position = "{-30.139, 555}";
}
);
layerId = "1E68CFC6-8A63-43E3-914A-DAEC22AC2E91";
paths = (
{
closed = 1;
nodes = (
"3.648 -416 LINE",
"140.301 359 LINE",
"322.301 359 LINE",
"185.648 -416 LINE"
);
},
{
closed = 1;
nodes = (
"393.185 761 LINE",
"211.185 761 LINE",
"347.838 1536 LINE",
"529.838 1536 LINE"
);
}
);
width = 592;
}
);
unicode = 00A6;
userData = {
com.typemytype.robofont.guideline.magnetic.Z0RZpP7MTi = 5;
com.typemytype.robofont.guideline.magnetic.jmguX8NWKI = 5;
};
changeCount = 1;
},
{
color = (0,26,255,1);
glyphname = section;
lastChange = "2020-06-23 13:55:14 +0000";
layers = (
{
guideLines = (
{
position = "{164.35, 1658}";
},
{
position = "{-26.083, 578}";
}
);
layerId = "1E68CFC6-8A63-43E3-914A-DAEC22AC2E91";
paths = (
{
closed = 1;
nodes = (
"607.434 252 LINE",
"717.434 252 OFFCURVE",
"892.299 376 OFFCURVE",
"907.639 463 QCURVE",
"924.038 556 OFFCURVE",
"777.492 672 OFFCURVE",
"607.424 734 QCURVE SMOOTH",
"425.004 794 OFFCURVE",
"235.334 949 OFFCURVE",
"267.073 1129 QCURVE SMOOTH",
"298.107 1305 OFFCURVE",
"555.727 1490 OFFCURVE",
"757.904 1491 QCURVE SMOOTH",
"951.08 1492 OFFCURVE",
"1140.167 1294 OFFCURVE",
"1104.96 1100 QCURVE",
"939.96 1100 LINE",
"958.592 1200 OFFCURVE",
"851.749 1337 OFFCURVE",
"730.749 1337 QCURVE SMOOTH",
"590.749 1337 OFFCURVE",
"451.469 1239 OFFCURVE",
"434.013 1140 QCURVE SMOOTH",
"417.967 1049 OFFCURVE",
"525.45 961 OFFCURVE",
"714.165 897 QCURVE SMOOTH",
"887.938 839 OFFCURVE",
"1121.965 652 OFFCURVE",
"1091.284 478 QCURVE SMOOTH",
"1062.543 315 OFFCURVE",
"765.451 133 OFFCURVE",
"586.451 133 QCURVE"
);
},
{
closed = 1;
nodes = (
"541.303 756 LINE",
"430.303 756 OFFCURVE",
"287.436 649 OFFCURVE",
"272.977 567 QCURVE SMOOTH",
"258.871 487 OFFCURVE",
"387.239 387 OFFCURVE",
"563.896 317 QCURVE SMOOTH",
"728.434 252 OFFCURVE",
"931.638 66 OFFCURVE",
"900.075 -113 QCURVE SMOOTH",
"867.455 -298 OFFCURVE",
"576.25 -509 OFFCURVE",
"381.25 -509 QCURVE SMOOTH",
"186.25 -509 OFFCURVE",
"-50.427 -303 OFFCURVE",
"-9.696 -72 QCURVE",
"154.657 -70 LINE",
"126.445 -230 OFFCURVE",
"302.404 -355 OFFCURVE",
"408.404 -355 QCURVE SMOOTH",
"525.404 -355 OFFCURVE",
"712.976 -244 OFFCURVE",
"732.02 -136 QCURVE SMOOTH",
"749.829 -35 OFFCURVE",
"630.575 94 OFFCURVE",
"440.389 161 QCURVE SMOOTH",
"266.145 222 OFFCURVE",
"65.057 420 OFFCURVE",
"92.741 577 QCURVE SMOOTH",
"119.19 727 OFFCURVE",
"404.636 894 OFFCURVE",
"566.636 894 QCURVE"
);
}
);
width = 1256;
}
);
unicode = 00A7;
userData = {
com.typemytype.robofont.guideline.magnetic.9Hxjf2sdFw = 5;
com.typemytype.robofont.guideline.magnetic.QzZ5gIiCyn = 5;
};
changeCount = 1;
},
{
color = (0,26,255,1);
glyphname = dieresis;
lastChange = "2020-06-23 13:55:14 +0000";
layers = (
{
layerId = "1E68CFC6-8A63-43E3-914A-DAEC22AC2E91";
paths = (
{
closed = 1;
nodes = (
"298.099 1356 OFFCURVE",
"365.032 1418 OFFCURVE",
"418.032 1418 QCURVE SMOOTH",
"472.032 1418 OFFCURVE",
"517.099 1356 OFFCURVE",
"509.165 1311 QCURVE SMOOTH",
"501.583 1268 OFFCURVE",
"434.827 1207 OFFCURVE",
"380.827 1207 QCURVE SMOOTH",
"327.827 1207 OFFCURVE",
"282.583 1268 OFFCURVE",
"290.165 1311 QCURVE SMOOTH"
);
},
{
closed = 1;
nodes = (
"728.747 1354 OFFCURVE",
"794.679 1416 OFFCURVE",
"848.679 1416 QCURVE SMOOTH",
"901.679 1416 OFFCURVE",
"947.747 1354 OFFCURVE",
"939.812 1309 QCURVE SMOOTH",
"932.23 1266 OFFCURVE",
"864.474 1205 OFFCURVE",
"811.474 1205 QCURVE SMOOTH",
"757.474 1205 OFFCURVE",
"713.23 1266 OFFCURVE",
"720.812 1309 QCURVE SMOOTH"
);
}
);
width = 1024;
}
);
unicode = 00A8;
changeCount = 1;
},
{
color = (0,26,255,1);
glyphname = copyright;
lastChange = "2020-06-23 13:55:14 +0000";
layers = (
{
guideLines = (
{
position = "{30.871, 901}";
},
{
position = "{-30.139, 555}";
}
);
layerId = "1E68CFC6-8A63-43E3-914A-DAEC22AC2E91";
paths = (
{
closed = 1;
nodes = (
"1180.275 546 LINE",
"1150.123 375 OFFCURVE",
"885.147 205 OFFCURVE",
"721.147 205 QCURVE SMOOTH",
"550.147 205 OFFCURVE",
"368.055 437 OFFCURVE",
"408.081 664 QCURVE SMOOTH",
"414.958 703 LINE SMOOTH",
"455.16 931 OFFCURVE",
"721.303 1170 OFFCURVE",
"908.303 1170 QCURVE SMOOTH",
"1095.303 1170 OFFCURVE",
"1258.329 983 OFFCURVE",
"1231.175 829 QCURVE",
"1049.175 829 LINE",
"1064.692 917 OFFCURVE",
"977.385 1006 OFFCURVE",
"878.385 1006 QCURVE SMOOTH",
"771.385 1006 OFFCURVE",
"637.052 868 OFFCURVE",
"615.716 747 QCURVE SMOOTH",
"593.499 621 LINE SMOOTH",
"571.987 499 OFFCURVE",
"666.83 362 OFFCURVE",
"773.83 362 QCURVE SMOOTH",
"872.83 362 OFFCURVE",
"982.581 457 OFFCURVE",
"998.275 546 QCURVE"
);
},
{
closed = 1;
nodes = (
"129 400 OFFCURVE",
"436 4 OFFCURVE",
"701 4 QCURVE SMOOTH",
"1010 4 OFFCURVE",
"1405 358 OFFCURVE",
"1462 687 QCURVE SMOOTH",
"1513 975 OFFCURVE",
"1205 1367 OFFCURVE",
"941 1367 QCURVE SMOOTH",
"632 1367 OFFCURVE",
"237 1015 OFFCURVE",
"179 687 QCURVE SMOOTH"
);
},
{
closed = 1;
nodes = (
"102 1088 OFFCURVE",
"587 1519 OFFCURVE",
"967 1519 QCURVE SMOOTH",
"1292 1519 OFFCURVE",
"1671 1039 OFFCURVE",
"1609 687 QCURVE SMOOTH",
"1538 285 OFFCURVE",
"1053 -147 OFFCURVE",
"673 -147 QCURVE SMOOTH",
"347 -147 OFFCURVE",
"-31 337 OFFCURVE",
"31 687 QCURVE SMOOTH"
);
}
);
width = 1654;
}
);
leftKerningGroup = copyright;
rightKerningGroup = copyright;
unicode = 00A9;
userData = {
com.typemytype.robofont.guideline.magnetic.0Pjz0qKr8z = 5;
com.typemytype.robofont.guideline.magnetic.sJo8BlDiJ7 = 5;
};
changeCount = 1;
},
{
color = (0,26,255,1);
glyphname = ordfeminine;
lastChange = "2020-06-23 13:55:14 +0000";
layers = (
{
guideLines = (
{
position = "{168.406, 1681}";
},
{
position = "{32.281, 909}";
}
);
layerId = "1E68CFC6-8A63-43E3-914A-DAEC22AC2E91";
paths = (
{
closed = 1;
nodes = (
"622.764 821 OFFCURVE",
"627.777 736 OFFCURVE",
"645.487 706 QCURVE",
"780.487 706 LINE",
"774.069 749 OFFCURVE",
"777.762 838 OFFCURVE",
"786.402 887 QCURVE SMOOTH",
"841.769 1201 LINE SMOOTH",
"865.925 1338 OFFCURVE",
"731.435 1477 OFFCURVE",
"596.435 1477 QCURVE SMOOTH",
"469.435 1477 OFFCURVE",
"276.099 1356 OFFCURVE",
"259.348 1261 QCURVE SMOOTH",
"254.587 1234 LINE",
"409.587 1234 LINE",
"411.88 1247 LINE SMOOTH",
"419.814 1292 OFFCURVE",
"504.336 1346 OFFCURVE",
"575.336 1346 QCURVE SMOOTH",
"642.336 1346 OFFCURVE",
"702.993 1276 OFFCURVE",
"689.945 1202 QCURVE SMOOTH",
"629.994 862 LINE"
);
},
{
closed = 1;
nodes = (
"551.6 1149 LINE SMOOTH",
"382.6 1149 OFFCURVE",
"194.264 1028 OFFCURVE",
"174.868 918 QCURVE SMOOTH",
"156.883 816 OFFCURVE",
"262.018 692 OFFCURVE",
"381.018 692 QCURVE SMOOTH",
"482.018 692 OFFCURVE",
"629.946 788 OFFCURVE",
"660.586 837 QCURVE",
"662.334 949 LINE",
"655.634 911 OFFCURVE",
"506.941 822 OFFCURVE",
"442.941 822 QCURVE SMOOTH",
"378.941 822 OFFCURVE",
"324.991 879 OFFCURVE",
"332.573 922 QCURVE SMOOTH",
"340.861 969 OFFCURVE",
"443.733 1042 OFFCURVE",
"533.733 1042 QCURVE SMOOTH",
"690.733 1042 LINE",
"709.6 1149 LINE"
);
}
);
width = 916;
}
);
unicode = 00AA;
userData = {
com.typemytype.robofont.guideline.magnetic.3CJlALCfkl = 5;
com.typemytype.robofont.guideline.magnetic.Zdl6NZVQAy = 5;
};
changeCount = 1;
},
{
color = (0,26,255,1);
glyphname = guillemotleft;
lastChange = "2020-06-23 13:55:14 +0000";
layers = (
{
guideLines = (
{
position = "{30.871, 901}";
},
{
position = "{-30.139, 555}";
}
);
layerId = "1E68CFC6-8A63-43E3-914A-DAEC22AC2E91";
paths = (
{
closed = 1;
nodes = (
"82.446 581 LINE",
"442.334 949 LINE",
"604.334 949 LINE",
"276.156 551 LINE",
"463.978 153 LINE",
"301.978 153 LINE",
"72.043 522 LINE"
);
},
{
closed = 1;
nodes = (
"522.446 581 LINE",
"882.334 949 LINE",
"1044.334 949 LINE",
"716.156 551 LINE",
"903.978 153 LINE",
"741.978 153 LINE",
"512.043 522 LINE"
);
}
);
width = 1092;
}
);
leftKerningGroup = guillemotleft;
rightKerningGroup = guillemotleft;
unicode = 00AB;
userData = {
com.typemytype.robofont.guideline.magnetic.MVJpdoVRVd = 5;
com.typemytype.robofont.guideline.magnetic.ZftBQarVKw = 5;
};
changeCount = 1;
},
{
color = (0,26,255,1);
glyphname = logicalnot;
lastChange = "2020-06-23 13:55:14 +0000";
layers = (
{
layerId = "1E68CFC6-8A63-43E3-914A-DAEC22AC2E91";
paths = (
{
closed = 1;
nodes = (
"866.299 376 LINE",
"681.299 376 LINE",
"727.32 637 LINE",
"42.32 637 LINE",
"71.238 801 LINE",
"941.238 801 LINE"
);
}
);
width = 1024;
}
);
unicode = 00AC;
changeCount = 1;
},
{
color = (0,26,255,1);
glyphname = registered;
lastChange = "2020-06-23 13:55:14 +0000";
layers = (
{
layerId = "1E68CFC6-8A63-43E3-914A-DAEC22AC2E91";
paths = (
{
closed = 1;
nodes = (
"102 1088 OFFCURVE",
"587 1519 OFFCURVE",
"967 1519 QCURVE SMOOTH",
"1292 1519 OFFCURVE",
"1671 1039 OFFCURVE",
"1609 687 QCURVE SMOOTH",
"1538 285 OFFCURVE",
"1053 -147 OFFCURVE",
"673 -147 QCURVE SMOOTH",
"347 -147 OFFCURVE",
"-31 337 OFFCURVE",
"31 687 QCURVE SMOOTH"
);
},
{
closed = 1;
nodes = (
"129 400 OFFCURVE",
"436 4 OFFCURVE",
"701 4 QCURVE SMOOTH",
"1010 4 OFFCURVE",
"1405 358 OFFCURVE",
"1462 687 QCURVE SMOOTH",
"1513 975 OFFCURVE",
"1205 1367 OFFCURVE",
"941 1367 QCURVE SMOOTH",
"632 1367 OFFCURVE",
"237 1015 OFFCURVE",
"179 687 QCURVE SMOOTH"
);
},
{
closed = 1;
nodes = (
"641.267 597 LINE",
"575.674 225 LINE",
"410.674 225 LINE",
"575.187 1158 LINE",
"897.187 1158 LINE SMOOTH",
"1069.187 1158 OFFCURVE",
"1248.501 1018 OFFCURVE",
"1223.639 877 QCURVE SMOOTH",
"1203.714 764 OFFCURVE",
"1072.849 640 OFFCURVE",
"959.97 618 QCURVE",
"986.915 595 OFFCURVE",
"1005.567 559 OFFCURVE",
"1017.453 530 QCURVE SMOOTH",
"1135.847 243 LINE",
"1132.674 225 LINE",
"953.674 225 LINE",
"832.267 597 LINE"
);
},
{
closed = 1;
nodes = (
"713.561 1007 LINE",
"666.129 738 LINE",
"849.129 738 LINE SMOOTH",
"922.129 738 OFFCURVE",
"1028.18 795 OFFCURVE",
"1039.465 859 QCURVE SMOOTH",
"1053.747 940 OFFCURVE",
"989.385 1006 OFFCURVE",
"871.561 1007 QCURVE SMOOTH"
);
}
);
width = 1654;
}
);
leftKerningGroup = copyright;
rightKerningGroup = copyright;
unicode = 00AE;
changeCount = 1;
},
{
color = (0,26,255,1);
glyphname = macron;
lastChange = "2020-06-23 13:55:14 +0000";
layers = (
{
layerId = "1E68CFC6-8A63-43E3-914A-DAEC22AC2E91";
paths = (
{
closed = 1;
nodes = (
"923.346 1278 LINE",
"295.346 1278 LINE",
"322.148 1430 LINE",
"950.148 1430 LINE"
);
}
);
width = 1024;
}
);
unicode = 00AF;
changeCount = 1;
},
{
color = (0,26,255,1);
glyphname = degree;
lastChange = "2020-06-23 13:55:14 +0000";
layers = (
{
layerId = "1E68CFC6-8A63-43E3-914A-DAEC22AC2E91";
paths = (
{
closed = 1;
nodes = (
"236.281 1323 OFFCURVE",
"414.435 1477 OFFCURVE",
"518.435 1477 QCURVE SMOOTH",
"621.435 1477 OFFCURVE",
"742.275 1322.97 OFFCURVE",
"723.59 1217 QCURVE SMOOTH",
"704.773 1110.284 OFFCURVE",
"530.259 960 OFFCURVE",
"427.274 960 QCURVE SMOOTH",
"323.543 960 OFFCURVE",
"198.723 1110 OFFCURVE",
"217.59 1217 QCURVE"
);
},
{
closed = 1;
nodes = (
"331.852 1161.776 OFFCURVE",
"396.112 1088 OFFCURVE",
"449.844 1088 QCURVE SMOOTH",
"503.575 1088 OFFCURVE",
"589.852 1161.776 OFFCURVE",
"599.59 1217 QCURVE SMOOTH",
"609.459 1272.97 OFFCURVE",
"549.596 1349 OFFCURVE",
"495.865 1349 QCURVE SMOOTH",
"442.134 1349 OFFCURVE",
"351.459 1272.97 OFFCURVE",
"341.59 1217 QCURVE"
);
}
);
width = 765;
}
);
unicode = 00B0;
changeCount = 1;
},
{
color = (0,26,255,1);
glyphname = plusminus;
lastChange = "2020-06-23 13:55:14 +0000";
layers = (
{
layerId = "1E68CFC6-8A63-43E3-914A-DAEC22AC2E91";
paths = (
{
closed = 1;
nodes = (
"65.653 775 LINE",
"975.653 775 LINE",
"946.736 611 LINE",
"36.736 611 LINE"
);
},
{
closed = 1;
nodes = (
"498.539 1160 LINE",
"678.539 1160 LINE",
"517.729 248 LINE",
"337.729 248 LINE"
);
},
{
closed = 1;
nodes = (
"-41.906 165 LINE",
"868.094 165 LINE",
"839.176 1 LINE",
"-70.824 1 LINE"
);
}
);
width = 1024;
}
);
unicode = 00B1;
changeCount = 1;
},
{
color = (0,26,255,1);
glyphname = twosuperior;
lastChange = "2020-06-23 13:55:14 +0000";
layers = (
{
layerId = "1E68CFC6-8A63-43E3-914A-DAEC22AC2E91";
paths = (
{
closed = 1;
nodes = (
"98.943 805 LINE",
"432.965 1066 LINE SMOOTH",
"511.721 1127 OFFCURVE",
"567.414 1216 OFFCURVE",
"573.232 1249 QCURVE SMOOTH",
"581.696 1297 OFFCURVE",
"538.512 1347 OFFCURVE",
"479.512 1347 QCURVE SMOOTH",
"414.512 1347 OFFCURVE",
"330.464 1273 OFFCURVE",
"318.24 1198 QCURVE",
"150.24 1198 LINE",
"172.339 1329 OFFCURVE",
"358.198 1487 OFFCURVE",
"500.198 1487 QCURVE SMOOTH",
"634.198 1487 OFFCURVE",
"763.628 1359 OFFCURVE",
"744.585 1251 QCURVE SMOOTH",
"730.479 1171 OFFCURVE",
"612.791 1048 OFFCURVE",
"511.214 971 QCURVE SMOOTH",
"343.996 845 LINE",
"703.996 845 LINE",
"677.9 697 LINE",
"79.9 697 LINE"
);
}
);
width = 751;
}
);
unicode = 00B2;
changeCount = 1;
},
{
color = (0,26,255,1);
glyphname = threesuperior;
lastChange = "2020-06-23 13:55:14 +0000";
layers = (
{
layerId = "1E68CFC6-8A63-43E3-914A-DAEC22AC2E91";
paths = (
{
closed = 1;
nodes = (
"254.221 920 LINE",
"246.286 875 OFFCURVE",
"317.293 824 OFFCURVE",
"383.293 824 QCURVE SMOOTH",
"452.293 824 OFFCURVE",
"525.462 876 OFFCURVE",
"534.102 925 QCURVE SMOOTH",
"543.448 978 OFFCURVE",
"476.264 1028 OFFCURVE",
"403.44 1029 QCURVE SMOOTH",
"319.44 1029 LINE",
"340.952 1151 LINE",
"424.952 1151 LINE SMOOTH",
"496.952 1151 OFFCURVE",
"570.827 1207 OFFCURVE",
"579.29 1255 QCURVE SMOOTH",
"587.049 1299 OFFCURVE",
"541.865 1349 OFFCURVE",
"472.865 1349 QCURVE SMOOTH",
"415.865 1349 OFFCURVE",
"332.049 1299 OFFCURVE",
"324.467 1256 QCURVE",
"167.467 1256 LINE",
"185.276 1357 OFFCURVE",
"375.198 1487 OFFCURVE",
"494.198 1487 QCURVE SMOOTH",
"624.198 1487 OFFCURVE",
"769.921 1372 OFFCURVE",
"750.701 1263 QCURVE SMOOTH",
"741.708 1212 OFFCURVE",
"662.486 1120 OFFCURVE",
"598.607 1098 QCURVE",
"662.552 1075 OFFCURVE",
"712.329 983 OFFCURVE",
"700.692 917 QCURVE SMOOTH",
"681.296 807 OFFCURVE",
"483.96 686 OFFCURVE",
"353.96 686 QCURVE SMOOTH",
"220.96 686 OFFCURVE",
"76.414 802 OFFCURVE",
"97.221 920 QCURVE"
);
}
);
width = 751;
}
);
unicode = 00B3;
changeCount = 1;
},
{
color = (0,26,255,1);
glyphname = acute;
lastChange = "2020-06-23 13:55:14 +0000";
layers = (
{
layerId = "1E68CFC6-8A63-43E3-914A-DAEC22AC2E91";
paths = (
{
closed = 1;
nodes = (
"743 1587 LINE",
"867 1469 LINE",
"534.298 1204 LINE",
"450 1293 LINE"
);
}
);
width = 1024;
}
);
unicode = 00B4;
changeCount = 1;
},
{
glyphname = micro;
layers = (
{
layerId = "1E68CFC6-8A63-43E3-914A-DAEC22AC2E91";
paths = (
{
closed = 1;
nodes = (
"428 1052 LINE",
"296 371 LINE SMOOTH",
"271 245 OFFCURVE",
"363 136 OFFCURVE",
"467 136 QCURVE SMOOTH",
"556 136 OFFCURVE",
"711 232 OFFCURVE",
"764 308 QCURVE",
"908 1052 LINE",
"1094 1052 LINE",
"890 0 LINE",
"722 0 LINE",
"740 135 LINE",
"734 135 LINE",
"663 63 OFFCURVE",
"482 -20 OFFCURVE",
"382 -20 QCURVE SMOOTH",
"336 -20 OFFCURVE",
"261 15 OFFCURVE",
"232 42 QCURVE",
"144 -416 LINE",
"-42 -416 LINE",
"242 1052 LINE"
);
}
);
width = 1198;
}
);
unicode = 00B5;
},
{
color = (0,26,255,1);
glyphname = paragraph;
lastChange = "2020-06-23 13:55:14 +0000";
layers = (
{
guideLines = (
{
position = "{30.871, 901}";
},
{
position = "{-30.139, 555}";
}
);
layerId = "1E68CFC6-8A63-43E3-914A-DAEC22AC2E91";
paths = (
{
closed = 1;
nodes = (
"393.256 -146 LINE",
"541.724 696 LINE",
"454.724 696 LINE SMOOTH",
"259.724 696 OFFCURVE",
"88.81 912 OFFCURVE",
"117.728 1076 QCURVE SMOOTH",
"146.293 1238 OFFCURVE",
"393.732 1456 OFFCURVE",
"588.732 1456 QCURVE SMOOTH",
"861.732 1456 LINE",
"579.256 -146 LINE"
);
},
{
closed = 1;
nodes = (
"1190.261 1459 LINE",
"907.256 -146 LINE",
"721.256 -146 LINE",
"1004.261 1459 LINE"
);
}
);
width = 1261;
}
);
unicode = 00B6;
userData = {
com.typemytype.robofont.guideline.magnetic.27539Lsr1A = 5;
com.typemytype.robofont.guideline.magnetic.e34wUdCmXR = 5;
};
changeCount = 1;
},
{
color = (0,26,255,1);
glyphname = periodcentered;
lastChange = "2020-06-23 13:55:14 +0000";
layers = (
{
layerId = "1E68CFC6-8A63-43E3-914A-DAEC22AC2E91";
paths = (
{
closed = 1;
nodes = (
"188.709 798 OFFCURVE",
"265.052 868 OFFCURVE",
"325.052 868 QCURVE SMOOTH",
"385.052 868 OFFCURVE",
"436.709 798 OFFCURVE",
"428.069 749 QCURVE SMOOTH",
"419.429 700 OFFCURVE",
"343.086 630 OFFCURVE",
"283.086 630 QCURVE SMOOTH",
"223.086 630 OFFCURVE",
"171.429 700 OFFCURVE",
"180.069 749 QCURVE SMOOTH"
);
}
);
width = 600;
}
);
unicode = 00B7;
changeCount = 1;
},
{
color = (0,26,255,1);
glyphname = cedilla;
lastChange = "2020-06-23 13:55:14 +0000";
layers = (
{
layerId = "1E68CFC6-8A63-43E3-914A-DAEC22AC2E91";
paths = (
{
closed = 1;
nodes = (
"448.406 42 LINE",
"403.655 -53 LINE",
"458.891 -63 OFFCURVE",
"571.491 -139 OFFCURVE",
"556.15 -226 QCURVE SMOOTH",
"539.752 -319 OFFCURVE",
"345.298 -435 OFFCURVE",
"143.298 -435 QCURVE",
"155.165 -328 LINE",
"277.165 -328 OFFCURVE",
"364.452 -281 OFFCURVE",
"373.797 -228 QCURVE SMOOTH",
"382.437 -179 OFFCURVE",
"329.962 -142 OFFCURVE",
"247.196 -135 QCURVE",
"319.406 42 LINE"
);
}
);
width = 1024;
}
);
unicode = 00B8;
changeCount = 1;
},
{
color = (0,26,255,1);
glyphname = onesuperior;
lastChange = "2020-06-23 13:55:14 +0000";
layers = (
{
layerId = "1E68CFC6-8A63-43E3-914A-DAEC22AC2E91";
paths = (
{
closed = 1;
nodes = (
"236.568 1370 LINE",
"591.022 1486 LINE",
"635.022 1486 LINE",
"495.9 697 LINE",
"333.9 697 LINE",
"438.109 1288 LINE",
"208.532 1211 LINE"
);
}
);
width = 751;
}
);
unicode = 00B9;
changeCount = 1;
},
{
color = (0,26,255,1);
glyphname = ordmasculine;
lastChange = "2020-06-23 13:55:14 +0000";
layers = (
{
guideLines = (
{
position = "{220.246, 1975}";
}
);
layerId = "1E68CFC6-8A63-43E3-914A-DAEC22AC2E91";
paths = (
{
closed = 1;
nodes = (
"193.192 1124 LINE",
"220.346 1278 OFFCURVE",
"440.435 1477 OFFCURVE",
"597.435 1477 QCURVE SMOOTH",
"755.435 1477 OFFCURVE",
"904.346 1278 OFFCURVE",
"877.192 1124 QCURVE",
"862.909 1043 LINE",
"835.755 889 OFFCURVE",
"617.842 691 OFFCURVE",
"460.842 691 QCURVE SMOOTH",
"302.842 691 OFFCURVE",
"151.755 889 OFFCURVE",
"178.909 1043 QCURVE"
);
},
{
closed = 1;
nodes = (
"341.909 1043 LINE",
"325.863 952 OFFCURVE",
"393.351 830 OFFCURVE",
"485.351 830 QCURVE SMOOTH",
"574.351 830 OFFCURVE",
"684.863 952 OFFCURVE",
"700.909 1043 QCURVE",
"715.192 1124 LINE",
"730.885 1213 OFFCURVE",
"662.573 1336 OFFCURVE",
"572.573 1336 QCURVE SMOOTH",
"482.573 1336 OFFCURVE",
"371.885 1213 OFFCURVE",
"356.192 1124 QCURVE"
);
}
);
width = 932;
}
);
unicode = 00BA;
userData = {
com.typemytype.robofont.guideline.magnetic.Jnt0R9CyOf = 5;
};
changeCount = 1;
},
{
color = (0,26,255,1);
glyphname = guillemotright;
lastChange = "2020-06-23 13:55:14 +0000";
layers = (
{
guideLines = (
{
position = "{-110.72, 98}";
},
{
position = "{-49.887, 443}";
}
);
layerId = "1E68CFC6-8A63-43E3-914A-DAEC22AC2E91";
paths = (
{
closed = 1;
nodes = (
"314.156 551 LINE",
"126.334 949 LINE",
"288.334 949 LINE",
"518.446 581 LINE",
"508.043 522 LINE",
"147.978 153 LINE",
"-14.022 153 LINE"
);
},
{
closed = 1;
nodes = (
"754.156 551 LINE",
"566.334 949 LINE",
"728.334 949 LINE",
"958.446 581 LINE",
"948.043 522 LINE",
"587.978 153 LINE",
"425.978 153 LINE"
);
}
);
width = 1092;
}
);
leftKerningGroup = guillemotright;
rightKerningGroup = guillemotright;
unicode = 00BB;
userData = {
com.typemytype.robofont.guideline.magnetic.G9bQni2n1K = 5;
com.typemytype.robofont.guideline.magnetic.MTEldNnfdj = 5;
};
changeCount = 1;
},
{
color = (0,26,255,1);
glyphname = questiondown;
lastChange = "2020-06-23 13:55:14 +0000";
layers = (
{
guideLines = (
{
position = "{-159.915, -181}";
},
{
position = "{34.397, 921}";
}
);
layerId = "1E68CFC6-8A63-43E3-914A-DAEC22AC2E91";
paths = (
{
closed = 1;
nodes = (
"696.68 1002 OFFCURVE",
"620.337 932 OFFCURVE",
"560.337 932 QCURVE SMOOTH",
"500.337 932 OFFCURVE",
"448.68 1002 OFFCURVE",
"457.32 1051 QCURVE SMOOTH",
"465.96 1100 OFFCURVE",
"542.303 1170 OFFCURVE",
"602.303 1170 QCURVE SMOOTH",
"662.303 1170 OFFCURVE",
"713.96 1100 OFFCURVE",
"705.32 1051 QCURVE SMOOTH"
);
},
{
closed = 1;
nodes = (
"785.819 33 LINE SMOOTH",
"756.725 -132 OFFCURVE",
"502.165 -328 OFFCURVE",
"312.165 -328 QCURVE SMOOTH",
"122.165 -328 OFFCURVE",
"-55.512 -122 OFFCURVE",
"-25.536 48 QCURVE SMOOTH",
"-1.908 182 OFFCURVE",
"182.768 390 OFFCURVE",
"266.052 454 QCURVE SMOOTH",
"364.63 531 OFFCURVE",
"428.023 658 OFFCURVE",
"440.366 728 QCURVE SMOOTH",
"442.129 738 LINE",
"628.129 738 LINE",
"626.366 728 LINE SMOOTH",
"604.325 603 OFFCURVE",
"514.934 459 OFFCURVE",
"402.359 365 QCURVE SMOOTH",
"306.077 284 OFFCURVE",
"178.096 148 OFFCURVE",
"160.464 48 QCURVE SMOOTH",
"142.831 -52 OFFCURVE",
"230.73 -166 OFFCURVE",
"340.73 -166 QCURVE SMOOTH",
"450.73 -166 OFFCURVE",
"584.068 -62 OFFCURVE",
"600.819 33 QCURVE SMOOTH",
"604.345 53 LINE",
"789.345 53 LINE"
);
}
);
width = 968;
}
);
unicode = 00BF;
userData = {
com.typemytype.robofont.guideline.magnetic.5ZPZZL8Rim = 5;
com.typemytype.robofont.guideline.magnetic.apukwP5ffL = 5;
};
changeCount = 1;
},
{
color = (0,26,255,1);
glyphname = AE;
lastChange = "2020-06-23 13:55:14 +0000";
layers = (
{
layerId = "1E68CFC6-8A63-43E3-914A-DAEC22AC2E91";
paths = (
{
closed = 1;
nodes = (
"367.101 528 LINE",
"1000.101 528 LINE",
"969.243 353 LINE",
"236.243 353 LINE"
);
},
{
closed = 1;
nodes = (
"994.732 1456 LINE",
"1964.732 1456 LINE",
"1936.872 1298 LINE",
"1222.872 1298 LINE",
"1140.351 830 LINE",
"1762.351 830 LINE",
"1734.492 672 LINE",
"1112.492 672 LINE",
"1021.86 158 LINE",
"1745.86 158 LINE",
"1718 0 LINE",
"802 0 LINE",
"1020.293 1238 LINE",
"84 0 LINE",
"-143 0 LINE"
);
}
);
width = 1914;
}
);
leftKerningGroup = AE_UC;
rightKerningGroup = E_UC;
unicode = 00C6;
changeCount = 1;
},
{
color = (0,26,255,1);
glyphname = multiply;
lastChange = "2020-06-23 13:55:14 +0000";
layers = (
{
layerId = "1E68CFC6-8A63-43E3-914A-DAEC22AC2E91";
paths = (
{
closed = 1;
nodes = (
"15.538 349 LINE",
"886.665 1104 LINE",
"974.74 991 LINE",
"103.789 237 LINE"
);
},
{
closed = 1;
nodes = (
"129.8 980 LINE",
"270.665 1104 LINE",
"866.478 360 LINE",
"725.789 237 LINE"
);
}
);
width = 1024;
}
);
unicode = 00D7;
changeCount = 1;
},
{
color = (0,26,255,1);
glyphname = Thorn;
lastChange = "2020-06-23 13:55:14 +0000";
layers = (
{
guideLines = (
{
position = "{30.871, 901}";
},
{
position = "{-30.139, 555}";
}
);
layerId = "1E68CFC6-8A63-43E3-914A-DAEC22AC2E91";
paths = (
{
closed = 1;
nodes = (
"483.732 1456 LINE",
"432.068 1163 LINE",
"710.068 1163 LINE SMOOTH",
"945.068 1163 OFFCURVE",
"1156.866 935 OFFCURVE",
"1122.129 738 QCURVE SMOOTH",
"1087.393 541 OFFCURVE",
"795.367 314 OFFCURVE",
"560.367 314 QCURVE SMOOTH",
"282.367 314 LINE",
"227 0 LINE",
"42 0 LINE",
"298.732 1456 LINE"
);
},
{
closed = 1;
nodes = (
"405.443 1012 LINE",
"308.992 465 LINE",
"586.992 465 LINE SMOOTH",
"746.992 465 OFFCURVE",
"913.502 604 OFFCURVE",
"936.777 736 QCURVE SMOOTH",
"960.052 868 OFFCURVE",
"843.443 1012 OFFCURVE",
"683.443 1012 QCURVE SMOOTH"
);
}
);
width = 1170;
}
);
leftKerningGroup = StraightRight_UC;
unicode = 00DE;
userData = {
com.typemytype.robofont.guideline.magnetic.T8KKW8oxop = 5;
com.typemytype.robofont.guideline.magnetic.i9jYwjBDP4 = 5;
};
changeCount = 1;
},
{
color = (0,26,255,1);
glyphname = germandbls;
lastChange = "2020-06-23 13:55:14 +0000";
layers = (
{
layerId = "1E68CFC6-8A63-43E3-914A-DAEC22AC2E91";
paths = (
{
closed = 1;
nodes = (
"204 0 LINE",
"20 0 LINE",
"212.549 1092 LINE SMOOTH",
"248.343 1295 OFFCURVE",
"498.486 1534 OFFCURVE",
"697.486 1534 QCURVE SMOOTH",
"861.486 1534 OFFCURVE",
"1028.981 1361 OFFCURVE",
"1003.237 1215 QCURVE SMOOTH",
"987.721 1127 OFFCURVE",
"918.148 1016 OFFCURVE",
"873.566 973 QCURVE SMOOTH",
"834.866 935 OFFCURVE",
"762.465 859 OFFCURVE",
"757.351 830 QCURVE SMOOTH",
"748.888 782 OFFCURVE",
"864.079 681 OFFCURVE",
"934.146 619 QCURVE SMOOTH",
"1001.743 560 OFFCURVE",
"1082.47 411 OFFCURVE",
"1059.724 282 QCURVE SMOOTH",
"1037.683 157 OFFCURVE",
"788.473 -20 OFFCURVE",
"621.473 -20 QCURVE SMOOTH",
"457.473 -20 OFFCURVE",
"286.746 129 OFFCURVE",
"313.019 278 QCURVE SMOOTH",
"317.603 304 LINE",
"480.603 304 LINE",
"479.016 295 LINE SMOOTH",
"464.205 211 OFFCURVE",
"555.099 131 OFFCURVE",
"650.099 131 QCURVE SMOOTH",
"751.099 131 OFFCURVE",
"873.439 218 OFFCURVE",
"888.251 302 QCURVE SMOOTH",
"900.417 371 OFFCURVE",
"818.168 466 OFFCURVE",
"769.279 512 QCURVE SMOOTH",
"707.33 569 OFFCURVE",
"559.487 706 OFFCURVE",
"575.533 797 QCURVE SMOOTH",
"588.581 871 OFFCURVE",
"691.153 982 OFFCURVE",
"730.911 1026 QCURVE SMOOTH",
"766.965 1066 OFFCURVE",
"816.6 1149 OFFCURVE",
"826.298 1204 QCURVE SMOOTH",
"841.991 1293 OFFCURVE",
"748.86 1383 OFFCURVE",
"666.86 1383 QCURVE SMOOTH",
"563.86 1383 OFFCURVE",
"422.822 1241 OFFCURVE",
"396.549 1092 QCURVE {name = hr00;}"
);
}
);
width = 1186;
}
);
unicode = 00DF;
changeCount = 1;
},
{
color = (0,26,255,1);
glyphname = ae;
lastChange = "2020-06-23 13:55:14 +0000";
layers = (
{
layerId = "1E68CFC6-8A63-43E3-914A-DAEC22AC2E91";
paths = (
{
closed = 1;
nodes = (
"188.555 230 OFFCURVE",
"274.57 128 OFFCURVE",
"384.57 128 QCURVE SMOOTH",
"494.57 128 OFFCURVE",
"699.372 280 OFFCURVE",
"714.359 365 QCURVE",
"740.985 516 LINE",
"522.985 516 LINE SMOOTH",
"382.985 516 OFFCURVE",
"220.294 410 OFFCURVE",
"204.425 320 QCURVE SMOOTH"
);
},
{
closed = 1;
nodes = (
"44.874 470 OFFCURVE",
"330.26 648 OFFCURVE",
"526.26 648 QCURVE SMOOTH",
"764.26 648 LINE",
"776.955 720 LINE SMOOTH",
"793.706 815 OFFCURVE",
"716.689 934 OFFCURVE",
"596.689 934 QCURVE SMOOTH",
"476.689 934 OFFCURVE",
"356.233 835 OFFCURVE",
"344.772 770 QCURVE SMOOTH",
"343.89 765 LINE",
"158.89 765 LINE",
"159.772 770 LINE SMOOTH",
"181.813 895 OFFCURVE",
"437.786 1082 OFFCURVE",
"627.786 1082 QCURVE SMOOTH",
"791.786 1082 OFFCURVE",
"940.334 949 OFFCURVE",
"936.757 872 QCURVE",
"970.511 950 OFFCURVE",
"1161.786 1082 OFFCURVE",
"1307.786 1082 QCURVE SMOOTH",
"1522.786 1082 OFFCURVE",
"1705.062 800 OFFCURVE",
"1662.743 560 QCURVE SMOOTH",
"1649.342 484 LINE",
"840.342 484 LINE",
"866.439 632 LINE",
"1487.439 632 LINE",
"1492.671 656 LINE",
"1511.772 770 OFFCURVE",
"1410.984 930 OFFCURVE",
"1277.984 930 QCURVE SMOOTH",
"1140.984 930 OFFCURVE",
"955.311 705 OFFCURVE",
"926.569 542 QCURVE SMOOTH",
"920.927 510 LINE SMOOTH",
"892.185 347 OFFCURVE",
"1006.512 122 OFFCURVE",
"1168.512 122 QCURVE SMOOTH",
"1268.512 122 OFFCURVE",
"1428.029 210 OFFCURVE",
"1483.608 270 QCURVE",
"1586.857 175 LINE",
"1523.633 100 OFFCURVE",
"1291.71 -30 OFFCURVE",
"1141.71 -30 QCURVE SMOOTH",
"995.71 -30 OFFCURVE",
"784.869 90 OFFCURVE",
"752.558 213 QCURVE",
"691.456 99 OFFCURVE",
"470.473 -20 OFFCURVE",
"318.473 -20 QCURVE SMOOTH",
"168.473 -20 OFFCURVE",
"-11.551 150 OFFCURVE",
"14.898 300 QCURVE SMOOTH"
);
}
);
width = 1748;
}
);
leftKerningGroup = a_LC;
rightKerningGroup = e_LC;
unicode = 00E6;
changeCount = 1;
},
{
color = (0,26,255,1);
glyphname = eth;
lastChange = "2020-06-23 13:55:14 +0000";
layers = (
{
layerId = "1E68CFC6-8A63-43E3-914A-DAEC22AC2E91";
paths = (
{
closed = 1;
nodes = (
"421.773 1581 LINE",
"745.548 1506 OFFCURVE",
"1078.738 1008 OFFCURVE",
"1012.615 633 QCURVE",
"995.335 535 LINE",
"951.958 289 OFFCURVE",
"631.473 -20 OFFCURVE",
"429.473 -20 QCURVE SMOOTH",
"219.473 -20 OFFCURVE",
"3.727 265 OFFCURVE",
"39.521 468 QCURVE SMOOTH",
"80.076 698 OFFCURVE",
"384.448 978 OFFCURVE",
"577.448 978 QCURVE SMOOTH",
"746.448 978 OFFCURVE",
"936.893 748 OFFCURVE",
"913.088 613 QCURVE",
"844.265 614 LINE",
"855.902 680 OFFCURVE",
"737.646 826 OFFCURVE",
"594.646 826 QCURVE SMOOTH",
"448.646 826 OFFCURVE",
"254.439 632 OFFCURVE",
"225.521 468 QCURVE SMOOTH",
"203.833 345 OFFCURVE",
"319.275 132 OFFCURVE",
"460.275 132 QCURVE SMOOTH",
"588.275 132 OFFCURVE",
"779.007 363 OFFCURVE",
"809.335 535 QCURVE SMOOTH",
"826.968 635 LINE SMOOTH",
"888.506 984 OFFCURVE",
"578.923 1355 OFFCURVE",
"336.561 1421 QCURVE"
);
},
{
closed = 1;
nodes = (
"459.083 1061 LINE",
"397.242 1181 LINE",
"998.602 1546 LINE",
"1060.619 1427 LINE"
);
}
);
width = 1114;
}
);
unicode = 00F0;
changeCount = 1;
},
{
color = (0,26,255,1);
glyphname = divide;
lastChange = "2020-06-23 13:55:14 +0000";
layers = (
{
layerId = "1E68CFC6-8A63-43E3-914A-DAEC22AC2E91";
paths = (
{
closed = 1;
nodes = (
"455.134 1118 OFFCURVE",
"530.476 1188 OFFCURVE",
"592.476 1188 QCURVE SMOOTH",
"653.476 1188 OFFCURVE",
"706.134 1118 OFFCURVE",
"696.788 1065 QCURVE SMOOTH",
"687.796 1014 OFFCURVE",
"610.629 945 OFFCURVE",
"549.629 945 QCURVE SMOOTH",
"487.629 945 OFFCURVE",
"436.796 1014 OFFCURVE",
"445.788 1065 QCURVE SMOOTH"
);
},
{
closed = 1;
nodes = (
"317.951 340 OFFCURVE",
"393.47 411 OFFCURVE",
"455.47 411 QCURVE SMOOTH",
"516.47 411 OFFCURVE",
"568.951 340 OFFCURVE",
"559.782 288 QCURVE SMOOTH",
"550.789 237 OFFCURVE",
"473.447 167 OFFCURVE",
"412.447 167 QCURVE SMOOTH",
"350.447 167 OFFCURVE",
"299.789 237 OFFCURVE",
"308.782 288 QCURVE SMOOTH"
);
},
{
closed = 1;
nodes = (
"64.419 768 LINE",
"974.419 768 LINE",
"942.68 588 LINE",
"32.68 588 LINE"
);
}
);
width = 1024;
}
);
unicode = 00F7;
changeCount = 1;
},
{
color = (0,26,255,1);
glyphname = thorn;
lastChange = "2020-06-23 13:55:14 +0000";
layers = (
{
layerId = "1E68CFC6-8A63-43E3-914A-DAEC22AC2E91";
paths = (
{
closed = 1;
nodes = (
"290.838 1536 LINE",
"476.838 1536 LINE",
"369.631 928 LINE",
"427.093 993 OFFCURVE",
"596.023 1072 OFFCURVE",
"706.023 1072 QCURVE SMOOTH",
"906.023 1072 OFFCURVE",
"1093.124 772 OFFCURVE",
"1052.569 542 QCURVE SMOOTH",
"1046.927 510 LINE SMOOTH",
"1006.372 280 OFFCURVE",
"713.473 -20 OFFCURVE",
"513.473 -20 QCURVE SMOOTH",
"403.473 -20 OFFCURVE",
"267.051 57 OFFCURVE",
"237.63 117 QCURVE",
"233.63 117 LINE",
"131.648 -416 LINE",
"-53.352 -416 LINE"
);
},
{
closed = 1;
nodes = (
"279.671 242 OFFCURVE",
"400.275 132 OFFCURVE",
"500.275 132 QCURVE SMOOTH",
"650.275 132 OFFCURVE",
"828.714 350 OFFCURVE",
"856.927 510 QCURVE SMOOTH",
"862.569 542 LINE SMOOTH",
"890.782 702 OFFCURVE",
"789.221 920 OFFCURVE",
"639.221 920 QCURVE SMOOTH",
"539.221 920 OFFCURVE",
"379.825 810 OFFCURVE",
"336.482 740 QCURVE",
"261.014 312 LINE"
);
}
);
width = 1170;
}
);
rightKerningGroup = b_LC;
unicode = 00FE;
changeCount = 1;
},
{
color = (0,26,255,1);
glyphname = kgreenlandic;
lastChange = "2020-06-23 13:55:14 +0000";
layers = (
{
layerId = "1E68CFC6-8A63-43E3-914A-DAEC22AC2E91";
paths = (
{
closed = 1;
nodes = (
"212 0 LINE",
"27 0 LINE",
"217.786 1082 LINE",
"402.786 1082 LINE"
);
},
{
closed = 1;
nodes = (
"470.463 462 LINE",
"203.463 462 LINE",
"232.028 624 LINE",
"414.028 624 LINE",
"890.786 1082 LINE",
"1114.786 1082 LINE"
);
},
{
closed = 1;
nodes = (
"381.4 490 LINE",
"524.028 624 LINE",
"960 0 LINE",
"726 0 LINE"
);
}
);
width = 1072;
}
);
leftKerningGroup = mnpr_LC;
rightKerningGroup = k_LC;
unicode = 0138;
changeCount = 1;
},
{
color = (0,26,255,1);
glyphname = OE;
lastChange = "2020-06-23 13:55:14 +0000";
layers = (
{
layerId = "1E68CFC6-8A63-43E3-914A-DAEC22AC2E91";
paths = (
{
closed = 1;
nodes = (
"878.435 1477 OFFCURVE",
"1027.143 1464 OFFCURVE",
"1092.732 1456 QCURVE",
"1929.732 1456 LINE",
"1901.872 1298 LINE",
"1179.872 1298 LINE",
"1097.351 830 LINE",
"1727.351 830 LINE",
"1699.668 673 LINE",
"1069.668 673 LINE",
"978.683 157 LINE",
"1710.683 157 LINE",
"1683 0 LINE",
"836 0 LINE",
"767.766 -7 OFFCURVE",
"616.297 -21 OFFCURVE",
"540.297 -21 QCURVE SMOOTH",
"326.297 -21 OFFCURVE",
"46.951 340 OFFCURVE",
"107.255 682 QCURVE SMOOTH",
"123.124 772 LINE SMOOTH",
"181.841 1105 OFFCURVE",
"587.435 1477 OFFCURVE",
"845.435 1477 QCURVE SMOOTH"
);
},
{
closed = 1;
nodes = (
"255.705 418 OFFCURVE",
"437.57 128 OFFCURVE",
"609.57 128 QCURVE SMOOTH",
"662.57 128 OFFCURVE",
"744.157 137 OFFCURVE",
"783.215 143 QCURVE",
"988.988 1310 LINE",
"938.223 1317 OFFCURVE",
"844.633 1325 OFFCURVE",
"822.633 1325 QCURVE SMOOTH",
"645.633 1325 OFFCURVE",
"363.617 1030 OFFCURVE",
"318.477 774 QCURVE SMOOTH",
"302.255 682 LINE SMOOTH"
);
}
);
width = 1879;
}
);
leftKerningGroup = CG_UC;
rightKerningGroup = E_UC;
unicode = 0152;
changeCount = 1;
},
{
color = (0,26,255,1);
glyphname = oe;
lastChange = "2020-06-23 13:55:14 +0000";
layers = (
{
layerId = "1E68CFC6-8A63-43E3-914A-DAEC22AC2E91";
paths = (
{
closed = 1;
nodes = (
"236.927 510 LINE SMOOTH",
"208.185 347 OFFCURVE",
"322.512 122 OFFCURVE",
"474.512 122 QCURVE SMOOTH",
"626.512 122 OFFCURVE",
"820.009 346 OFFCURVE",
"848.927 510 QCURVE SMOOTH",
"854.569 542 LINE SMOOTH",
"883.487 706 OFFCURVE",
"768.984 930 OFFCURVE",
"616.984 930 QCURVE SMOOTH",
"464.984 930 OFFCURVE",
"271.311 705 OFFCURVE",
"242.569 542 QCURVE SMOOTH"
);
},
{
closed = 1;
nodes = (
"1032.279 926 OFFCURVE",
"1274.786 1082 OFFCURVE",
"1452.786 1082 QCURVE SMOOTH",
"1639.786 1082 OFFCURVE",
"1822.062 800 OFFCURVE",
"1779.743 560 QCURVE SMOOTH",
"1766.342 484 LINE",
"957.342 484 LINE",
"983.439 632 LINE",
"1604.439 632 LINE",
"1609.671 656 LINE",
"1628.772 770 OFFCURVE",
"1527.984 930 OFFCURVE",
"1405.984 930 QCURVE SMOOTH",
"1257.984 930 OFFCURVE",
"1072.487 706 OFFCURVE",
"1043.569 542 QCURVE SMOOTH",
"1037.927 510 LINE SMOOTH",
"1009.009 346 OFFCURVE",
"1113.512 122 OFFCURVE",
"1275.512 122 QCURVE SMOOTH",
"1375.512 122 OFFCURVE",
"1545.029 210 OFFCURVE",
"1600.608 270 QCURVE",
"1703.857 175 LINE",
"1640.633 100 OFFCURVE",
"1408.71 -30 OFFCURVE",
"1279.71 -30 QCURVE SMOOTH",
"1082.71 -30 OFFCURVE",
"900.396 110 OFFCURVE",
"883.62 185 QCURVE",
"840.572 111 OFFCURVE",
"612.71 -30 OFFCURVE",
"417.71 -30 QCURVE SMOOTH",
"221.71 -30 OFFCURVE",
"4.961 272 OFFCURVE",
"46.927 510 QCURVE SMOOTH",
"52.569 542 LINE SMOOTH",
"94.535 780 OFFCURVE",
"416.609 1081 OFFCURVE",
"631.609 1081 QCURVE SMOOTH",
"817.609 1081 OFFCURVE",
"991.397 921 OFFCURVE",
"1001.699 866 QCURVE"
);
}
);
width = 1861;
}
);
leftKerningGroup = alpha;
rightKerningGroup = e_LC;
unicode = 0153;
changeCount = 1;
},
{
color = (0,26,255,1);
glyphname = Schwa;
lastChange = "2020-06-23 13:55:14 +0000";
layers = (
{
layerId = "1E68CFC6-8A63-43E3-914A-DAEC22AC2E91";
paths = (
{
closed = 1;
nodes = (
"273.099 1356 OFFCURVE",
"591.841 1519 OFFCURVE",
"808.841 1519 QCURVE SMOOTH",
"1141.841 1519 OFFCURVE",
"1430.902 1094 OFFCURVE",
"1377.122 789 QCURVE SMOOTH",
"1316.465 445 OFFCURVE",
"848.71 -30 OFFCURVE",
"558.71 -30 QCURVE SMOOTH",
"282.71 -30 OFFCURVE",
"23.548 281 OFFCURVE",
"75.917 578 QCURVE SMOOTH",
"94.96 686 LINE",
"1220.96 686 LINE",
"1197.685 554 LINE",
"636.096 562 LINE",
"268.038 556 LINE",
"254.813 481 LINE SMOOTH",
"225.543 315 OFFCURVE",
"392.104 97 OFFCURVE",
"591.104 97 QCURVE SMOOTH",
"801.104 97 OFFCURVE",
"1130.463 462 OFFCURVE",
"1179.069 749 QCURVE SMOOTH",
"1229.614 1047 OFFCURVE",
"974.45 1375 OFFCURVE",
"765.45 1375 QCURVE SMOOTH",
"583.45 1375 OFFCURVE",
"307.587 1234 OFFCURVE",
"227.544 1126 QCURVE",
"147.416 1199 LINE"
);
}
);
width = 1446;
}
);
rightKerningGroup = D_UC;
unicode = 018F;
changeCount = 1;
},
{
color = (0,26,255,1);
glyphname = florin;
lastChange = "2020-06-23 13:55:14 +0000";
layers = (
{
layerId = "1E68CFC6-8A63-43E3-914A-DAEC22AC2E91";
paths = (
{
closed = 1;
nodes = (
"870.482 740 LINE",
"557.482 740 LINE",
"446.572 111 LINE SMOOTH",
"396.495 -173 OFFCURVE",
"143.945 -437 OFFCURVE",
"-102.055 -437 QCURVE SMOOTH",
"-133.055 -437 OFFCURVE",
"-184.821 -430 OFFCURVE",
"-211.057 -420 QCURVE",
"-170.785 -271 LINE",
"-156.843 -277 OFFCURVE",
"-89.077 -284 OFFCURVE",
"-75.077 -284 QCURVE SMOOTH",
"45.923 -284 OFFCURVE",
"220.488 -122 OFFCURVE",
"261.572 111 QCURVE SMOOTH",
"372.482 740 LINE",
"131.482 740 LINE",
"156.52 882 LINE",
"397.52 882 LINE",
"440.544 1126 LINE SMOOTH",
"471.401 1301 OFFCURVE",
"685.198 1487 OFFCURVE",
"842.198 1487 QCURVE SMOOTH",
"928.198 1487 OFFCURVE",
"1047.853 1434 OFFCURVE",
"1082.563 1404 QCURVE",
"975.996 1259 LINE",
"942.462 1290 OFFCURVE",
"863.752 1320 OFFCURVE",
"816.752 1320 QCURVE SMOOTH",
"746.752 1320 OFFCURVE",
"642.824 1224 OFFCURVE",
"625.544 1126 QCURVE SMOOTH",
"582.52 882 LINE",
"895.52 882 LINE"
);
}
);
width = 1024;
}
);
unicode = 0192;
changeCount = 1;
},
{
color = (0,26,255,1);
glyphname = schwa;
lastChange = "2020-06-23 13:55:14 +0000";
layers = (
{
layerId = "1E68CFC6-8A63-43E3-914A-DAEC22AC2E91";
paths = (
{
closed = 1;
nodes = (
"936.927 510 LINE SMOOTH",
"894.961 272 OFFCURVE",
"580.71 -30 OFFCURVE",
"365.71 -30 QCURVE SMOOTH",
"150.71 -30 OFFCURVE",
"-31.566 252 OFFCURVE",
"10.753 492 QCURVE SMOOTH",
"24.154 568 LINE",
"833.154 568 LINE",
"807.057 420 LINE",
"186.057 420 LINE",
"180.825 396 LINE",
"161.724 282 OFFCURVE",
"262.512 122 OFFCURVE",
"384.512 122 QCURVE SMOOTH",
"532.512 122 OFFCURVE",
"718.185 347 OFFCURVE",
"746.927 510 QCURVE SMOOTH",
"752.569 542 LINE SMOOTH",
"781.311 705 OFFCURVE",
"666.984 930 OFFCURVE",
"504.984 930 QCURVE SMOOTH",
"404.984 930 OFFCURVE",
"245.467 842 OFFCURVE",
"189.888 782 QCURVE",
"86.639 877 LINE",
"149.863 952 OFFCURVE",
"381.786 1082 OFFCURVE",
"531.786 1082 QCURVE SMOOTH",
"776.786 1082 OFFCURVE",
"984.535 780 OFFCURVE",
"942.569 542 QCURVE SMOOTH"
);
}
);
width = 1060;
}
);
rightKerningGroup = o_LC;
unicode = 0259;
changeCount = 1;
},
{
color = (0,26,255,1);
glyphname = primemod;
lastChange = "2020-06-23 13:55:14 +0000";
layers = (
{
layerId = "1E68CFC6-8A63-43E3-914A-DAEC22AC2E91";
paths = (
{
closed = 1;
nodes = (
"549.843 1502 LINE",
"340.74 991 LINE",
"219.622 996 LINE",
"360.843 1502 LINE"
);
}
);
width = 600;
}
);
unicode = 02B9;
changeCount = 1;
},
{
color = (0,26,255,1);
glyphname = doubleprimemod;
lastChange = "2020-06-23 13:55:14 +0000";
layers = (
{
layerId = "1E68CFC6-8A63-43E3-914A-DAEC22AC2E91";
paths = (
{
closed = 1;
nodes = (
"549.843 1502 LINE",
"344.032 1004 LINE",
"222.914 1009 LINE",
"360.843 1502 LINE"
);
},
{
closed = 1;
nodes = (
"849.843 1502 LINE",
"644.032 1004 LINE",
"522.914 1009 LINE",
"660.843 1502 LINE"
);
}
);
width = 788;
}
);
unicode = 02BA;
changeCount = 1;
},
{
color = (0,26,255,1);
glyphname = apostrophemod;
lastChange = "2020-06-23 13:55:14 +0000";
layers = (
{
layerId = "1E68CFC6-8A63-43E3-914A-DAEC22AC2E91";
paths = (
{
closed = 1;
nodes = (
"259.549 1092 OFFCURVE",
"384.356 1210 OFFCURVE",
"411.17 1277 QCURVE",
"340.17 1277 OFFCURVE",
"273.394 1352 OFFCURVE",
"283.797 1411 QCURVE SMOOTH",
"294.024 1469 OFFCURVE",
"388.602 1546 OFFCURVE",
"451.602 1546 QCURVE SMOOTH",
"510.602 1546 OFFCURVE",
"589.674 1450 OFFCURVE",
"576.097 1373 QCURVE SMOOTH",
"554.585 1251 OFFCURVE",
"362.436 1063 OFFCURVE",
"248.619 1013 QCURVE",
"214.259 1062 LINE"
);
}
);
width = 600;
}
);
leftKerningGroup = minute;
rightKerningGroup = minute;
unicode = 02BC;
changeCount = 1;
},
{
color = (0,26,255,1);
glyphname = circumflex;
lastChange = "2020-06-23 13:55:14 +0000";
layers = (
{
layerId = "1E68CFC6-8A63-43E3-914A-DAEC22AC2E91";
paths = (
{
closed = 1;
nodes = (
"900.121 1203 LINE",
"751 1203 LINE",
"629 1362 LINE",
"452 1203 LINE",
"295.121 1203 LINE",
"595.312 1516 LINE",
"707.312 1516 LINE"
);
}
);
width = 1024;
}
);
unicode = 02C6;
changeCount = 1;
},
{
color = (0,26,255,1);
glyphname = caron;
lastChange = "2020-06-23 13:55:14 +0000";
layers = (
{
layerId = "1E68CFC6-8A63-43E3-914A-DAEC22AC2E91";
paths = (
{
closed = 1;
nodes = (
"346.785 1496 LINE",
"500.785 1496 LINE",
"622.749 1337 LINE",
"799.785 1496 LINE",
"951.785 1496 LINE",
"651.595 1183 LINE",
"539.595 1183 LINE"
);
}
);
width = 1024;
}
);
unicode = 02C7;
changeCount = 1;
},
{
color = (0,26,255,1);
glyphname = breve;
lastChange = "2020-06-23 13:55:14 +0000";
layers = (
{
layerId = "1E68CFC6-8A63-43E3-914A-DAEC22AC2E91";
paths = (
{
closed = 1;
nodes = (
"979.143 1464 LINE",
"926.686 1365 OFFCURVE",
"722.24 1198 OFFCURVE",
"596.24 1198 QCURVE SMOOTH",
"483.24 1198 OFFCURVE",
"329.218 1351 OFFCURVE",
"307.319 1465 QCURVE",
"420.664 1518 LINE",
"445.614 1461 OFFCURVE",
"547.157 1362 OFFCURVE",
"626.157 1362 QCURVE SMOOTH",
"710.157 1362 OFFCURVE",
"846.908 1457 OFFCURVE",
"893.664 1518 QCURVE"
);
}
);
width = 1022;
}
);
unicode = 02D8;
changeCount = 1;
},
{
color = (0,26,255,1);
glyphname = dotaccent;
lastChange = "2020-06-23 13:55:14 +0000";
layers = (
{
layerId = "1E68CFC6-8A63-43E3-914A-DAEC22AC2E91";
paths = (
{
closed = 1;
nodes = (
"508.213 1385 OFFCURVE",
"586.908 1457 OFFCURVE",
"640.908 1457 QCURVE SMOOTH",
"693.908 1457 OFFCURVE",
"748.213 1385 OFFCURVE",
"740.454 1341 QCURVE SMOOTH",
"732.696 1297 OFFCURVE",
"653.177 1226 OFFCURVE",
"600.177 1226 QCURVE SMOOTH",
"546.177 1226 OFFCURVE",
"492.696 1297 OFFCURVE",
"500.454 1341 QCURVE SMOOTH"
);
}
);
width = 1024;
}
);
unicode = 02D9;
changeCount = 1;
},
{
color = (0,26,255,1);
glyphname = ring;
lastChange = "2020-06-23 13:55:14 +0000";
layers = (
{
layerId = "1E68CFC6-8A63-43E3-914A-DAEC22AC2E91";
paths = (
{
closed = 1;
nodes = (
"418.788 1479 OFFCURVE",
"571.357 1607 OFFCURVE",
"667.357 1607 QCURVE SMOOTH",
"761.357 1607 OFFCURVE",
"870.788 1479 OFFCURVE",
"854.918 1389 QCURVE SMOOTH",
"838.872 1298 OFFCURVE",
"685.184 1175 OFFCURVE",
"591.184 1175 QCURVE SMOOTH",
"495.184 1175 OFFCURVE",
"386.872 1298 OFFCURVE",
"402.918 1389 QCURVE"
);
},
{
closed = 1;
nodes = (
"505.16 1345 OFFCURVE",
"557.641 1274 OFFCURVE",
"608.641 1274 QCURVE SMOOTH",
"659.641 1274 OFFCURVE",
"736.807 1343 OFFCURVE",
"744.918 1389 QCURVE SMOOTH",
"753.029 1435 OFFCURVE",
"700.725 1507 OFFCURVE",
"649.725 1507 QCURVE SMOOTH",
"598.725 1507 OFFCURVE",
"521.029 1435 OFFCURVE",
"512.918 1389 QCURVE"
);
}
);
width = 1024;
}
);
unicode = 02DA;
changeCount = 1;
},
{
color = (0,26,255,1);
glyphname = ogonek;
lastChange = "2020-06-23 13:55:14 +0000";
layers = (
{
layerId = "1E68CFC6-8A63-43E3-914A-DAEC22AC2E91";
paths = (
{
closed = 1;
nodes = (
"479 0 LINE",
"406.536 -48 OFFCURVE",
"280.317 -157 OFFCURVE",
"268.855 -222 QCURVE SMOOTH",
"263.037 -255 OFFCURVE",
"290.984 -295 OFFCURVE",
"333.984 -295 QCURVE SMOOTH",
"366.984 -295 OFFCURVE",
"422.334 -276 OFFCURVE",
"438.744 -268 QCURVE",
"431.232 -390 LINE",
"403.588 -405 OFFCURVE",
"321.474 -434 OFFCURVE",
"262.474 -434 QCURVE SMOOTH",
"181.474 -434 OFFCURVE",
"87.754 -336 OFFCURVE",
"104.153 -243 QCURVE SMOOTH",
"118.259 -163 OFFCURVE",
"267.942 -6 OFFCURVE",
"415.051 57 QCURVE"
);
}
);
width = 1024;
}
);
unicode = 02DB;
changeCount = 1;
},
{
color = (0,26,255,1);
glyphname = tilde;
lastChange = "2020-06-23 13:55:14 +0000";
layers = (
{
layerId = "1E68CFC6-8A63-43E3-914A-DAEC22AC2E91";
paths = (
{
closed = 1;
nodes = (
"300.628 1359 OFFCURVE",
"455.908 1457 OFFCURVE",
"522.908 1457 QCURVE SMOOTH",
"563.908 1457 OFFCURVE",
"634.5 1432 OFFCURVE",
"667.268 1408 QCURVE SMOOTH",
"697.389 1386 OFFCURVE",
"767.631 1342 OFFCURVE",
"805.631 1342 QCURVE SMOOTH",
"845.631 1342 OFFCURVE",
"924.976 1395 OFFCURVE",
"954.324 1431 QCURVE",
"1018.044 1333 LINE",
"967.525 1262 OFFCURVE",
"821.829 1190 OFFCURVE",
"764.829 1190 QCURVE SMOOTH",
"715.829 1190 OFFCURVE",
"629.411 1233 OFFCURVE",
"601.409 1250 QCURVE SMOOTH",
"570.759 1269 OFFCURVE",
"508.754 1303 OFFCURVE",
"479.754 1303 QCURVE SMOOTH",
"432.754 1303 OFFCURVE",
"339.059 1231 OFFCURVE",
"316.298 1204 QCURVE",
"256.52 1296 LINE"
);
}
);
width = 1024;
}
);
unicode = 02DC;
changeCount = 1;
},
{
color = (0,26,255,1);
glyphname = hungarumlaut;
lastChange = "2020-06-23 13:55:14 +0000";
layers = (
{
layerId = "1E68CFC6-8A63-43E3-914A-DAEC22AC2E91";
paths = (
{
closed = 1;
nodes = (
"707.302 1584 LINE",
"831.788 1479 LINE",
"484.298 1204 LINE",
"414.462 1290 LINE"
);
},
{
closed = 1;
nodes = (
"1017.302 1584 LINE",
"1141.788 1479 LINE",
"794.298 1204 LINE",
"724.462 1290 LINE"
);
}
);
width = 1024;
}
);
unicode = 02DD;
changeCount = 1;
},
{
color = (0,26,255,1);
glyphname = hookabovecomb;
lastChange = "2020-06-23 13:55:14 +0000";
layers = (
{
layerId = "1E68CFC6-8A63-43E3-914A-DAEC22AC2E91";
paths = (
{
closed = 1;
nodes = (
"535.124 1186 LINE SMOOTH",
"544.293 1238 OFFCURVE",
"615.636 1308 OFFCURVE",
"693.575 1319 QCURVE SMOOTH",
"750.986 1327 OFFCURVE",
"796.628 1359 OFFCURVE",
"803.858 1400 QCURVE SMOOTH",
"810.734 1439 OFFCURVE",
"758.082 1475 OFFCURVE",
"704.082 1475 QCURVE SMOOTH",
"640.082 1475 OFFCURVE",
"522.263 1442 OFFCURVE",
"510.853 1434 QCURVE",
"478.894 1559 LINE",
"517.244 1578 OFFCURVE",
"678.473 1619 OFFCURVE",
"760.473 1619 QCURVE SMOOTH",
"880.473 1619 OFFCURVE",
"985.372 1505 OFFCURVE",
"968.445 1409 QCURVE SMOOTH",
"950.636 1308 OFFCURVE",
"801.653 1189 OFFCURVE",
"656.713 1178 QCURVE",
"651.247 1147 LINE",
"528.247 1147 LINE"
);
}
);
width = 1024;
}
);
unicode = 0309;
changeCount = 1;
},
{
color = (0,26,255,1);
glyphname = breveinvertedcomb;
lastChange = "2020-06-23 13:55:14 +0000";
layers = (
{
layerId = "1E68CFC6-8A63-43E3-914A-DAEC22AC2E91";
paths = (
{
closed = 1;
nodes = (
"269.761 1252 LINE",
"322.218 1351 OFFCURVE",
"526.664 1518 OFFCURVE",
"652.664 1518 QCURVE SMOOTH",
"765.664 1518 OFFCURVE",
"919.686 1365 OFFCURVE",
"941.585 1251 QCURVE",
"828.24 1198 LINE",
"803.29 1255 OFFCURVE",
"701.747 1354 OFFCURVE",
"622.747 1354 QCURVE SMOOTH",
"538.747 1354 OFFCURVE",
"401.996 1259 OFFCURVE",
"355.24 1198 QCURVE"
);
}
);
width = 1024;
}
);
unicode = 030F;
changeCount = 1;
},
{
color = (0,26,255,1);
glyphname = horncomb;
lastChange = "2020-06-23 13:55:14 +0000";
layers = (
{
layerId = "1E68CFC6-8A63-43E3-914A-DAEC22AC2E91";
paths = (
{
closed = 1;
nodes = (
"131.974 998 LINE SMOOTH",
"179.974 998 OFFCURVE",
"257.969 1032 OFFCURVE",
"267.138 1084 QCURVE SMOOTH",
"275.249 1130 OFFCURVE",
"275.121 1203 OFFCURVE",
"271.469 1239 QCURVE",
"417.469 1239 LINE",
"431.65 1206 OFFCURVE",
"446.489 1103 OFFCURVE",
"435.204 1039 QCURVE SMOOTH",
"419.687 951 OFFCURVE",
"264.699 866 OFFCURVE",
"168.699 866 QCURVE SMOOTH",
"122.699 866 OFFCURVE",
"52.815 878 OFFCURVE",
"28.402 887 QCURVE",
"47.974 998 LINE"
);
}
);
width = 1024;
}
);
unicode = 031B;
changeCount = 1;
},
{
color = (0,26,255,1);
glyphname = dotbelowcomb;
lastChange = "2020-06-23 13:55:14 +0000";
layers = (
{
layerId = "1E68CFC6-8A63-43E3-914A-DAEC22AC2E91";
paths = (
{
closed = 1;
nodes = (
"226.503 -224 OFFCURVE",
"297.082 -164 OFFCURVE",
"355.082 -164 QCURVE SMOOTH",
"409.082 -164 OFFCURVE",
"461.797 -228 OFFCURVE",
"452.805 -279 QCURVE SMOOTH",
"442.93 -335 OFFCURVE",
"372.351 -395 OFFCURVE",
"314.351 -395 QCURVE SMOOTH",
"260.351 -395 OFFCURVE",
"207.636 -331 OFFCURVE",
"216.805 -279 QCURVE SMOOTH"
);
}
);
width = 1024;
}
);
unicode = 0323;
changeCount = 1;
},
{
color = (0,26,255,1);
glyphname = dieresisbelowcomb;
lastChange = "2020-06-23 13:55:14 +0000";
layers = (
{
layerId = "1E68CFC6-8A63-43E3-914A-DAEC22AC2E91";
paths = (
{
closed = 1;
nodes = (
"-10.137 -273 OFFCURVE",
"60.266 -214 OFFCURVE",
"116.266 -214 QCURVE SMOOTH",
"169.266 -214 OFFCURVE",
"221.157 -277 OFFCURVE",
"212.165 -328 QCURVE SMOOTH",
"202.643 -382 OFFCURVE",
"133.24 -441 OFFCURVE",
"76.24 -441 QCURVE SMOOTH",
"23.24 -441 OFFCURVE",
"-28.828 -379 OFFCURVE",
"-19.835 -328 QCURVE SMOOTH"
);
},
{
closed = 1;
nodes = (
"449.863 -273 OFFCURVE",
"520.266 -214 OFFCURVE",
"576.266 -214 QCURVE SMOOTH",
"629.266 -214 OFFCURVE",
"681.157 -277 OFFCURVE",
"672.165 -328 QCURVE SMOOTH",
"662.643 -382 OFFCURVE",
"593.24 -441 OFFCURVE",
"536.24 -441 QCURVE SMOOTH",
"483.24 -441 OFFCURVE",
"431.172 -379 OFFCURVE",
"440.165 -328 QCURVE SMOOTH"
);
}
);
width = 1024;
}
);
unicode = 0324;
changeCount = 1;
},
{
color = (0,26,255,1);
glyphname = commaaccentcomb;
lastChange = "2020-06-23 13:55:14 +0000";
layers = (
{
layerId = "1E68CFC6-8A63-43E3-914A-DAEC22AC2E91";
paths = (
{
closed = 1;
nodes = (
"201.237 -424 OFFCURVE",
"261.923 -284 OFFCURVE",
"307.493 -156 QCURVE",
"509.846 -154 LINE",
"316.37 -531 LINE",
"153.899 -528 LINE"
);
}
);
width = 1024;
}
);
unicode = 0326;
changeCount = 1;
},
{
color = (0,26,255,1);
glyphname = brevebelowcomb;
lastChange = "2020-06-23 13:55:14 +0000";
layers = (
{
layerId = "1E68CFC6-8A63-43E3-914A-DAEC22AC2E91";
paths = (
{
closed = 1;
nodes = (
"733.264 -197 LINE",
"676.807 -296 OFFCURVE",
"446.361 -463 OFFCURVE",
"302.361 -463 QCURVE SMOOTH",
"174.361 -463 OFFCURVE",
"-5.661 -310 OFFCURVE",
"-33.56 -196 QCURVE",
"78.606 -127 LINE",
"110.498 -190 OFFCURVE",
"237.16 -294 OFFCURVE",
"332.16 -294 QCURVE SMOOTH",
"434.16 -294 OFFCURVE",
"597.616 -195 OFFCURVE",
"652.606 -127 QCURVE"
);
}
);
width = 1024;
}
);
unicode = 032E;
changeCount = 1;
},
{
color = (0,26,255,1);
glyphname = macronbelowcomb;
lastChange = "2020-06-23 13:55:14 +0000";
layers = (
{
layerId = "1E68CFC6-8A63-43E3-914A-DAEC22AC2E91";
paths = (
{
closed = 1;
nodes = (
"69.838 -103 LINE",
"661.838 -103 LINE",
"634.331 -259 LINE",
"42.331 -259 LINE"
);
}
);
width = 1024;
}
);
unicode = 0331;
changeCount = 1;
},
{
color = (0,26,255,1);
glyphname = Germandbls;
lastChange = "2020-06-23 13:55:14 +0000";
layers = (
{
layerId = "1E68CFC6-8A63-43E3-914A-DAEC22AC2E91";
paths = (
{
closed = 1;
nodes = (
"273.406 1267 OFFCURVE",
"537.254 1510 OFFCURVE",
"749.254 1510 QCURVE SMOOTH",
"975.254 1510 OFFCURVE",
"1128.512 1347 OFFCURVE",
"1110.351 1244 QCURVE SMOOTH",
"1092.365 1142 OFFCURVE",
"966.09 1010 OFFCURVE",
"898.332 966 QCURVE SMOOTH",
"840.808 929 OFFCURVE",
"777.344 881 OFFCURVE",
"773.818 861 QCURVE SMOOTH",
"770.291 841 OFFCURVE",
"829.943 805 OFFCURVE",
"1007.777 736 QCURVE SMOOTH",
"1188.434 666 OFFCURVE",
"1326.695 486 OFFCURVE",
"1300.246 336 QCURVE SMOOTH",
"1274.502 190 OFFCURVE",
"992.71 -30 OFFCURVE",
"806.71 -30 QCURVE SMOOTH",
"566.71 -30 OFFCURVE",
"363.802 152 OFFCURVE",
"396.599 338 QCURVE SMOOTH",
"398.714 350 LINE",
"601.714 350 LINE",
"599.599 338 LINE SMOOTH",
"581.966 238 OFFCURVE",
"688.804 135 OFFCURVE",
"824.804 135 QCURVE SMOOTH",
"929.804 135 OFFCURVE",
"1086.495 241 OFFCURVE",
"1102.188 330 QCURVE SMOOTH",
"1119.292 427 OFFCURVE",
"1003.866 521 OFFCURVE",
"843.975 584 QCURVE SMOOTH",
"630.786 668 OFFCURVE",
"530.008 760 OFFCURVE",
"542.528 831 QCURVE SMOOTH",
"555.4 904 OFFCURVE",
"644.387 989 OFFCURVE",
"750.201 1056 QCURVE SMOOTH",
"829.018 1106 OFFCURVE",
"902.655 1172 OFFCURVE",
"912.706 1229 QCURVE SMOOTH",
"922.404 1284 OFFCURVE",
"831.689 1348 OFFCURVE",
"726.689 1348 QCURVE SMOOTH",
"605.689 1348 OFFCURVE",
"453.24 1198 OFFCURVE",
"424.675 1036 QCURVE SMOOTH",
"304.596 355 LINE SMOOTH",
"274.444 184 OFFCURVE",
"72.179 -16 OFFCURVE",
"-62.821 -16 QCURVE SMOOTH",
"-75.821 -16 OFFCURVE",
"-102.469 -14 OFFCURVE",
"-115.116 -12 QCURVE",
"-84.672 172 LINE",
"-76.201 169 OFFCURVE",
"-57.553 167 OFFCURVE",
"-48.553 167 QCURVE SMOOTH",
"11.447 167 OFFCURVE",
"96.55 264 OFFCURVE",
"112.596 355 QCURVE SMOOTH",
"237.965 1066 LINE SMOOTH"
);
}
);
width = 1449;
}
);
unicode = 1E9E;
changeCount = 1;
},
{
color = (0,26,255,1);
glyphname = endash;
lastChange = "2020-06-23 13:55:14 +0000";
layers = (
{
layerId = "1E68CFC6-8A63-43E3-914A-DAEC22AC2E91";
paths = (
{
closed = 1;
nodes = (
"-4.571 700 LINE",
"1019.429 700 LINE",
"989.806 532 LINE",
"-34.194 532 LINE"
);
}
);
width = 1024;
}
);
leftKerningGroup = emdash;
rightKerningGroup = emdash;
unicode = 2013;
changeCount = 1;
},
{
color = (0,26,255,1);
glyphname = emdash;
lastChange = "2020-06-23 13:55:14 +0000";
layers = (
{
layerId = "1E68CFC6-8A63-43E3-914A-DAEC22AC2E91";
paths = (
{
closed = 1;
nodes = (
"255.429 700 LINE",
"1783.429 700 LINE",
"1753.806 532 LINE",
"225.806 532 LINE"
);
}
);
width = 2048;
}
);
leftKerningGroup = emdash;
rightKerningGroup = emdash;
unicode = 2014;
changeCount = 1;
},
{
color = (0,26,255,1);
glyphname = horizontalbar;
lastChange = "2020-06-23 13:55:14 +0000";
layers = (
{
layerId = "1E68CFC6-8A63-43E3-914A-DAEC22AC2E91";
paths = (
{
closed = 1;
nodes = (
"31.651 792 LINE",
"636.651 792 LINE",
"607.381 626 LINE",
"2.381 626 LINE"
);
}
);
width = 656;
}
);
leftKerningGroup = emdash;
rightKerningGroup = emdash;
unicode = 2015;
changeCount = 1;
},
{
color = (0,26,255,1);
glyphname = quoteleft;
lastChange = "2020-06-23 13:55:14 +0000";
layers = (
{
layerId = "1E68CFC6-8A63-43E3-914A-DAEC22AC2E91";
paths = (
{
closed = 1;
nodes = (
"174.534 1194 LINE SMOOTH",
"190.404 1284 OFFCURVE",
"317.375 1488 OFFCURVE",
"412.365 1556 QCURVE",
"504.493 1483 LINE",
"446.855 1417 OFFCURVE",
"372.346 1278 OFFCURVE",
"358.063 1197 QCURVE SMOOTH",
"336.199 1073 LINE",
"153.199 1073 LINE"
);
}
);
width = 410;
}
);
leftKerningGroup = minute;
rightKerningGroup = minute;
unicode = 2018;
changeCount = 1;
},
{
color = (0,26,255,1);
glyphname = quoteright;
lastChange = "2020-06-23 13:55:14 +0000";
layers = (
{
layerId = "1E68CFC6-8A63-43E3-914A-DAEC22AC2E91";
paths = (
{
closed = 1;
nodes = (
"424.515 1330 LINE SMOOTH",
"408.645 1240 OFFCURVE",
"281.675 1036 OFFCURVE",
"187.685 968 QCURVE",
"94.556 1041 LINE",
"153.194 1107 OFFCURVE",
"225.703 1246 OFFCURVE",
"239.986 1327 QCURVE SMOOTH",
"263.085 1458 LINE",
"447.085 1458 LINE"
);
}
);
width = 410;
}
);
leftKerningGroup = minute;
rightKerningGroup = minute;
unicode = 2019;
changeCount = 1;
},
{
color = (0,26,255,1);
glyphname = quotesinglbase;
lastChange = "2020-06-23 13:55:14 +0000";
layers = (
{
layerId = "1E68CFC6-8A63-43E3-914A-DAEC22AC2E91";
paths = (
{
closed = 1;
nodes = (
"206.222 92 LINE SMOOTH",
"190.353 2 OFFCURVE",
"63.382 -202 OFFCURVE",
"-30.608 -270 QCURVE",
"-123.736 -197 LINE",
"-65.099 -131 OFFCURVE",
"7.411 8 OFFCURVE",
"21.693 89 QCURVE SMOOTH",
"44.792 220 LINE",
"228.792 220 LINE"
);
}
);
width = 410;
}
);
leftKerningGroup = comma;
rightKerningGroup = comma;
unicode = 201A;
changeCount = 1;
},
{
color = (0,26,255,1);
glyphname = quotedblleft;
lastChange = "2020-06-23 13:55:14 +0000";
layers = (
{
layerId = "1E68CFC6-8A63-43E3-914A-DAEC22AC2E91";
paths = (
{
closed = 1;
nodes = (
"174.534 1194 LINE SMOOTH",
"190.404 1284 OFFCURVE",
"317.375 1488 OFFCURVE",
"412.365 1556 QCURVE",
"504.493 1483 LINE",
"446.855 1417 OFFCURVE",
"372.346 1278 OFFCURVE",
"358.063 1197 QCURVE SMOOTH",
"336.199 1073 LINE",
"153.199 1073 LINE"
);
},
{
closed = 1;
nodes = (
"594.534 1194 LINE SMOOTH",
"610.404 1284 OFFCURVE",
"737.375 1488 OFFCURVE",
"832.365 1556 QCURVE",
"924.493 1483 LINE",
"866.855 1417 OFFCURVE",
"792.346 1278 OFFCURVE",
"778.063 1197 QCURVE SMOOTH",
"756.199 1073 LINE",
"573.199 1073 LINE"
);
}
);
width = 830;
}
);
leftKerningGroup = minute;
rightKerningGroup = minute;
unicode = 201C;
changeCount = 1;
},
{
color = (0,26,255,1);
glyphname = quotedblright;
lastChange = "2020-06-23 13:55:14 +0000";
layers = (
{
layerId = "1E68CFC6-8A63-43E3-914A-DAEC22AC2E91";
paths = (
{
closed = 1;
nodes = (
"424.515 1330 LINE SMOOTH",
"408.645 1240 OFFCURVE",
"281.675 1036 OFFCURVE",
"187.685 968 QCURVE",
"94.556 1041 LINE",
"153.194 1107 OFFCURVE",
"225.703 1246 OFFCURVE",
"239.986 1327 QCURVE SMOOTH",
"263.085 1458 LINE",
"447.085 1458 LINE"
);
},
{
closed = 1;
nodes = (
"844.515 1330 LINE SMOOTH",
"828.645 1240 OFFCURVE",
"701.675 1036 OFFCURVE",
"607.685 968 QCURVE",
"514.556 1041 LINE",
"573.194 1107 OFFCURVE",
"645.703 1246 OFFCURVE",
"659.986 1327 QCURVE SMOOTH",
"683.085 1458 LINE",
"867.085 1458 LINE"
);
}
);
width = 830;
}
);
leftKerningGroup = minute;
rightKerningGroup = minute;
unicode = 201D;
changeCount = 1;
},
{
color = (0,26,255,1);
glyphname = quotedblbase;
lastChange = "2020-06-23 13:55:14 +0000";
layers = (
{
layerId = "1E68CFC6-8A63-43E3-914A-DAEC22AC2E91";
paths = (
{
closed = 1;
nodes = (
"206.222 92 LINE SMOOTH",
"190.353 2 OFFCURVE",
"63.382 -202 OFFCURVE",
"-30.608 -270 QCURVE",
"-123.736 -197 LINE",
"-65.099 -131 OFFCURVE",
"7.411 8 OFFCURVE",
"21.693 89 QCURVE SMOOTH",
"44.792 220 LINE",
"228.792 220 LINE"
);
},
{
closed = 1;
nodes = (
"626.222 92 LINE SMOOTH",
"610.353 2 OFFCURVE",
"483.382 -202 OFFCURVE",
"389.392 -270 QCURVE",
"296.264 -197 LINE",
"354.901 -131 OFFCURVE",
"427.411 8 OFFCURVE",
"441.693 89 QCURVE SMOOTH",
"464.792 220 LINE",
"648.792 220 LINE"
);
}
);
width = 830;
}
);
leftKerningGroup = comma;
rightKerningGroup = comma;
unicode = 201E;
changeCount = 1;
},
{
color = (0,26,255,1);
glyphname = dagger;
lastChange = "2020-06-23 13:55:14 +0000";
layers = (
{
layerId = "1E68CFC6-8A63-43E3-914A-DAEC22AC2E91";
paths = (
{
closed = 1;
nodes = (
"275.411 8 LINE",
"426.893 748 LINE",
"445.231 852 LINE",
"94.231 852 LINE",
"124.735 1025 LINE",
"471.735 1025 LINE",
"543.901 1508 LINE",
"734.901 1508 LINE",
"636.735 1025 LINE",
"983.735 1025 LINE",
"953.231 852 LINE",
"602.231 852 LINE",
"583.893 748 LINE",
"474.411 8 LINE",
"420.686 -274 LINE",
"322.824 -415 OFFCURVE",
"278.648 -416 OFFCURVE",
"229.686 -274 QCURVE"
);
}
);
width = 1008;
}
);
unicode = 2020;
changeCount = 1;
},
{
color = (0,26,255,1);
glyphname = daggerdbl;
lastChange = "2020-06-23 13:55:14 +0000";
layers = (
{
layerId = "1E68CFC6-8A63-43E3-914A-DAEC22AC2E91";
paths = (
{
closed = 1;
nodes = (
"-15.029 204 LINE",
"335.971 204 LINE",
"374.159 534 LINE",
"445.76 855 LINE",
"99.76 855 LINE",
"129.206 1022 LINE",
"461.206 1022 LINE",
"543.901 1508 LINE",
"734.901 1508 LINE",
"646.206 1022 LINE",
"978.206 1022 LINE",
"948.76 855 LINE",
"602.76 855 LINE",
"561.159 534 LINE",
"482.971 204 LINE",
"833.971 204 LINE",
"804.7 38 LINE",
"467.7 38 LINE",
"384.3 -452 LINE",
"203.3 -452 LINE",
"292.7 38 LINE",
"-44.3 38 LINE"
);
}
);
width = 1008;
}
);
unicode = 2021;
changeCount = 1;
},
{
color = (0,26,255,1);
glyphname = bullet;
lastChange = "2020-06-23 13:55:14 +0000";
layers = (
{
layerId = "1E68CFC6-8A63-43E3-914A-DAEC22AC2E91";
paths = (
{
closed = 1;
nodes = (
"132.755 889 OFFCURVE",
"325.083 1061 OFFCURVE",
"451.083 1061 QCURVE SMOOTH",
"577.083 1061 OFFCURVE",
"708.755 889 OFFCURVE",
"688.301 773 QCURVE SMOOTH",
"668.199 659 OFFCURVE",
"475.871 487 OFFCURVE",
"349.871 487 QCURVE SMOOTH",
"223.871 487 OFFCURVE",
"92.199 659 OFFCURVE",
"112.301 773 QCURVE SMOOTH"
);
}
);
width = 784;
}
);
unicode = 2022;
changeCount = 1;
},
{
color = (0,26,255,1);
glyphname = minute;
lastChange = "2020-06-23 13:55:14 +0000";
layers = (
{
layerId = "1E68CFC6-8A63-43E3-914A-DAEC22AC2E91";
paths = (
{
closed = 1;
nodes = (
"541.894 1559 LINE",
"716.027 1452 LINE",
"258.873 884 LINE",
"141.979 964 LINE"
);
}
);
width = 654;
}
);
leftKerningGroup = minute;
rightKerningGroup = minute;
unicode = 2032;
changeCount = 1;
},
{
color = (0,26,255,1);
glyphname = second;
lastChange = "2020-06-23 13:55:14 +0000";
layers = (
{
layerId = "1E68CFC6-8A63-43E3-914A-DAEC22AC2E91";
paths = (
{
closed = 1;
nodes = (
"541.894 1559 LINE",
"716.027 1452 LINE",
"258.873 884 LINE",
"141.979 964 LINE"
);
},
{
closed = 1;
nodes = (
"942.894 1559 LINE",
"1117.027 1452 LINE",
"659.873 884 LINE",
"542.979 964 LINE"
);
}
);
width = 1054;
}
);
leftKerningGroup = minute;
rightKerningGroup = minute;
unicode = 2033;
changeCount = 1;
},
{
color = (0,26,255,1);
glyphname = guilsinglleft;
lastChange = "2020-06-23 13:55:14 +0000";
layers = (
{
guideLines = (
{
position = "{30.871, 901}";
},
{
position = "{-30.139, 555}";
}
);
layerId = "1E68CFC6-8A63-43E3-914A-DAEC22AC2E91";
paths = (
{
closed = 1;
nodes = (
"82.446 581 LINE",
"442.334 949 LINE",
"604.334 949 LINE",
"276.156 551 LINE",
"463.978 153 LINE",
"301.978 153 LINE",
"72.043 522 LINE"
);
}
);
width = 652;
}
);
leftKerningGroup = guillemotleft;
rightKerningGroup = guillemotleft;
unicode = 2039;
userData = {
com.typemytype.robofont.guideline.magnetic.Amp5Ormvx4 = 5;
com.typemytype.robofont.guideline.magnetic.JDX5vz3jKp = 5;
};
changeCount = 1;
},
{
color = (0,26,255,1);
glyphname = guilsinglright;
lastChange = "2020-06-23 13:55:14 +0000";
layers = (
{
guideLines = (
{
position = "{30.871, 901}";
},
{
position = "{-30.139, 555}";
}
);
layerId = "1E68CFC6-8A63-43E3-914A-DAEC22AC2E91";
paths = (
{
closed = 1;
nodes = (
"314.156 551 LINE",
"126.334 949 LINE",
"288.334 949 LINE",
"518.446 581 LINE",
"508.043 522 LINE",
"147.978 153 LINE",
"-14.022 153 LINE"
);
}
);
width = 652;
}
);
leftKerningGroup = guillemotright;
rightKerningGroup = guillemotright;
unicode = 203A;
userData = {
com.typemytype.robofont.guideline.magnetic.Amp5Ormvx4 = 5;
com.typemytype.robofont.guideline.magnetic.JDX5vz3jKp = 5;
};
changeCount = 1;
},
{
color = (0,26,255,1);
glyphname = fraction;
lastChange = "2020-06-23 13:55:14 +0000";
layers = (
{
guideLines = (
{
position = "{30.871, 901}";
},
{
position = "{-30.139, 555}";
}
);
layerId = "1E68CFC6-8A63-43E3-914A-DAEC22AC2E91";
paths = (
{
closed = 1;
nodes = (
"-355.582 -43 LINE",
"-465.242 44 LINE",
"713.196 1504 LINE",
"822.855 1417 LINE"
);
}
);
width = 342;
}
);
unicode = 2044;
userData = {
com.typemytype.robofont.guideline.magnetic.0lx51aIE0d = 5;
com.typemytype.robofont.guideline.magnetic.tcCoNUQTdD = 5;
};
changeCount = 1;
},
{
color = (0,26,255,1);
glyphname = commercialMinusSign;
lastChange = "2020-06-23 13:55:14 +0000";
layers = (
{
layerId = "1E68CFC6-8A63-43E3-914A-DAEC22AC2E91";
paths = (
{
closed = 1;
nodes = (
"782.667 1501 LINE",
"943.085 1458 LINE",
"93.065 -45 LINE",
"-67.353 -2 LINE"
);
},
{
closed = 1;
nodes = (
"414.558 213 OFFCURVE",
"522.661 310 OFFCURVE",
"593.661 310 QCURVE SMOOTH",
"664.661 310 OFFCURVE",
"738.558 213 OFFCURVE",
"727.096 148 QCURVE SMOOTH",
"715.811 84 OFFCURVE",
"607.708 -13 OFFCURVE",
"536.708 -13 QCURVE SMOOTH",
"465.708 -13 OFFCURVE",
"391.811 84 OFFCURVE",
"403.096 148 QCURVE SMOOTH"
);
},
{
closed = 1;
nodes = (
"173.392 1369 OFFCURVE",
"281.495 1466 OFFCURVE",
"352.495 1466 QCURVE SMOOTH",
"423.495 1466 OFFCURVE",
"497.392 1369 OFFCURVE",
"485.93 1304 QCURVE SMOOTH",
"474.645 1240 OFFCURVE",
"366.542 1143 OFFCURVE",
"295.542 1143 QCURVE SMOOTH",
"224.542 1143 OFFCURVE",
"150.645 1240 OFFCURVE",
"161.93 1304 QCURVE SMOOTH"
);
}
);
width = 889;
}
);
unicode = 2052;
changeCount = 1;
},
{
color = (0,26,255,1);
glyphname = foursuperior;
lastChange = "2020-06-23 13:55:14 +0000";
layers = (
{
layerId = "1E68CFC6-8A63-43E3-914A-DAEC22AC2E91";
paths = (
{
closed = 1;
nodes = (
"99.153 982 LINE",
"567.785 1496 LINE",
"691.785 1496 LINE",
"494.935 1270 LINE",
"262.09 1010 LINE",
"750.09 1010 LINE",
"727.168 880 LINE",
"88.168 880 LINE"
);
},
{
closed = 1;
nodes = (
"586.9 697 LINE",
"429.9 697 LINE",
"570.785 1496 LINE",
"727.785 1496 LINE"
);
}
);
width = 751;
}
);
unicode = 2074;
changeCount = 1;
},
{
color = (0,26,255,1);
glyphname = coloncurrency;
lastChange = "2020-06-23 13:55:14 +0000";
layers = (
{
guideLines = (
{
position = "{148.833, 1570}";
}
);
layerId = "1E68CFC6-8A63-43E3-914A-DAEC22AC2E91";
paths = (
{
closed = 1;
nodes = (
"1028.457 1324 LINE",
"1011.401 1301 LINE",
"621.99 68 LINE",
"623.582 43 LINE",
"569.959 -125 LINE",
"410.959 -125 LINE",
"463.053 40 LINE",
"481.638 66 LINE",
"894.981 1361 LINE",
"891.508 1381 LINE",
"952.833 1570 LINE",
"1110.833 1570 LINE"
);
},
{
closed = 1;
nodes = (
"782.976 1395 LINE",
"766.273 1374 LINE",
"348.638 66 LINE",
"349.877 39 LINE",
"297.959 -125 LINE",
"138.959 -125 LINE",
"217.512 122 LINE",
"236.096 148 LINE",
"628.626 1376 LINE",
"625.681 1399 LINE",
"680.833 1570 LINE",
"838.833 1570 LINE"
);
},
{
closed = 1;
nodes = (
"105.82 844 LINE SMOOTH",
"160.481 1154 OFFCURVE",
"521.022 1486 OFFCURVE",
"755.022 1486 QCURVE SMOOTH",
"990.022 1486 OFFCURVE",
"1212.411 1233 OFFCURVE",
"1178.38 1040 QCURVE SMOOTH",
"1169.564 990 LINE",
"987.564 990 LINE",
"996.556 1041 LINE SMOOTH",
"1017.716 1161 OFFCURVE",
"890.868 1332 OFFCURVE",
"727.868 1332 QCURVE SMOOTH",
"565.868 1332 OFFCURVE",
"334.315 1085 OFFCURVE",
"291.82 844 QCURVE SMOOTH",
"247.386 592 LINE SMOOTH",
"208.065 369 OFFCURVE",
"361.101 114 OFFCURVE",
"523.101 114 QCURVE SMOOTH",
"686.101 114 OFFCURVE",
"869.311 291 OFFCURVE",
"890.647 412 QCURVE SMOOTH",
"900.168 466 LINE",
"1087.168 466 LINE",
"1080.115 426 LINE SMOOTH",
"1047.495 241 OFFCURVE",
"732.71 -30 OFFCURVE",
"497.71 -30 QCURVE SMOOTH",
"258.71 -30 OFFCURVE",
"11.309 308 OFFCURVE",
"64.912 612 QCURVE SMOOTH"
);
}
);
width = 1154;
}
);
unicode = 20A1;
userData = {
com.typemytype.robofont.guideline.magnetic.0DwZ2nfhdf = 5;
};
changeCount = 1;
},
{
color = (0,26,255,1);
glyphname = franc;
lastChange = "2020-06-23 13:55:14 +0000";
layers = (
{
layerId = "1E68CFC6-8A63-43E3-914A-DAEC22AC2E91";
paths = (
{
closed = 1;
nodes = (
"308.732 1456 LINE",
"1130.732 1456 LINE",
"1102.872 1298 LINE",
"472.872 1298 LINE",
"395.818 861 LINE",
"936.818 861 LINE",
"908.958 703 LINE",
"367.958 703 LINE",
"244 0 LINE",
"52 0 LINE"
);
},
{
closed = 1;
nodes = (
"-27.948 454 LINE",
"677.052 454 LINE",
"649.193 296 LINE",
"-55.807 296 LINE"
);
}
);
width = 1024;
}
);
unicode = 20A3;
changeCount = 1;
},
{
color = (0,26,255,1);
glyphname = lira;
lastChange = "2020-06-23 13:55:14 +0000";
layers = (
{
layerId = "1E68CFC6-8A63-43E3-914A-DAEC22AC2E91";
paths = (
{
closed = 1;
nodes = (
"-92 0 LINE",
"-63.788 160 LINE",
"-7.788 160 LINE SMOOTH",
"84.212 160 OFFCURVE",
"196.13 324 OFFCURVE",
"207.345 467 QCURVE SMOOTH",
"253.204 1039 LINE SMOOTH",
"268.53 1228 OFFCURVE",
"512.259 1476 OFFCURVE",
"713.259 1476 QCURVE SMOOTH",
"903.259 1476 OFFCURVE",
"1079.935 1270 OFFCURVE",
"1050.489 1103 QCURVE SMOOTH",
"1047.667 1087 LINE",
"855.667 1087 LINE",
"858.489 1103 LINE SMOOTH",
"871.766 1218 OFFCURVE",
"779.575 1319 OFFCURVE",
"687.575 1319 QCURVE SMOOTH",
"585.575 1319 OFFCURVE",
"444.892 1162 OFFCURVE",
"435.204 1039 QCURVE SMOOTH",
"392.574 508 LINE SMOOTH",
"381.594 372 OFFCURVE",
"300.5 207 OFFCURVE",
"223.27 166 QCURVE",
"929.27 166 LINE",
"900 0 LINE"
);
},
{
closed = 1;
nodes = (
"-9.298 435 LINE",
"16.27 580 LINE",
"778.27 580 LINE",
"752.702 435 LINE"
);
},
{
closed = 1;
nodes = (
"48.89 765 LINE",
"74.458 910 LINE",
"836.458 910 LINE",
"810.89 765 LINE"
);
}
);
width = 1024;
}
);
unicode = 20A4;
changeCount = 1;
},
{
color = (0,26,255,1);
glyphname = naira;
lastChange = "2020-06-23 13:55:14 +0000";
layers = (
{
layerId = "1E68CFC6-8A63-43E3-914A-DAEC22AC2E91";
paths = (
{
closed = 1;
nodes = (
"25.035 987 LINE",
"207.035 987 LINE",
"205.271 977 LINE",
"871.271 977 LINE",
"873.035 987 LINE",
"1065.387 989 LINE",
"1041.231 852 LINE",
"848.878 850 LINE",
"849.76 855 LINE",
"183.76 855 LINE",
"182.878 850 LINE",
"0.878 850 LINE"
);
},
{
closed = 1;
nodes = (
"-29.627 677 LINE",
"152.373 677 LINE",
"151.492 672 LINE",
"817.492 672 LINE",
"818.373 677 LINE",
"1010.726 679 LINE",
"986.569 542 LINE",
"794.217 540 LINE",
"795.98 550 LINE",
"129.98 550 LINE",
"128.217 540 LINE",
"-53.783 540 LINE"
);
},
{
closed = 1;
nodes = (
"778 0 LINE",
"597 0 LINE",
"327.365 1142 LINE",
"324.938 1253 LINE",
"312.938 1253 LINE",
"303.368 1125 LINE",
"105 0 LINE",
"-45 0 LINE",
"211.732 1456 LINE",
"397.732 1456 LINE",
"656.185 347 LINE",
"664.026 227 LINE",
"678.555 230 LINE",
"689.891 351 LINE",
"884.732 1456 LINE",
"1034.732 1456 LINE"
);
}
);
width = 1024;
}
);
unicode = 20A6;
changeCount = 1;
},
{
color = (0,26,255,1);
glyphname = peseta;
lastChange = "2020-06-23 13:55:14 +0000";
layers = (
{
layerId = "1E68CFC6-8A63-43E3-914A-DAEC22AC2E91";
paths = (
{
closed = 1;
nodes = (
"282.625 565 LINE",
"309.426 717 LINE",
"543.426 717 LINE",
"716.561 717 OFFCURVE",
"852.439 898.552 OFFCURVE",
"871.914 1009 QCURVE",
"891.652 1120.94 OFFCURVE",
"820.065 1304 OFFCURVE",
"646.93 1304 QCURVE",
"453.93 1304 LINE",
"224 0 LINE",
"39 0 LINE",
"295.732 1456 LINE",
"673.732 1456 LINE",
"920 1456 OFFCURVE",
"1091.953 1202.045 OFFCURVE",
"1058.267 1011 QCURVE",
"1024.449 819.209 OFFCURVE",
"762.893 565 OFFCURVE",
"516.625 565 QCURVE"
);
},
{
closed = 1;
nodes = (
"1581.873 884 LINE",
"977.873 884 LINE",
"1002.911 1026 LINE",
"1606.911 1026 LINE"
);
},
{
closed = 1;
nodes = (
"1441.16 1345 LINE",
"1251.256 268 LINE",
"1236.649 185.164 OFFCURVE",
"1301.241 139 OFFCURVE",
"1347.509 139 QCURVE SMOOTH",
"1370.644 139 OFFCURVE",
"1440.862 141 OFFCURVE",
"1503.741 163 QCURVE",
"1477.116 12 LINE",
"1424.942 -6 OFFCURVE",
"1313.981 -20 OFFCURVE",
"1265.474 -20 QCURVE SMOOTH",
"1163.235 -20 OFFCURVE",
"1037.878 107.06 OFFCURVE",
"1066.432 269 QCURVE",
"1256.16 1345 LINE"
);
}
);
width = 1681;
}
);
unicode = 20A7;
changeCount = 1;
},
{
color = (0,26,255,1);
glyphname = won;
lastChange = "2020-06-23 13:55:14 +0000";
layers = (
{
layerId = "1E68CFC6-8A63-43E3-914A-DAEC22AC2E91";
paths = (
{
closed = 1;
nodes = (
"99.325 1017 LINE",
"387.325 1017 LINE",
"385.561 1007 LINE",
"1521.561 1007 LINE",
"1523.325 1017 LINE",
"1799.677 1019 LINE",
"1775.52 882 LINE",
"1499.168 880 LINE",
"1500.049 885 LINE",
"364.049 885 LINE",
"363.168 880 LINE",
"75.168 880 LINE"
);
},
{
closed = 1;
nodes = (
"66.847 657 LINE",
"414.847 657 LINE",
"413.965 652 LINE",
"1379.965 652 LINE",
"1380.847 657 LINE",
"1697.199 659 LINE",
"1673.043 522 LINE",
"1356.69 520 LINE",
"1358.453 530 LINE",
"392.453 530 LINE",
"390.69 520 LINE",
"42.69 520 LINE"
);
},
{
closed = 1;
nodes = (
"243.732 1456 LINE",
"417.732 1456 LINE",
"476.652 378 LINE",
"472.082 250 LINE",
"478.082 250 LINE",
"518.652 378 LINE SMOOTH",
"926.732 1456 LINE",
"1124.732 1456 LINE",
"1182.652 378 LINE",
"1178.082 250 LINE",
"1184.082 250 LINE",
"1224.652 378 LINE SMOOTH",
"1633.732 1456 LINE",
"1795.732 1456 LINE",
"1219.237 -10 LINE",
"1041.237 -10 LINE",
"990.96 1100 LINE",
"992.53 1228 LINE",
"986.53 1228 LINE",
"942.96 1100 LINE SMOOTH",
"521.237 -10 LINE",
"343.237 -10 LINE"
);
}
);
width = 1796;
}
);
unicode = 20A9;
changeCount = 1;
},
{
color = (0,26,255,1);
glyphname = dong;
lastChange = "2020-06-23 13:55:14 +0000";
layers = (
{
layerId = "1E68CFC6-8A63-43E3-914A-DAEC22AC2E91";
paths = (
{
closed = 1;
nodes = (
"-26.247 492 LINE SMOOTH",
"12.897 714 OFFCURVE",
"281.916 992 OFFCURVE",
"461.916 992 QCURVE SMOOTH",
"571.916 992 OFFCURVE",
"704.102 925 OFFCURVE",
"741.052 868 QCURVE",
"844.732 1456 LINE",
"1020.732 1456 LINE",
"764 0 LINE",
"606 0 LINE",
"622.157 137 LINE",
"616.157 137 LINE",
"564.696 72 OFFCURVE",
"393.473 -20 OFFCURVE",
"302.473 -20 QCURVE SMOOTH",
"103.473 -20 OFFCURVE",
"-68.742 251 OFFCURVE",
"-28.363 480 QCURVE SMOOTH"
);
},
{
closed = 1;
nodes = (
"131.661 310 OFFCURVE",
"220.275 132 OFFCURVE",
"340.275 132 QCURVE SMOOTH",
"450.275 132 OFFCURVE",
"599.671 242 OFFCURVE",
"643.014 312 QCURVE",
"707.902 680 LINE",
"689.245 750 OFFCURVE",
"575.115 840 OFFCURVE",
"475.115 840 QCURVE SMOOTH",
"345.115 840 OFFCURVE",
"195.492 672 OFFCURVE",
"163.753 492 QCURVE SMOOTH",
"161.637 480 LINE SMOOTH"
);
},
{
closed = 1;
nodes = (
"380.834 1156 LINE",
"406.578 1302 LINE",
"1122.578 1302 LINE",
"1096.834 1156 LINE"
);
},
{
closed = 1;
nodes = (
"-127.903 -266 LINE",
"-103.57 -128 LINE",
"820.43 -128 LINE",
"796.097 -266 LINE"
);
}
);
width = 1024;
}
);
unicode = 20AB;
changeCount = 1;
},
{
color = (0,26,255,1);
glyphname = Euro;
lastChange = "2020-06-23 13:55:14 +0000";
layers = (
{
layerId = "1E68CFC6-8A63-43E3-914A-DAEC22AC2E91";
paths = (
{
closed = 1;
nodes = (
"824.822 827 LINE",
"39.822 827 LINE",
"68.035 987 LINE",
"850.035 987 LINE"
);
},
{
closed = 1;
nodes = (
"767.516 502 LINE",
"-17.484 502 LINE",
"10.552 661 LINE",
"795.552 661 LINE"
);
},
{
closed = 1;
nodes = (
"234.223 903 LINE SMOOTH",
"293.998 1242 OFFCURVE",
"603.669 1484 OFFCURVE",
"787.669 1484 QCURVE SMOOTH",
"932.669 1484 OFFCURVE",
"1081.505 1398 OFFCURVE",
"1125.749 1337 QCURVE",
"985.65 1206 LINE",
"958.998 1242 OFFCURVE",
"857.283 1306 OFFCURVE",
"770.283 1306 QCURVE SMOOTH",
"656.283 1306 OFFCURVE",
"455.365 1142 OFFCURVE",
"413.752 906 QCURVE SMOOTH",
"349.393 541 LINE SMOOTH",
"309.014 312 OFFCURVE",
"464.567 145 OFFCURVE",
"586.567 145 QCURVE SMOOTH",
"672.567 145 OFFCURVE",
"799.676 208 OFFCURVE",
"842.671 242 QCURVE",
"925.217 126 LINE",
"864.285 64 OFFCURVE",
"673.71 -30 OFFCURVE",
"522.71 -30 QCURVE SMOOTH",
"348.71 -30 OFFCURVE",
"117.671 242 OFFCURVE",
"170.922 544 QCURVE SMOOTH"
);
}
);
width = 1024;
}
);
unicode = 20AC;
changeCount = 1;
},
{
color = (0,26,255,1);
glyphname = uni20AD;
lastChange = "2020-06-23 13:55:14 +0000";
layers = (
{
layerId = "1E68CFC6-8A63-43E3-914A-DAEC22AC2E91";
paths = (
{
closed = 1;
nodes = (
"258.732 1456 LINE",
"445.732 1456 LINE",
"324.595 769 LINE",
"963.732 1456 LINE",
"1165.732 1456 LINE",
"277.163 500 LINE",
"189 0 LINE",
"2 0 LINE"
);
},
{
closed = 1;
nodes = (
"446.303 756 LINE",
"587.871 901 LINE",
"933 0 LINE",
"717 0 LINE"
);
},
{
closed = 1;
nodes = (
"-20.448 661 LINE",
"5.649 809 LINE",
"281.649 809 LINE",
"255.552 661 LINE"
);
},
{
closed = 1;
nodes = (
"1009.552 661 LINE",
"578.552 661 LINE",
"604.648 809 LINE",
"1035.649 809 LINE"
);
}
);
width = 1024;
}
);
unicode = 20AD;
changeCount = 1;
},
{
color = (0,26,255,1);
glyphname = uni20B1;
lastChange = "2020-06-23 13:55:14 +0000";
layers = (
{
layerId = "1E68CFC6-8A63-43E3-914A-DAEC22AC2E91";
paths = (
{
closed = 1;
nodes = (
"133.234 421 LINE",
"160.741 577 LINE",
"415.741 577 LINE SMOOTH",
"569.741 577 OFFCURVE",
"713.832 759 OFFCURVE",
"746.629 945 QCURVE SMOOTH",
"779.426 1131 OFFCURVE",
"697.225 1300 OFFCURVE",
"543.225 1300 QCURVE SMOOTH",
"378.225 1300 LINE",
"149 0 LINE",
"-39 0 LINE",
"217.732 1456 LINE",
"573.732 1456 LINE SMOOTH",
"808.732 1456 OFFCURVE",
"978.121 1203 OFFCURVE",
"934.392 955 QCURVE SMOOTH",
"893.837 725 OFFCURVE",
"625.234 421 OFFCURVE",
"390.234 421 QCURVE SMOOTH"
);
},
{
closed = 1;
nodes = (
"71.484 1137 LINE",
"273.484 1137 LINE",
"269.076 1112 LINE",
"855.076 1112 LINE",
"859.484 1137 LINE",
"1091.836 1139 LINE",
"1064.153 982 LINE",
"851.8 980 LINE",
"854.445 995 LINE",
"248.445 995 LINE",
"245.8 980 LINE",
"43.8 980 LINE"
);
},
{
closed = 1;
nodes = (
"23.875 867 LINE",
"225.875 867 LINE",
"223.231 852 LINE",
"829.231 852 LINE",
"831.875 867 LINE",
"1044.228 869 LINE",
"1016.545 712 LINE",
"764.192 710 LINE",
"768.424 734 LINE",
"202.424 734 LINE",
"198.192 710 LINE",
"-3.808 710 LINE"
);
}
);
width = 1024;
}
);
unicode = 20B1;
changeCount = 1;
},
{
color = (0,26,255,1);
glyphname = uni20B2;
lastChange = "2020-06-23 13:55:14 +0000";
layers = (
{
layerId = "1E68CFC6-8A63-43E3-914A-DAEC22AC2E91";
paths = (
{
closed = 1;
nodes = (
"361.051 57 LINE",
"381.519 71 LINE",
"493.84 708 LINE",
"623.839 708 LINE",
"511.343 70 LINE",
"531.58 60 LINE",
"487.498 -190 LINE",
"317.498 -190 LINE"
);
},
{
closed = 1;
nodes = (
"605.631 1342 LINE",
"592.394 1352 LINE",
"632.949 1582 LINE",
"792.949 1582 LINE",
"752.394 1352 LINE",
"735.102 1339 LINE",
"623.839 708 LINE",
"493.84 708 LINE"
);
},
{
closed = 1;
nodes = (
"946.7 452 LINE SMOOTH",
"912.669 259 OFFCURVE",
"625.118 -5 OFFCURVE",
"442.118 -5 QCURVE SMOOTH",
"221.118 -5 OFFCURVE",
"16.782 288 OFFCURVE",
"61.569 542 QCURVE SMOOTH",
"124.165 897 LINE SMOOTH",
"176.887 1196 OFFCURVE",
"483.846 1485 OFFCURVE",
"682.846 1485 QCURVE SMOOTH",
"860.846 1485 OFFCURVE",
"1049.278 1340 OFFCURVE",
"1084.054 1265 QCURVE",
"944.426 1131 LINE",
"902.298 1204 OFFCURVE",
"775.812 1309 OFFCURVE",
"659.812 1309 QCURVE SMOOTH",
"527.812 1309 OFFCURVE",
"356.076 1112 OFFCURVE",
"318.518 899 QCURVE SMOOTH",
"255.922 544 LINE SMOOTH",
"223.301 359 OFFCURVE",
"332.038 142 OFFCURVE",
"482.038 142 QCURVE SMOOTH",
"569.038 142 OFFCURVE",
"747.722 299 OFFCURVE",
"771.35 433 QCURVE SMOOTH",
"795.33 569 LINE",
"668.33 569 LINE",
"695.837 725 LINE",
"994.837 725 LINE"
);
}
);
width = 1024;
}
);
unicode = 20B2;
changeCount = 1;
},
{
color = (0,26,255,1);
glyphname = uni20B5;
lastChange = "2020-06-23 13:55:14 +0000";
layers = (
{
guideLines = (
{
position = "{-150.041, -125}";
}
);
layerId = "1E68CFC6-8A63-43E3-914A-DAEC22AC2E91";
paths = (
{
closed = 1;
nodes = (
"351.524 37 LINE",
"366.993 51 LINE",
"482.84 708 LINE",
"627.839 708 LINE",
"511.816 50 LINE",
"522.053 40 LINE",
"481.498 -190 LINE",
"311.498 -190 LINE"
);
},
{
closed = 1;
nodes = (
"598.157 1362 LINE",
"589.921 1372 LINE",
"626.949 1582 LINE",
"786.949 1582 LINE",
"749.921 1372 LINE",
"742.628 1359 LINE",
"627.839 708 LINE",
"482.84 708 LINE"
);
},
{
closed = 1;
nodes = (
"774.11 460 LINE",
"962.758 458 LINE",
"957.879 436 LINE SMOOTH",
"907.024 244 OFFCURVE",
"646.592 -25 OFFCURVE",
"432.592 -25 QCURVE SMOOTH",
"211.592 -25 OFFCURVE",
"15.789 237 OFFCURVE",
"55.463 462 QCURVE SMOOTH",
"150.68 1002 LINE SMOOTH",
"188.414 1216 OFFCURVE",
"477.846 1485 OFFCURVE",
"696.846 1485 QCURVE SMOOTH",
"913.846 1485 OFFCURVE",
"1089.94 1236 OFFCURVE",
"1062.617 1030 QCURVE SMOOTH",
"1059.738 1008 LINE",
"865.385 1006 LINE",
"869.617 1030 LINE SMOOTH",
"884.131 1135 OFFCURVE",
"818.339 1329 OFFCURVE",
"672.339 1329 QCURVE SMOOTH",
"525.339 1329 OFFCURVE",
"370.776 1150 OFFCURVE",
"345.032 1004 QCURVE SMOOTH",
"249.816 464 LINE SMOOTH",
"222.838 311 OFFCURVE",
"322.512 122 OFFCURVE",
"472.512 122 QCURVE SMOOTH",
"590.512 122 OFFCURVE",
"746.251 302 OFFCURVE",
"769.879 436 QCURVE SMOOTH"
);
}
);
width = 1024;
}
);
unicode = 20B5;
userData = {
com.typemytype.robofont.guideline.magnetic.1Am3eQoiKr = 5;
};
changeCount = 1;
},
{
color = (0,26,255,1);
glyphname = rupeeIndian;
lastChange = "2020-06-23 13:55:14 +0000";
layers = (
{
layerId = "1E68CFC6-8A63-43E3-914A-DAEC22AC2E91";
paths = (
{
closed = 1;
nodes = (
"83.02 1089 LINE",
"1054.02 1089 LINE",
"1026.689 934 LINE",
"55.689 934 LINE"
);
},
{
closed = 1;
nodes = (
"579.079 267 LINE SMOOTH",
"515.408 439 OFFCURVE",
"293.801 566 OFFCURVE",
"105.212 574 QCURVE SMOOTH",
"-6.907 579 LINE",
"20.071 732 LINE",
"308.071 732 LINE SMOOTH",
"499.071 732 OFFCURVE",
"681.049 885 OFFCURVE",
"704.677 1019 QCURVE SMOOTH",
"726.894 1145 OFFCURVE",
"593.049 1299 OFFCURVE",
"422.049 1299 QCURVE SMOOTH",
"120.049 1299 LINE",
"147.732 1456 LINE",
"1127.732 1456 LINE",
"1100.225 1300 LINE",
"865.225 1300 LINE",
"789.636 1308 LINE",
"790.225 1300 LINE",
"842.288 1272 OFFCURVE",
"906.076 1112 OFFCURVE",
"889.677 1019 QCURVE SMOOTH",
"856.528 831 OFFCURVE",
"649.905 663 OFFCURVE",
"460.202 642 QCURVE",
"550.146 619 OFFCURVE",
"715.287 461 OFFCURVE",
"766.896 317 QCURVE SMOOTH",
"881 0 LINE",
"678 0 LINE"
);
}
);
width = 1024;
}
);
unicode = 20B9;
changeCount = 1;
},
{
color = (0,26,255,1);
glyphname = liraTurkish;
lastChange = "2020-06-23 13:55:14 +0000";
layers = (
{
layerId = "1E68CFC6-8A63-43E3-914A-DAEC22AC2E91";
paths = (
{
closed = 1;
nodes = (
"-33.484 502 LINE",
"882.462 876 LINE",
"847.016 709 LINE",
"-63.107 334 LINE"
);
},
{
closed = 1;
nodes = (
"308.732 1456 LINE",
"490.732 1456 LINE",
"260.978 153 LINE",
"337.978 153 LINE SMOOTH",
"545.978 153 OFFCURVE",
"775.007 363 OFFCURVE",
"798.866 521 QCURVE SMOOTH",
"805.39 558 LINE",
"985.39 558 LINE",
"979.219 523 LINE SMOOTH",
"939.545 298 OFFCURVE",
"598.118 -5 OFFCURVE",
"273.647 -2 QCURVE SMOOTH",
"52 0 LINE"
);
},
{
closed = 1;
nodes = (
"29.994 862 LINE",
"945.94 1236 LINE",
"910.494 1069 LINE",
"0.371 694 LINE"
);
}
);
width = 1024;
}
);
unicode = 20BA;
changeCount = 1;
},
{
color = (0,26,255,1);
glyphname = manat;
lastChange = "2020-06-23 13:55:14 +0000";
layers = (
{
layerId = "1E68CFC6-8A63-43E3-914A-DAEC22AC2E91";
paths = (
{
closed = 1;
nodes = (
"934 0 LINE",
"752 0 LINE",
"913.516 916 LINE SMOOTH",
"941.491 1086 OFFCURVE",
"796.761 1252 OFFCURVE",
"657.761 1252 QCURVE SMOOTH",
"518.761 1252 OFFCURVE",
"313.491 1086 OFFCURVE",
"283.516 916 QCURVE SMOOTH",
"122 0 LINE",
"-60 0 LINE",
"101.516 916 LINE SMOOTH",
"148.597 1166 OFFCURVE",
"477.679 1416 OFFCURVE",
"686.679 1416 QCURVE SMOOTH",
"896.679 1416 OFFCURVE",
"1139.597 1166 OFFCURVE",
"1095.516 916 QCURVE SMOOTH"
);
},
{
closed = 1;
nodes = (
"357 0 LINE",
"635.949 1582 LINE",
"795.949 1582 LINE",
"517 0 LINE"
);
}
);
width = 1130;
}
);
unicode = 20BC;
changeCount = 1;
},
{
color = (0,26,255,1);
glyphname = ruble;
lastChange = "2020-06-23 13:55:14 +0000";
layers = (
{
layerId = "1E68CFC6-8A63-43E3-914A-DAEC22AC2E91";
paths = (
{
closed = 1;
nodes = (
"9.736 611 LINE",
"37.419 768 LINE",
"533.419 768 LINE SMOOTH",
"696.419 768 OFFCURVE",
"874.987 913 OFFCURVE",
"896.146 1033 QCURVE SMOOTH",
"914.66 1138 OFFCURVE",
"795.872 1298 OFFCURVE",
"626.872 1298 QCURVE SMOOTH",
"467.872 1298 LINE",
"239 0 LINE",
"60 0 LINE",
"316.732 1456 LINE",
"654.732 1456 LINE SMOOTH",
"900.732 1456 OFFCURVE",
"1120.59 1217 OFFCURVE",
"1088.498 1035 QCURVE SMOOTH",
"1053.233 835 OFFCURVE",
"751.736 611 OFFCURVE",
"505.736 611 QCURVE SMOOTH"
);
},
{
closed = 1;
nodes = (
"672.903 266 LINE",
"-51.097 266 LINE",
"-23.237 424 LINE",
"700.763 424 LINE"
);
}
);
width = 1024;
}
);
unicode = 20BD;
changeCount = 1;
},
{
glyphname = numero;
layers = (
{
layerId = "1E68CFC6-8A63-43E3-914A-DAEC22AC2E91";
paths = (
{
closed = 1;
nodes = (
"298.732 1456 LINE",
"493.732 1456 LINE",
"912.352 416 LINE SMOOTH",
"925.062 386 OFFCURVE",
"950.483 326 OFFCURVE",
"958.074 301 QCURVE",
"968.074 301 LINE",
"969.364 331 OFFCURVE",
"980.589 406 OFFCURVE",
"985.879 436 QCURVE SMOOTH",
"1165.732 1456 LINE",
"1342.732 1456 LINE",
"1086 0 LINE",
"889 0 LINE",
"460.264 1028 LINE SMOOTH",
"446.73 1059 OFFCURVE",
"431.134 1118 OFFCURVE",
"428.894 1145 QCURVE",
"418.894 1145 LINE",
"417.605 1115 OFFCURVE",
"405.38 1040 OFFCURVE",
"400.09 1010 QCURVE SMOOTH",
"222 0 LINE",
"42 0 LINE"
);
},
{
closed = 1;
nodes = (
"1404.677 1019 LINE SMOOTH",
"1439.943 1219 OFFCURVE",
"1724.73 1473 OFFCURVE",
"1920.73 1473 QCURVE SMOOTH",
"2116.73 1473 OFFCURVE",
"2312.943 1219 OFFCURVE",
"2277.677 1019 QCURVE SMOOTH",
"2272.916 992 LINE SMOOTH",
"2237.651 792 OFFCURVE",
"1964.04 539 OFFCURVE",
"1756.04 539 QCURVE SMOOTH",
"1548.04 539 OFFCURVE",
"1364.651 792 OFFCURVE",
"1399.916 992 QCURVE SMOOTH"
);
},
{
closed = 1;
nodes = (
"1597.74 991 LINE SMOOTH",
"1575.347 864 OFFCURVE",
"1663.253 699 OFFCURVE",
"1784.253 699 QCURVE SMOOTH",
"1905.253 699 OFFCURVE",
"2052.346 864 OFFCURVE",
"2074.74 991 QCURVE SMOOTH",
"2079.148 1016 LINE SMOOTH",
"2101.542 1143 OFFCURVE",
"2011.636 1308 OFFCURVE",
"1891.636 1308 QCURVE SMOOTH",
"1771.636 1308 OFFCURVE",
"1624.542 1143 OFFCURVE",
"1602.148 1016 QCURVE SMOOTH"
);
},
{
closed = 1;
nodes = (
"1338 414 LINE",
"2131 414 LINE",
"2098.908 232 LINE",
"1305.908 232 LINE"
);
}
);
width = 2331;
}
);
unicode = 2116;
userData = {
public.markColor = "0,0.1,1,0.2";
};
},
{
glyphname = trademark;
layers = (
{
layerId = "1E68CFC6-8A63-43E3-914A-DAEC22AC2E91";
paths = (
{
closed = 1;
nodes = (
"150.969 1446 LINE",
"858.969 1446 LINE",
"831.109 1288 LINE",
"563.109 1288 LINE",
"457.666 690 LINE",
"285.666 690 LINE",
"391.109 1288 LINE",
"123.109 1288 LINE"
);
},
{
closed = 1;
nodes = (
"976.969 1446 LINE",
"1147.969 1446 LINE",
"1301.699 866 LINE",
"1309.699 866 LINE",
"1671.969 1446 LINE",
"1842.969 1446 LINE",
"1709.666 690 LINE",
"1560.666 690 LINE",
"1644.421 1165 LINE",
"1632.421 1165 LINE",
"1342.666 690 LINE",
"1206.666 690 LINE",
"1094.421 1165 LINE",
"1082.421 1165 LINE",
"998.666 690 LINE",
"843.666 690 LINE"
);
}
);
width = 1881;
}
);
unicode = 2122;
userData = {
public.markColor = "0,0.1,1,0.2";
};
},
{
glyphname = minus;
layers = (
{
layerId = "1E68CFC6-8A63-43E3-914A-DAEC22AC2E91";
paths = (
{
closed = 1;
nodes = (
"64.419 768 LINE",
"974.419 768 LINE",
"942.68 588 LINE",
"32.68 588 LINE"
);
}
);
width = 1024;
}
);
unicode = 2212;
userData = {
public.markColor = "0,0.1,1,0.2";
};
},
{
glyphname = divisionslash;
layers = (
{
layerId = "1E68CFC6-8A63-43E3-914A-DAEC22AC2E91";
paths = (
{
closed = 1;
nodes = (
"554 1555 LINE",
"695 1512 LINE",
"79 -161 LINE",
"-62 -118 LINE"
);
}
);
width = 656;
}
);
unicode = 2215;
},
{
glyphname = bulletoperator;
layers = (
{
layerId = "1E68CFC6-8A63-43E3-914A-DAEC22AC2E91";
paths = (
{
closed = 1;
nodes = (
"368 732 OFFCURVE",
"449 818 OFFCURVE",
"512 818 QCURVE SMOOTH",
"575 818 OFFCURVE",
"656 732 OFFCURVE",
"656 674 QCURVE SMOOTH",
"656 617 OFFCURVE",
"575 531 OFFCURVE",
"512 531 QCURVE SMOOTH",
"449 531 OFFCURVE",
"368 617 OFFCURVE",
"368 674 QCURVE SMOOTH"
);
}
);
width = 1024;
}
);
unicode = 2219;
},
{
glyphname = approxequal;
layers = (
{
layerId = "1E68CFC6-8A63-43E3-914A-DAEC22AC2E91";
paths = (
{
closed = 1;
nodes = (
"76.871 901 LINE",
"132.863 952 OFFCURVE",
"275.09 1010 OFFCURVE",
"340.267 1011 QCURVE SMOOTH",
"419.443 1012 OFFCURVE",
"503.861 969 OFFCURVE",
"561.395 938 QCURVE SMOOTH",
"615.105 908 OFFCURVE",
"693.052 868 OFFCURVE",
"767.052 868 QCURVE SMOOTH",
"832.052 868 OFFCURVE",
"969.042 936 OFFCURVE",
"1026.622 996 QCURVE",
"991.885 799 LINE",
"935.893 748 OFFCURVE",
"801.666 690 OFFCURVE",
"736.666 690 QCURVE SMOOTH",
"662.666 690 OFFCURVE",
"584.542 729 OFFCURVE",
"530.832 759 QCURVE SMOOTH",
"473.298 790 OFFCURVE",
"387.704 832 OFFCURVE",
"308.704 832 QCURVE SMOOTH",
"243.704 832 OFFCURVE",
"99.714 764 OFFCURVE",
"42.134 704 QCURVE"
);
},
{
closed = 1;
nodes = (
"2.342 484 LINE",
"58.335 535 OFFCURVE",
"200.386 592 OFFCURVE",
"265.562 593 QCURVE SMOOTH",
"344.738 594 OFFCURVE",
"429.156 551 OFFCURVE",
"486.69 520 QCURVE SMOOTH",
"540.4 490 OFFCURVE",
"618.523 451 OFFCURVE",
"692.523 451 QCURVE SMOOTH",
"757.523 451 OFFCURVE",
"894.514 519 OFFCURVE",
"952.093 579 QCURVE",
"917.181 381 LINE",
"861.188 330 OFFCURVE",
"726.961 272 OFFCURVE",
"661.961 272 QCURVE SMOOTH",
"587.961 272 OFFCURVE",
"509.838 311 OFFCURVE",
"456.128 341 QCURVE SMOOTH",
"398.594 372 OFFCURVE",
"313 414 OFFCURVE",
"234 414 QCURVE SMOOTH",
"169 414 OFFCURVE",
"25.185 347 OFFCURVE",
"-32.394 287 QCURVE"
);
}
);
width = 1024;
}
);
unicode = 2248;
userData = {
public.markColor = "0,0.1,1,0.2";
};
},
{
glyphname = notequal;
layers = (
{
layerId = "1E68CFC6-8A63-43E3-914A-DAEC22AC2E91";
paths = (
{
closed = 1;
nodes = (
"726.818 861 LINE",
"694.704 832 LINE",
"415.287 461 LINE",
"407.055 437 LINE",
"144.693 89 LINE",
"20.799 169 LINE",
"229.818 447 LINE",
"256.697 469 LINE",
"526.999 828 LINE",
"544.346 864 LINE",
"839.348 1261 LINE",
"963.242 1181 LINE"
);
},
{
closed = 1;
nodes = (
"25.98 550 LINE",
"935.98 550 LINE",
"906.181 381 LINE",
"-3.819 381 LINE"
);
},
{
closed = 1;
nodes = (
"95.629 945 LINE",
"1005.629 945 LINE",
"975.83 776 LINE",
"65.83 776 LINE"
);
}
);
width = 1024;
}
);
unicode = 2260;
userData = {
public.markColor = "0,0.1,1,0.2";
};
},
{
glyphname = lessequal;
layers = (
{
layerId = "1E68CFC6-8A63-43E3-914A-DAEC22AC2E91";
paths = (
{
closed = 1;
nodes = (
"73.149 602 LINE",
"98.54 746 LINE",
"978.078 1095 LINE",
"944.047 902 LINE",
"317.726 679 LINE",
"865.405 456 LINE",
"829.611 253 LINE"
);
},
{
closed = 1;
nodes = (
"-46.024 170 LINE",
"863.976 170 LINE",
"834.176 1 LINE",
"-75.824 1 LINE"
);
}
);
width = 1024;
}
);
unicode = 2264;
userData = {
public.markColor = "0,0.1,1,0.2";
};
},
{
glyphname = greaterequal;
layers = (
{
layerId = "1E68CFC6-8A63-43E3-914A-DAEC22AC2E91";
paths = (
{
closed = 1;
nodes = (
"63.405 456 LINE",
"689.726 679 LINE",
"142.047 902 LINE",
"176.078 1095 LINE",
"932.54 746 LINE",
"907.149 602 LINE",
"27.611 253 LINE"
);
},
{
closed = 1;
nodes = (
"-65.824 1 LINE",
"-36.024 170 LINE",
"873.976 170 LINE",
"844.176 1 LINE"
);
}
);
width = 1024;
}
);
unicode = 2265;
userData = {
public.markColor = "0,0.1,1,0.2";
};
},
{
glyphname = leftanglebracket;
layers = (
{
layerId = "1E68CFC6-8A63-43E3-914A-DAEC22AC2E91";
paths = (
{
closed = 1;
nodes = (
"-26.743 665 LINE",
"722.314 1499 LINE",
"820.15 1413 LINE",
"153.501 604 LINE",
"531.384 -219 LINE",
"404.397 -304 LINE",
"-49.489 536 LINE"
);
}
);
width = 700;
}
);
rightKerningGroup = parens;
unicode = 27E8;
userData = {
public.markColor = "0,0.1,1,0.2";
};
},
{
glyphname = rightanglebracket;
layers = (
{
layerId = "1E68CFC6-8A63-43E3-914A-DAEC22AC2E91";
paths = (
{
closed = 1;
nodes = (
"484.209 591 LINE",
"106.326 1414 LINE",
"233.314 1499 LINE",
"687.199 659 LINE",
"664.453 530 LINE",
"-84.603 -304 LINE",
"-182.439 -218 LINE"
);
}
);
width = 700;
}
);
leftKerningGroup = parens;
unicode = 27E9;
userData = {
public.markColor = "0,0.1,1,0.2";
};
},
{
glyphname = diagonalbarL;
layers = (
{
layerId = "1E68CFC6-8A63-43E3-914A-DAEC22AC2E91";
paths = (
{
closed = 1;
nodes = (
"-25.025 584 LINE",
"711.445 995 LINE",
"768.641 860 LINE",
"30.642 446 LINE"
);
}
);
width = 741;
}
);
userData = {
public.markColor = "0,0.1,1,0.2";
};
},
{
glyphname = diagonalbarO;
layers = (
{
layerId = "1E68CFC6-8A63-43E3-914A-DAEC22AC2E91";
paths = (
{
closed = 1;
nodes = (
"-55.836 86 LINE",
"-38.718 81 LINE",
"306.581 871 LINE",
"402.591 803 LINE",
"77.522 54 LINE",
"96.816 50 LINE",
"25.78 -109 LINE",
"-144.22 -109 LINE"
);
},
{
closed = 1;
nodes = (
"780.297 1618 LINE",
"693.09 1424 LINE",
"672.795 1428 LINE",
"402.591 803 LINE",
"306.581 871 LINE",
"557.556 1455 LINE",
"538.437 1460 LINE",
"609.297 1618 LINE"
);
}
);
width = 623;
}
);
userData = {
public.markColor = "0,0.1,1,0.2";
};
},
{
glyphname = diagonalbarl;
layers = (
{
layerId = "1E68CFC6-8A63-43E3-914A-DAEC22AC2E91";
paths = (
{
closed = 1;
nodes = (
"-19.735 614 LINE",
"289.296 807 LINE",
"592.911 1026 LINE",
"647.873 884 LINE",
"343.666 690 LINE",
"38.697 469 LINE"
);
}
);
width = 629;
}
);
userData = {
public.markColor = "0,0.1,1,0.2";
};
},
{
glyphname = diagonalbaro;
layers = (
{
layerId = "1E68CFC6-8A63-43E3-914A-DAEC22AC2E91";
paths = (
{
closed = 1;
nodes = (
"-116.307 89 LINE",
"-99.189 84 LINE",
"189.975 584 LINE",
"276.632 514 LINE",
"12.698 55 LINE",
"31.993 51 LINE",
"-72.688 -123 LINE",
"-236.807 -118 LINE"
);
},
{
closed = 1;
nodes = (
"662.189 1141 LINE",
"550.158 948 LINE",
"530.04 953 LINE",
"276.632 514 LINE",
"189.975 584 LINE",
"418.977 981 LINE",
"400.035 987 LINE",
"491.718 1144 LINE"
);
}
);
width = 512;
}
);
userData = {
public.markColor = "0,0.1,1,0.2";
};
},
{
glyphname = engtail;
layers = (
{
layerId = "1E68CFC6-8A63-43E3-914A-DAEC22AC2E91";
paths = (
{
closed = 1;
nodes = (
"427.502 190 LINE",
"359.616 -195 LINE SMOOTH",
"341.984 -295 OFFCURVE",
"194.887 -443 OFFCURVE",
"62.887 -443 QCURVE SMOOTH",
"-9.113 -443 OFFCURVE",
"-128.181 -381 OFFCURVE",
"-159.012 -329 QCURVE",
"-82.787 -254 LINE",
"-48.016 -295 OFFCURVE",
"1.694 -325 OFFCURVE",
"42.694 -325 QCURVE SMOOTH",
"86.694 -325 OFFCURVE",
"161.273 -265 OFFCURVE",
"178.906 -165 QCURVE",
"197.42 -60 OFFCURVE",
"215.935 45 OFFCURVE",
"234.449 150 QCURVE",
"304.502 190 LINE"
);
}
);
width = 629;
}
);
userData = {
public.markColor = "0,0.1,1,0.2";
};
},
{
glyphname = horizontalbarH;
layers = (
{
layerId = "1E68CFC6-8A63-43E3-914A-DAEC22AC2E91";
paths = (
{
closed = 1;
nodes = (
"1272.735 1025 LINE",
"1296.892 1162 LINE",
"1529.245 1164 LINE",
"1495.088 1027 LINE"
);
},
{
closed = 1;
nodes = (
"82.892 1162 LINE",
"321.892 1162 LINE",
"297.735 1025 LINE",
"67.735 1025 LINE"
);
},
{
closed = 1;
nodes = (
"320.129 1152 LINE",
"1295.129 1152 LINE",
"1274.498 1035 LINE",
"299.498 1035 LINE"
);
}
);
width = 1458;
}
);
userData = {
public.markColor = "0,0.1,1,0.2";
};
},
{
glyphname = horizontalbarlc;
layers = (
{
layerId = "1E68CFC6-8A63-43E3-914A-DAEC22AC2E91";
paths = (
{
closed = 1;
nodes = (
"16.67 656 LINE",
"53.414 802 LINE",
"364.414 802 LINE",
"649.414 802 LINE",
"623.67 656 LINE",
"298.671 656 LINE"
);
}
);
width = 636;
}
);
userData = {
public.markColor = "0,0.1,1,0.2";
};
},
{
glyphname = idotless;
layers = (
{
layerId = "1E68CFC6-8A63-43E3-914A-DAEC22AC2E91";
paths = (
{
closed = 1;
nodes = (
"210 1052 LINE",
"390 1052 LINE",
"205 0 LINE",
"24 0 LINE"
);
}
);
width = 485;
}
);
leftKerningGroup = mnpr_LC;
rightKerningGroup = u_LC;
},
{
glyphname = jdotless;
layers = (
{
layerId = "1E68CFC6-8A63-43E3-914A-DAEC22AC2E91";
paths = (
{
closed = 1;
nodes = (
"-265 -260 LINE",
"-247 -266 OFFCURVE",
"-177 -280 OFFCURVE",
"-148 -280 QCURVE SMOOTH",
"-90 -280 OFFCURVE",
"-13 -210 OFFCURVE",
"1 -130 QCURVE SMOOTH",
"210 1052 LINE",
"390 1052 LINE",
"189 -90 LINE SMOOTH",
"157 -270 OFFCURVE",
"-7 -436 OFFCURVE",
"-137 -436 QCURVE SMOOTH",
"-176 -436 OFFCURVE",
"-269 -419 OFFCURVE",
"-291 -410 QCURVE"
);
}
);
width = 485;
}
);
rightKerningGroup = j_LC;
},
{
glyphname = zerosuperior;
layers = (
{
layerId = "1E68CFC6-8A63-43E3-914A-DAEC22AC2E91";
paths = (
{
closed = 1;
nodes = (
"140.013 1140 LINE SMOOTH",
"168.225 1300 OFFCURVE",
"368.785 1496 OFFCURVE",
"528.785 1496 QCURVE SMOOTH",
"688.785 1496 OFFCURVE",
"821.225 1300 OFFCURVE",
"793.013 1140 QCURVE SMOOTH",
"774.675 1036 LINE SMOOTH",
"746.462 876 OFFCURVE",
"544.902 680 OFFCURVE",
"384.902 680 QCURVE SMOOTH",
"224.902 680 OFFCURVE",
"93.462 876 OFFCURVE",
"121.675 1036 QCURVE SMOOTH"
);
},
{
closed = 1;
nodes = (
"269.805 946 OFFCURVE",
"321.351 830 OFFCURVE",
"411.351 830 QCURVE SMOOTH",
"501.351 830 OFFCURVE",
"594.805 946 OFFCURVE",
"610.675 1036 QCURVE SMOOTH",
"629.013 1140 LINE SMOOTH",
"644.882 1230 OFFCURVE",
"592.336 1346 OFFCURVE",
"502.336 1346 QCURVE SMOOTH",
"412.336 1346 OFFCURVE",
"319.882 1230 OFFCURVE",
"304.013 1140 QCURVE SMOOTH",
"285.675 1036 LINE SMOOTH"
);
}
);
width = 787;
}
);
userData = {
public.markColor = "0,0.1,1,0.2";
};
},
{
glyphname = gravecomb.case;
layers = (
{
layerId = "1E68CFC6-8A63-43E3-914A-DAEC22AC2E91";
paths = (
{
closed = 1;
nodes = (
"570 1983 LINE",
"415 1877 LINE",
"619 1580 LINE",
"738 1654 LINE"
);
}
);
width = 1024;
}
);
userData = {
public.markColor = "0,0.1,1,0.2";
};
},
{
glyphname = acutecomb.case;
layers = (
{
layerId = "1E68CFC6-8A63-43E3-914A-DAEC22AC2E91";
paths = (
{
closed = 1;
nodes = (
"828.893 1973 LINE",
"973.437 1874 LINE",
"672.715 1575 LINE",
"556.118 1634 LINE"
);
}
);
width = 1024;
}
);
userData = {
public.markColor = "0,0.1,1,0.2";
};
},
{
glyphname = circumflexcomb.case;
layers = (
{
layerId = "1E68CFC6-8A63-43E3-914A-DAEC22AC2E91";
paths = (
{
closed = 1;
nodes = (
"998.295 1635 LINE",
"830.942 1633 LINE",
"697.386 1817 LINE",
"505.295 1635 LINE",
"332.295 1635 LINE",
"649.246 1975 LINE",
"793.246 1975 LINE"
);
}
);
width = 1024;
}
);
userData = {
public.markColor = "0,0.1,1,0.2";
};
},
{
glyphname = tildecomb.case;
layers = (
{
layerId = "1E68CFC6-8A63-43E3-914A-DAEC22AC2E91";
paths = (
{
closed = 1;
nodes = (
"336.855 1831 OFFCURVE",
"507.78 1944 OFFCURVE",
"584.78 1944 QCURVE SMOOTH",
"630.78 1944 OFFCURVE",
"707.49 1914 OFFCURVE",
"744.553 1886 QCURVE SMOOTH",
"771.379 1868 OFFCURVE",
"858.505 1812 OFFCURVE",
"905.505 1812 QCURVE SMOOTH",
"951.505 1812 OFFCURVE",
"1046.555 1869 OFFCURVE",
"1079.432 1908 QCURVE",
"1132.444 1823 LINE",
"1075.985 1741 OFFCURVE",
"921.292 1652 OFFCURVE",
"858.292 1652 QCURVE SMOOTH",
"805.292 1652 OFFCURVE",
"706.932 1701 OFFCURVE",
"678.811 1723 QCURVE SMOOTH",
"647.22 1748 OFFCURVE",
"570.92 1786 OFFCURVE",
"537.92 1786 QCURVE SMOOTH",
"484.92 1786 OFFCURVE",
"372.99 1707 OFFCURVE",
"347.7 1677 QCURVE",
"287.688 1762 LINE"
);
}
);
width = 1024;
}
);
userData = {
public.markColor = "0,0.1,1,0.2";
};
},
{
glyphname = macroncomb.case;
layers = (
{
layerId = "1E68CFC6-8A63-43E3-914A-DAEC22AC2E91";
paths = (
{
closed = 1;
nodes = (
"410.678 1830 LINE",
"1002.678 1830 LINE",
"975.171 1674 LINE",
"383.171 1674 LINE"
);
}
);
width = 1024;
}
);
userData = {
public.markColor = "0,0.1,1,0.2";
};
},
{
glyphname = brevecomb.case;
layers = (
{
layerId = "1E68CFC6-8A63-43E3-914A-DAEC22AC2E91";
paths = (
{
closed = 1;
nodes = (
"1104.079 1906 LINE",
"1047.623 1807 OFFCURVE",
"817.176 1640 OFFCURVE",
"673.176 1640 QCURVE SMOOTH",
"545.176 1640 OFFCURVE",
"365.154 1793 OFFCURVE",
"337.256 1907 QCURVE",
"449.422 1976 LINE",
"481.314 1913 OFFCURVE",
"607.976 1809 OFFCURVE",
"702.976 1809 QCURVE SMOOTH",
"804.976 1809 OFFCURVE",
"968.432 1908 OFFCURVE",
"1023.422 1976 QCURVE"
);
}
);
width = 1024;
}
);
userData = {
public.markColor = "0,0.1,1,0.2";
};
},
{
glyphname = dotaccentcomb.case;
layers = (
{
layerId = "1E68CFC6-8A63-43E3-914A-DAEC22AC2E91";
paths = (
{
closed = 1;
nodes = (
"589.029 1849 OFFCURVE",
"661.785 1910 OFFCURVE",
"720.785 1910 QCURVE SMOOTH",
"775.785 1910 OFFCURVE",
"830.323 1845 OFFCURVE",
"820.978 1792 QCURVE SMOOTH",
"810.927 1735 OFFCURVE",
"738.171 1674 OFFCURVE",
"679.171 1674 QCURVE SMOOTH",
"624.171 1674 OFFCURVE",
"569.633 1739 OFFCURVE",
"578.978 1792 QCURVE SMOOTH"
);
}
);
width = 1024;
}
);
userData = {
public.markColor = "0,0.1,1,0.2";
};
},
{
glyphname = dieresiscomb.case;
layers = (
{
layerId = "1E68CFC6-8A63-43E3-914A-DAEC22AC2E91";
paths = (
{
closed = 1;
nodes = (
"362.794 1842 OFFCURVE",
"433.198 1901 OFFCURVE",
"489.198 1901 QCURVE SMOOTH",
"542.198 1901 OFFCURVE",
"594.089 1838 OFFCURVE",
"585.096 1787 QCURVE SMOOTH",
"575.575 1733 OFFCURVE",
"506.171 1674 OFFCURVE",
"449.171 1674 QCURVE SMOOTH",
"396.171 1674 OFFCURVE",
"344.104 1736 OFFCURVE",
"353.096 1787 QCURVE SMOOTH"
);
},
{
closed = 1;
nodes = (
"822.794 1842 OFFCURVE",
"893.198 1901 OFFCURVE",
"949.198 1901 QCURVE SMOOTH",
"1002.198 1901 OFFCURVE",
"1054.089 1838 OFFCURVE",
"1045.096 1787 QCURVE SMOOTH",
"1035.575 1733 OFFCURVE",
"966.171 1674 OFFCURVE",
"909.171 1674 QCURVE SMOOTH",
"856.171 1674 OFFCURVE",
"804.104 1736 OFFCURVE",
"813.096 1787 QCURVE SMOOTH"
);
}
);
width = 1024;
}
);
userData = {
public.markColor = "0,0.1,1,0.2";
};
},
{
glyphname = hookabovecomb.case;
layers = (
{
layerId = "1E68CFC6-8A63-43E3-914A-DAEC22AC2E91";
paths = (
{
closed = 1;
nodes = (
"530.944 1616 LINE SMOOTH",
"540.113 1668 OFFCURVE",
"611.456 1738 OFFCURVE",
"689.396 1749 QCURVE SMOOTH",
"746.807 1757 OFFCURVE",
"792.449 1789 OFFCURVE",
"799.678 1830 QCURVE SMOOTH",
"806.555 1869 OFFCURVE",
"753.903 1905 OFFCURVE",
"699.903 1905 QCURVE SMOOTH",
"635.903 1905 OFFCURVE",
"518.084 1872 OFFCURVE",
"506.673 1864 QCURVE",
"474.714 1989 LINE",
"513.065 2008 OFFCURVE",
"674.294 2049 OFFCURVE",
"756.294 2049 QCURVE SMOOTH",
"876.294 2049 OFFCURVE",
"981.193 1935 OFFCURVE",
"964.265 1839 QCURVE SMOOTH",
"946.456 1738 OFFCURVE",
"797.473 1619 OFFCURVE",
"652.534 1608 QCURVE",
"647.068 1577 LINE",
"524.068 1577 LINE"
);
}
);
width = 1024;
}
);
userData = {
public.markColor = "0,0.1,1,0.2";
};
},
{
glyphname = ringcomb.case;
layers = (
{
layerId = "1E68CFC6-8A63-43E3-914A-DAEC22AC2E91";
paths = (
{
closed = 1;
nodes = (
"483.9 1922 OFFCURVE",
"641.647 2051 OFFCURVE",
"745.647 2051 QCURVE SMOOTH",
"849.647 2051 OFFCURVE",
"961.9 1922 OFFCURVE",
"944.268 1822 QCURVE SMOOTH",
"926.635 1722 OFFCURVE",
"768.889 1593 OFFCURVE",
"664.889 1593 QCURVE",
"560.889 1593 OFFCURVE",
"448.635 1722 OFFCURVE",
"466.268 1822 QCURVE SMOOTH"
);
},
{
closed = 1;
nodes = (
"583.275 1771 OFFCURVE",
"633.343 1709 OFFCURVE",
"685.343 1709 QCURVE SMOOTH",
"740.343 1709 OFFCURVE",
"808.57 1767 OFFCURVE",
"818.268 1822 QCURVE SMOOTH",
"827.26 1873 OFFCURVE",
"777.193 1935 OFFCURVE",
"725.193 1935 QCURVE SMOOTH",
"670.193 1935 OFFCURVE",
"601.966 1877 OFFCURVE",
"592.268 1822 QCURVE SMOOTH"
);
}
);
width = 1024;
}
);
userData = {
public.markColor = "0,0.1,1,0.2";
};
},
{
glyphname = caroncomb.case;
layers = (
{
layerId = "1E68CFC6-8A63-43E3-914A-DAEC22AC2E91";
paths = (
{
closed = 1;
nodes = (
"391.893 1973 LINE",
"559.246 1975 LINE",
"692.802 1791 LINE",
"884.893 1973 LINE",
"1057.893 1973 LINE",
"740.942 1633 LINE",
"596.942 1633 LINE"
);
}
);
width = 1024;
}
);
userData = {
public.markColor = "0,0.1,1,0.2";
};
},
{
glyphname = breveinvertedcomb.case;
layers = (
{
layerId = "1E68CFC6-8A63-43E3-914A-DAEC22AC2E91";
paths = (
{
closed = 1;
nodes = (
"297.758 1683 LINE",
"354.215 1782 OFFCURVE",
"584.661 1949 OFFCURVE",
"728.661 1949 QCURVE SMOOTH",
"856.661 1949 OFFCURVE",
"1036.683 1796 OFFCURVE",
"1064.582 1682 QCURVE",
"952.415 1613 LINE",
"920.524 1676 OFFCURVE",
"793.862 1780 OFFCURVE",
"698.862 1780 QCURVE SMOOTH",
"596.862 1780 OFFCURVE",
"433.406 1681 OFFCURVE",
"378.415 1613 QCURVE"
);
}
);
width = 1024;
}
);
userData = {
public.markColor = "0,0.1,1,0.2";
};
},
{
glyphname = horncomb.case;
layers = (
{
layerId = "1E68CFC6-8A63-43E3-914A-DAEC22AC2E91";
paths = (
{
closed = 1;
nodes = (
"740.677 1536 LINE SMOOTH",
"803.677 1536 OFFCURVE",
"889.609 1567 OFFCURVE",
"909.71 1624 QCURVE SMOOTH",
"924.169 1665 OFFCURVE",
"938.913 1738 OFFCURVE",
"942.608 1774 QCURVE",
"1062.608 1774 LINE",
"1068.676 1743 OFFCURVE",
"1063.884 1633 OFFCURVE",
"1043.077 1574 QCURVE SMOOTH",
"1012.044 1486 OFFCURVE",
"869.005 1415 OFFCURVE",
"773.005 1415 QCURVE SMOOTH",
"727.005 1415 OFFCURVE",
"654.532 1425 OFFCURVE",
"631 1432 QCURVE",
"667.677 1536 LINE"
);
}
);
width = 1024;
}
);
userData = {
public.markColor = "0,0.1,1,0.2";
};
},
{
glyphname = commaaccentcomb.case;
layers = (
{
layerId = "1E68CFC6-8A63-43E3-914A-DAEC22AC2E91";
paths = (
{
closed = 1;
nodes = (
"138.078 -544 OFFCURVE",
"204.877 -375 OFFCURVE",
"261.387 -236 QCURVE",
"475.739 -234 LINE",
"265.211 -651 LINE",
"90.74 -648 LINE"
);
}
);
width = 1024;
}
);
userData = {
public.markColor = "0,0.1,1,0.2";
};
},
{
glyphname = cedillacomb.case;
layers = (
{
layerId = "1E68CFC6-8A63-43E3-914A-DAEC22AC2E91";
paths = (
{
closed = 1;
nodes = (
"446.642 32 LINE",
"396.602 -93 LINE",
"473.133 -107 OFFCURVE",
"580.911 -199 OFFCURVE",
"567.334 -276 QCURVE SMOOTH",
"549.172 -379 OFFCURVE",
"302.955 -505 OFFCURVE",
"100.955 -505 QCURVE",
"117.935 -369 LINE",
"225.759 -370 OFFCURVE",
"355.636 -331 OFFCURVE",
"364.981 -278 QCURVE SMOOTH",
"373.621 -229 OFFCURVE",
"311.145 -192 OFFCURVE",
"228.38 -185 QCURVE",
"307.642 32 LINE"
);
}
);
width = 1024;
}
);
userData = {
public.markColor = "0,0.1,1,0.2";
};
},
{
glyphname = ogonekcomb.case;
layers = (
{
layerId = "1E68CFC6-8A63-43E3-914A-DAEC22AC2E91";
paths = (
{
closed = 1;
nodes = (
"54.737 -217 OFFCURVE",
"213.771 -41 OFFCURVE",
"348.993 51 QCURVE",
"435 0 LINE",
"311.486 -105 OFFCURVE",
"229.911 -199 OFFCURVE",
"221.976 -244 QCURVE SMOOTH",
"213.513 -292 OFFCURVE",
"263.815 -347 OFFCURVE",
"315.815 -347 QCURVE SMOOTH",
"362.815 -347 OFFCURVE",
"502.926 -301 OFFCURVE",
"573.213 -254 QCURVE",
"612.051 -357 LINE",
"556.295 -418 OFFCURVE",
"366.365 -497 OFFCURVE",
"262.365 -497 QCURVE SMOOTH",
"157.365 -497 OFFCURVE",
"25.29 -384 OFFCURVE",
"39.044 -306 QCURVE SMOOTH"
);
}
);
width = 1024;
}
);
userData = {
public.markColor = "0,0.1,1,0.2";
};
},
{
glyphname = acutecombstack.case;
layers = (
{
layerId = "1E68CFC6-8A63-43E3-914A-DAEC22AC2E91";
paths = (
{
closed = 1;
nodes = (
"819.251 1941 LINE",
"906.333 1777 LINE",
"539.005 1605 LINE",
"476.401 1715 LINE"
);
}
);
width = 1024;
}
);
userData = {
public.markColor = "0,0.1,1,0.2";
};
},
{
glyphname = brevecombstack.case;
layers = (
{
layerId = "1E68CFC6-8A63-43E3-914A-DAEC22AC2E91";
paths = (
{
closed = 1;
nodes = (
"1074.147 1844 LINE",
"1021.807 1757 OFFCURVE",
"804.886 1610 OFFCURVE",
"667.886 1610 QCURVE SMOOTH",
"545.886 1610 OFFCURVE",
"373.691 1745 OFFCURVE",
"345.323 1845 QCURVE",
"466.785 1910 LINE",
"496.263 1856 OFFCURVE",
"610.922 1769 OFFCURVE",
"695.922 1769 QCURVE SMOOTH",
"787.922 1769 OFFCURVE",
"933.558 1852 OFFCURVE",
"982.785 1910 QCURVE"
);
}
);
width = 1024;
}
);
userData = {
public.markColor = "0,0.1,1,0.2";
};
},
{
glyphname = circumflexcombstack.case;
layers = (
{
layerId = "1E68CFC6-8A63-43E3-914A-DAEC22AC2E91";
paths = (
{
closed = 1;
nodes = (
"989.478 1585 LINE",
"827.126 1583 LINE",
"680.635 1722 LINE",
"491.478 1585 LINE",
"323.478 1585 LINE",
"631.613 1875 LINE",
"775.613 1875 LINE"
);
}
);
width = 1024;
}
);
userData = {
public.markColor = "0,0.1,1,0.2";
};
},
{
glyphname = dieresiscombstack.case;
layers = (
{
layerId = "1E68CFC6-8A63-43E3-914A-DAEC22AC2E91";
paths = (
{
closed = 1;
nodes = (
"352.215 1782 OFFCURVE",
"422.618 1841 OFFCURVE",
"478.618 1841 QCURVE SMOOTH",
"531.618 1841 OFFCURVE",
"583.509 1778 OFFCURVE",
"574.517 1727 QCURVE SMOOTH",
"564.995 1673 OFFCURVE",
"495.592 1614 OFFCURVE",
"438.592 1614 QCURVE SMOOTH",
"385.592 1614 OFFCURVE",
"333.524 1676 OFFCURVE",
"342.517 1727 QCURVE SMOOTH"
);
},
{
closed = 1;
nodes = (
"812.215 1782 OFFCURVE",
"882.618 1841 OFFCURVE",
"938.618 1841 QCURVE SMOOTH",
"991.618 1841 OFFCURVE",
"1043.509 1778 OFFCURVE",
"1034.517 1727 QCURVE SMOOTH",
"1024.995 1673 OFFCURVE",
"955.592 1614 OFFCURVE",
"898.592 1614 QCURVE SMOOTH",
"845.592 1614 OFFCURVE",
"793.524 1676 OFFCURVE",
"802.517 1727 QCURVE SMOOTH"
);
}
);
width = 1024;
}
);
userData = {
public.markColor = "0,0.1,1,0.2";
};
},
{
glyphname = dotaccentcombstack.case;
layers = (
{
layerId = "1E68CFC6-8A63-43E3-914A-DAEC22AC2E91";
paths = (
{
closed = 1;
nodes = (
"589.029 1849 OFFCURVE",
"661.785 1910 OFFCURVE",
"720.785 1910 QCURVE SMOOTH",
"775.785 1910 OFFCURVE",
"830.323 1845 OFFCURVE",
"820.978 1792 QCURVE SMOOTH",
"810.927 1735 OFFCURVE",
"738.171 1674 OFFCURVE",
"679.171 1674 QCURVE SMOOTH",
"624.171 1674 OFFCURVE",
"569.633 1739 OFFCURVE",
"578.978 1792 QCURVE SMOOTH"
);
}
);
width = 1024;
}
);
userData = {
public.markColor = "0,0.1,1,0.2";
};
},
{
glyphname = gravecombstack.case;
layers = (
{
layerId = "1E68CFC6-8A63-43E3-914A-DAEC22AC2E91";
paths = (
{
closed = 1;
nodes = (
"438.63 1756 LINE",
"574.371 1919 LINE",
"887.287 1686 LINE",
"788.833 1570 LINE"
);
}
);
width = 1024;
}
);
userData = {
public.markColor = "0,0.1,1,0.2";
};
},
{
glyphname = hookabovecombstack.case;
layers = (
{
layerId = "1E68CFC6-8A63-43E3-914A-DAEC22AC2E91";
paths = (
{
closed = 1;
nodes = (
"514.299 1601 LINE SMOOTH",
"522.234 1646 OFFCURVE",
"583.051 1696 OFFCURVE",
"651.99 1707 QCURVE SMOOTH",
"697.224 1714 OFFCURVE",
"734.162 1742 OFFCURVE",
"740.509 1778 QCURVE SMOOTH",
"745.623 1807 OFFCURVE",
"708.207 1833 OFFCURVE",
"659.207 1833 QCURVE SMOOTH",
"603.207 1833 OFFCURVE",
"499.094 1804 OFFCURVE",
"488.86 1797 QCURVE",
"461.842 1916 LINE",
"495.84 1933 OFFCURVE",
"638.011 1968 OFFCURVE",
"712.011 1968 QCURVE SMOOTH",
"818.011 1968 OFFCURVE",
"910.555 1869 OFFCURVE",
"895.744 1785 QCURVE SMOOTH",
"880.403 1698 OFFCURVE",
"771.357 1607 OFFCURVE",
"662.594 1597 QCURVE",
"655.012 1554 LINE",
"506.012 1554 LINE"
);
}
);
width = 1024;
}
);
userData = {
public.markColor = "0,0.1,1,0.2";
};
},
{
glyphname = macroncombstack.case;
layers = (
{
layerId = "1E68CFC6-8A63-43E3-914A-DAEC22AC2E91";
paths = (
{
closed = 1;
nodes = (
"410.678 1830 LINE",
"1002.678 1830 LINE",
"975.171 1674 LINE",
"383.171 1674 LINE"
);
}
);
width = 1024;
}
);
userData = {
public.markColor = "0,0.1,1,0.2";
};
},
{
glyphname = tildecombstack.case;
layers = (
{
layerId = "1E68CFC6-8A63-43E3-914A-DAEC22AC2E91";
paths = (
{
closed = 1;
nodes = (
"410.852 1848 OFFCURVE",
"547.9 1922 OFFCURVE",
"614.9 1922 QCURVE SMOOTH",
"649.9 1922 OFFCURVE",
"719.021 1900 OFFCURVE",
"750.437 1874 QCURVE SMOOTH",
"776.558 1852 OFFCURVE",
"836.386 1817 OFFCURVE",
"868.386 1817 QCURVE SMOOTH",
"908.386 1817 OFFCURVE",
"962.439 1857 OFFCURVE",
"990.316 1896 QCURVE",
"1068.27 1805 LINE",
"1023.222 1731 OFFCURVE",
"896.174 1657 OFFCURVE",
"831.174 1657 QCURVE SMOOTH",
"782.174 1657 OFFCURVE",
"706.345 1692 OFFCURVE",
"679.872 1712 QCURVE SMOOTH",
"652.575 1733 OFFCURVE",
"595.099 1770 OFFCURVE",
"571.099 1770 QCURVE SMOOTH",
"535.099 1770 OFFCURVE",
"464.401 1715 OFFCURVE",
"440.111 1685 QCURVE",
"358.157 1776 LINE"
);
}
);
width = 1024;
}
);
userData = {
public.markColor = "0,0.1,1,0.2";
};
},
{
glyphname = caroncomb.alt;
layers = (
{
layerId = "1E68CFC6-8A63-43E3-914A-DAEC22AC2E91";
paths = (
{
closed = 1;
nodes = (
"621.14 1481 LINE",
"801.619 1427 LINE",
"572.378 1057 LINE",
"450.549 1092 LINE"
);
}
);
width = 1024;
}
);
userData = {
public.markColor = "0,0.1,1,0.2";
};
},
{
glyphname = dollar.rvrn;
layers = (
{
layerId = "1E68CFC6-8A63-43E3-914A-DAEC22AC2E91";
paths = (
{
closed = 1;
nodes = (
"-39 392 LINE",
"133 392 LINE",
"131 381 LINE SMOOTH",
"110 261 OFFCURVE",
"249 143 OFFCURVE",
"393 143 QCURVE SMOOTH",
"535 143 OFFCURVE",
"710 265 OFFCURVE",
"728 365 QCURVE SMOOTH",
"744 455 OFFCURVE",
"630 608 OFFCURVE",
"428 670 QCURVE SMOOTH",
"226 731 OFFCURVE",
"86 946 OFFCURVE",
"113 1099 QCURVE SMOOTH",
"141 1254 OFFCURVE",
"409 1458 OFFCURVE",
"615 1458 QCURVE SMOOTH",
"822 1458 OFFCURVE",
"1026 1235 OFFCURVE",
"998 1076 QCURVE SMOOTH",
"996 1065 LINE",
"824 1065 LINE",
"826 1076 LINE SMOOTH",
"845 1181 OFFCURVE",
"727 1308 OFFCURVE",
"589 1308 QCURVE SMOOTH",
"451 1308 OFFCURVE",
"301 1199 OFFCURVE",
"283 1099 QCURVE SMOOTH",
"269 1018 OFFCURVE",
"378 873 OFFCURVE",
"577 812 QCURVE SMOOTH",
"775 752 OFFCURVE",
"926 527 OFFCURVE",
"898 365 QCURVE SMOOTH",
"869 202 OFFCURVE",
"581 -6 OFFCURVE",
"367 -6 QCURVE SMOOTH",
"151 -6 OFFCURVE",
"-72 202 OFFCURVE",
"-40 381 QCURVE SMOOTH"
);
},
{
closed = 1;
nodes = (
"314 104 LINE",
"445 104 LINE",
"441 80 LINE",
"453 70 LINE",
"410 -170 LINE",
"265 -170 LINE"
);
},
{
closed = 1;
nodes = (
"553 1386 LINE",
"541 1396 LINE",
"575 1586 LINE",
"720 1586 LINE",
"678 1350 LINE",
"546 1350 LINE"
);
}
);
width = 993;
}
);
},
{
glyphname = zero.prop;
layers = (
{
layerId = "1E68CFC6-8A63-43E3-914A-DAEC22AC2E91";
paths = (
{
closed = 1;
nodes = (
"157.622 996 LINE SMOOTH",
"196.414 1216 OFFCURVE",
"492.022 1486 OFFCURVE",
"712.022 1486 QCURVE SMOOTH",
"930.022 1486 OFFCURVE",
"1132.414 1216 OFFCURVE",
"1093.622 996 QCURVE SMOOTH",
"999.11 460 LINE SMOOTH",
"960.318 240 OFFCURVE",
"662.71 -30 OFFCURVE",
"444.71 -30 QCURVE SMOOTH",
"224.71 -30 OFFCURVE",
"24.318 240 OFFCURVE",
"63.11 460 QCURVE SMOOTH"
);
},
{
closed = 1;
nodes = (
"230.661 310 OFFCURVE",
"332.57 128 OFFCURVE",
"472.57 128 QCURVE SMOOTH",
"612.57 128 OFFCURVE",
"778.661 310 OFFCURVE",
"803.347 450 QCURVE SMOOTH",
"901.385 1006 LINE SMOOTH",
"926.071 1146 OFFCURVE",
"824.162 1328 OFFCURVE",
"684.162 1328 QCURVE SMOOTH",
"544.162 1328 OFFCURVE",
"378.071 1146 OFFCURVE",
"353.385 1006 QCURVE SMOOTH",
"255.347 450 LINE SMOOTH"
);
}
);
width = 1156;
}
);
userData = {
public.markColor = "0,0.1,1,0.2";
};
},
{
glyphname = one.prop;
layers = (
{
layerId = "1E68CFC6-8A63-43E3-914A-DAEC22AC2E91";
paths = (
{
closed = 1;
nodes = (
"484.527 1245 LINE",
"89.196 1090 LINE",
"121.993 1276 LINE",
"687.259 1476 LINE",
"717.259 1476 LINE",
"457 0 LINE",
"265 0 LINE"
);
}
);
width = 736;
}
);
userData = {
public.markColor = "0,0.1,1,0.2";
};
},
{
glyphname = two.prop;
layers = (
{
layerId = "1E68CFC6-8A63-43E3-914A-DAEC22AC2E91";
paths = (
{
closed = 1;
nodes = (
"-77.314 140 LINE",
"541.429 700 LINE SMOOTH",
"664.825 810 OFFCURVE",
"800.8 980 OFFCURVE",
"818.433 1080 QCURVE SMOOTH",
"836.066 1180 OFFCURVE",
"727.162 1328 OFFCURVE",
"607.162 1328 QCURVE SMOOTH",
"487.162 1328 OFFCURVE",
"294.303 1170 OFFCURVE",
"269.617 1030 QCURVE SMOOTH",
"267.854 1020 LINE",
"77.854 1020 LINE",
"79.617 1030 LINE SMOOTH",
"114.882 1230 OFFCURVE",
"435.022 1486 OFFCURVE",
"635.022 1486 QCURVE SMOOTH",
"835.022 1486 OFFCURVE",
"1038.409 1250 OFFCURVE",
"1010.196 1090 QCURVE SMOOTH",
"985.158 948 OFFCURVE",
"784.25 716 OFFCURVE",
"647.915 595 QCURVE SMOOTH",
"155.507 156 LINE",
"885.507 156 LINE",
"858 0 LINE",
"-102 0 LINE"
);
}
);
width = 988;
}
);
userData = {
public.markColor = "0,0.1,1,0.2";
};
},
{
glyphname = three.prop;
layers = (
{
layerId = "1E68CFC6-8A63-43E3-914A-DAEC22AC2E91";
paths = (
{
closed = 1;
nodes = (
"-42.232 390 LINE",
"143.768 390 LINE",
"142.004 380 LINE SMOOTH",
"120.845 260 OFFCURVE",
"257.57 128 OFFCURVE",
"389.57 128 QCURVE SMOOTH",
"521.57 128 OFFCURVE",
"702.845 260 OFFCURVE",
"727.531 400 QCURVE SMOOTH",
"752.217 540 OFFCURVE",
"599.255 682 OFFCURVE",
"449.255 682 QCURVE SMOOTH",
"334.255 682 LINE",
"361.409 836 LINE",
"466.409 836 LINE SMOOTH",
"604.409 836 OFFCURVE",
"778.037 970 OFFCURVE",
"799.196 1090 QCURVE SMOOTH",
"820.356 1210 OFFCURVE",
"711.162 1328 OFFCURVE",
"601.162 1328 QCURVE SMOOTH",
"491.162 1328 OFFCURVE",
"328.356 1210 OFFCURVE",
"308.96 1100 QCURVE SMOOTH",
"307.196 1090 LINE",
"121.196 1090 LINE",
"122.96 1100 LINE SMOOTH",
"151.172 1260 OFFCURVE",
"439.022 1486 OFFCURVE",
"629.022 1486 QCURVE SMOOTH",
"819.022 1486 OFFCURVE",
"1022.935 1270 OFFCURVE",
"992.96 1100 QCURVE SMOOTH",
"975.327 1000 OFFCURVE",
"832.883 816 OFFCURVE",
"708.066 766 QCURVE",
"707.361 762 LINE",
"827.719 730 OFFCURVE",
"946.217 540 OFFCURVE",
"921.707 401 QCURVE SMOOTH",
"886.265 200 OFFCURVE",
"571.71 -30 OFFCURVE",
"361.71 -30 QCURVE SMOOTH",
"151.71 -30 OFFCURVE",
"-75.735 200 OFFCURVE",
"-43.996 380 QCURVE SMOOTH"
);
}
);
width = 1051;
}
);
userData = {
public.markColor = "0,0.1,1,0.2";
};
},
{
glyphname = four.prop;
layers = (
{
layerId = "1E68CFC6-8A63-43E3-914A-DAEC22AC2E91";
paths = (
{
closed = 1;
nodes = (
"565.178 398 LINE",
"574.347 450 LINE",
"697.6 1149 LINE",
"685.6 1149 LINE",
"166.163 500 LINE",
"634.164 500 LINE",
"711.164 500 LINE",
"967.164 500 LINE",
"939.304 342 LINE",
"-80.696 342 LINE",
"-58.479 468 LINE",
"759.732 1456 LINE",
"931.732 1456 LINE",
"675 0 LINE",
"495 0 LINE"
);
}
);
width = 1011;
}
);
userData = {
public.markColor = "0,0.1,1,0.2";
};
},
{
glyphname = five.prop;
layers = (
{
layerId = "1E68CFC6-8A63-43E3-914A-DAEC22AC2E91";
paths = (
{
closed = 1;
nodes = (
"-3.877 375 LINE",
"180.123 375 LINE",
"178.359 365 LINE SMOOTH",
"158.963 255 OFFCURVE",
"292.57 128 OFFCURVE",
"422.57 128 QCURVE SMOOTH",
"552.57 128 OFFCURVE",
"749.78 305 OFFCURVE",
"777.992 465 QCURVE SMOOTH",
"806.204 625 OFFCURVE",
"669.827 793 OFFCURVE",
"539.827 793 QCURVE SMOOTH",
"449.827 793 OFFCURVE",
"300.366 728 OFFCURVE",
"229.786 668 QCURVE",
"108.719 730 LINE",
"310.732 1456 LINE",
"1066.732 1456 LINE",
"1036.756 1286 LINE",
"436.757 1286 LINE",
"320.462 876 LINE",
"375.752 906 OFFCURVE",
"517.863 952 OFFCURVE",
"597.863 952 QCURVE SMOOTH",
"787.863 952 OFFCURVE",
"1008.547 695 OFFCURVE",
"967.992 465 QCURVE SMOOTH",
"927.437 235 OFFCURVE",
"604.71 -30 OFFCURVE",
"394.71 -30 QCURVE SMOOTH",
"184.71 -30 OFFCURVE",
"-35.616 195 OFFCURVE",
"-5.641 365 QCURVE SMOOTH"
);
}
);
width = 1072;
}
);
userData = {
public.markColor = "0,0.1,1,0.2";
};
},
{
glyphname = six.prop;
layers = (
{
layerId = "1E68CFC6-8A63-43E3-914A-DAEC22AC2E91";
paths = (
{
closed = 1;
nodes = (
"65.555 644 LINE SMOOTH",
"132.559 1024 OFFCURVE",
"626.022 1486 OFFCURVE",
"1006.022 1486 QCURVE SMOOTH",
"1026.022 1486 LINE",
"998.162 1328 LINE",
"978.162 1328 LINE SMOOTH",
"698.162 1328 OFFCURVE",
"317.032 1004 OFFCURVE",
"255.318 654 QCURVE SMOOTH",
"246.501 604 LINE SMOOTH",
"200.656 344 OFFCURVE",
"346.57 128 OFFCURVE",
"486.57 128 QCURVE SMOOTH",
"626.57 128 OFFCURVE",
"811.603 304 OFFCURVE",
"839.816 464 QCURVE SMOOTH",
"868.028 624 OFFCURVE",
"744.709 798 OFFCURVE",
"604.709 798 QCURVE SMOOTH",
"474.709 798 OFFCURVE",
"244.028 624 OFFCURVE",
"215.816 464 QCURVE",
"145.816 464 LINE",
"184.608 684 OFFCURVE",
"472.569 956 OFFCURVE",
"672.569 956 QCURVE SMOOTH",
"872.569 956 OFFCURVE",
"1068.608 684 OFFCURVE",
"1029.816 464 QCURVE SMOOTH",
"991.024 244 OFFCURVE",
"668.71 -30 OFFCURVE",
"458.71 -30 QCURVE SMOOTH",
"248.71 -30 OFFCURVE",
"0.314 274 OFFCURVE",
"60.265 614 QCURVE SMOOTH"
);
}
);
width = 1136;
}
);
userData = {
public.markColor = "0,0.1,1,0.2";
};
},
{
glyphname = seven.prop;
layers = (
{
layerId = "1E68CFC6-8A63-43E3-914A-DAEC22AC2E91";
paths = (
{
closed = 1;
nodes = (
"774.225 1300 LINE",
"98.225 1300 LINE",
"125.732 1456 LINE",
"999.732 1456 LINE",
"981.394 1352 LINE",
"281 0 LINE",
"85 0 LINE"
);
}
);
width = 882;
}
);
userData = {
public.markColor = "0,0.1,1,0.2";
};
},
{
glyphname = eight.prop;
layers = (
{
layerId = "1E68CFC6-8A63-43E3-914A-DAEC22AC2E91";
paths = (
{
closed = 1;
nodes = (
"66.985 516 OFFCURVE",
"241.076 698 OFFCURVE",
"361.011 743 QCURVE",
"361.716 747 LINE",
"283.298 790 OFFCURVE",
"192.508 967 OFFCURVE",
"213.667 1087 QCURVE SMOOTH",
"245.406 1267 OFFCURVE",
"532.022 1486 OFFCURVE",
"712.022 1486 QCURVE SMOOTH",
"892.022 1486 OFFCURVE",
"1101.406 1267 OFFCURVE",
"1069.667 1087 QCURVE SMOOTH",
"1048.508 967 OFFCURVE",
"895.298 790 OFFCURVE",
"801.716 747 QCURVE",
"801.011 743 LINE",
"905.076 698 OFFCURVE",
"1014.985 516 OFFCURVE",
"992.062 386 QCURVE SMOOTH",
"957.149 188 OFFCURVE",
"644.71 -30 OFFCURVE",
"444.71 -30 QCURVE SMOOTH",
"244.71 -30 OFFCURVE",
"9.149 188 OFFCURVE",
"44.062 386 QCURVE SMOOTH"
);
},
{
closed = 1;
nodes = (
"212.666 276 OFFCURVE",
"342.57 128 OFFCURVE",
"472.57 128 QCURVE SMOOTH",
"602.57 128 OFFCURVE",
"784.666 276 OFFCURVE",
"805.826 396 QCURVE SMOOTH",
"826.985 516 OFFCURVE",
"697.434 666 OFFCURVE",
"567.434 666 QCURVE SMOOTH",
"437.434 666 OFFCURVE",
"254.985 516 OFFCURVE",
"233.825 396 QCURVE SMOOTH"
);
},
{
closed = 1;
nodes = (
"376.508 967 OFFCURVE",
"485.293 824 OFFCURVE",
"595.293 824 QCURVE SMOOTH",
"705.293 824 OFFCURVE",
"864.508 967 OFFCURVE",
"883.904 1077 QCURVE SMOOTH",
"903.3 1187 OFFCURVE",
"794.162 1328 OFFCURVE",
"684.162 1328 QCURVE SMOOTH",
"574.162 1328 OFFCURVE",
"415.3 1187 OFFCURVE",
"395.904 1077 QCURVE SMOOTH"
);
}
);
width = 1156;
}
);
userData = {
public.markColor = "0,0.1,1,0.2";
};
},
{
glyphname = nine.prop;
layers = (
{
layerId = "1E68CFC6-8A63-43E3-914A-DAEC22AC2E91";
paths = (
{
closed = 1;
nodes = (
"146.766 1218 OFFCURVE",
"468.022 1486 OFFCURVE",
"678.022 1486 QCURVE SMOOTH",
"888.022 1486 OFFCURVE",
"1136.418 1182 OFFCURVE",
"1076.467 842 QCURVE SMOOTH",
"1071.177 812 LINE SMOOTH",
"1004.173 432 OFFCURVE",
"510.71 -30 OFFCURVE",
"130.71 -30 QCURVE SMOOTH",
"110.71 -30 LINE",
"138.57 128 LINE",
"158.57 128 LINE SMOOTH",
"438.57 128 OFFCURVE",
"819.7 452 OFFCURVE",
"881.414 802 QCURVE SMOOTH",
"890.231 852 LINE SMOOTH",
"936.076 1112 OFFCURVE",
"790.162 1328 OFFCURVE",
"650.162 1328 QCURVE SMOOTH",
"510.162 1328 OFFCURVE",
"326.01 1157 OFFCURVE",
"298.68 1002 QCURVE SMOOTH",
"271.349 847 OFFCURVE",
"395.55 678 OFFCURVE",
"535.55 678 QCURVE SMOOTH",
"665.55 678 OFFCURVE",
"895.349 847 OFFCURVE",
"922.68 1002 QCURVE",
"992.68 1002 LINE",
"954.593 786 OFFCURVE",
"667.69 520 OFFCURVE",
"467.69 520 QCURVE SMOOTH",
"268.69 520 OFFCURVE",
"70.593 786 OFFCURVE",
"108.68 1002 QCURVE SMOOTH"
);
}
);
width = 1136;
}
);
userData = {
public.markColor = "0,0.1,1,0.2";
};
},
{
glyphname = .notdef;
layers = (
{
layerId = "1E68CFC6-8A63-43E3-914A-DAEC22AC2E91";
paths = (
{
closed = 1;
nodes = (
"127 1456 LINE",
"127 1402 LINE",
"777 1402 LINE",
"777 1456 LINE"
);
},
{
closed = 1;
nodes = (
"100 1456 LINE",
"100 0 LINE",
"154 0 LINE",
"154 1456 LINE"
);
},
{
closed = 1;
nodes = (
"808 0 LINE",
"754 0 LINE",
"754 1456 LINE",
"808 1456 LINE"
);
},
{
closed = 1;
nodes = (
"127 54 LINE",
"127 0 LINE",
"777 0 LINE",
"777 54 LINE"
);
},
{
closed = 1;
nodes = (
"184 30 LINE",
"126 30 LINE",
"719 1426 LINE",
"777 1426 LINE"
);
},
{
closed = 1;
nodes = (
"777 30 LINE",
"184 1426 LINE",
"126 1426 LINE",
"719 30 LINE"
);
}
